<?xml version="1.0" standalone="no"?>
 <!DOCTYPE svg PUBLIC "-//W3C//DTD SVG 1.1//EN" 
 "http://www.w3.org/Graphics/SVG/1.1/DTD/svg11.dtd"> 
<svg
  xmlns:svg="http://www.w3.org/2000/svg"
  xmlns="http://www.w3.org/2000/svg"
  xmlns:xlink="http://www.w3.org/1999/xlink"
  version="1.1"
  width="7.866380cm" height="4.292600cm" viewBox="0 0 78663800 42926000">
<title>SVG Picture created as DNS-DriveBy-B_Silkscreen.svg date 2023/07/20 15:57:40 </title>
  <desc>Picture generated by PCBNEW </desc>
<g style="fill:#000000; fill-opacity:1.000000;stroke:#000000; stroke-opacity:1.000000;
stroke-linecap:round; stroke-linejoin:round;"
 transform="translate(0 0) scale(1 1)">
</g>
<g style="fill:#000000; fill-opacity:0.0; 
stroke:#000000; stroke-width:0.000000; stroke-opacity:1; 
stroke-linecap:round; stroke-linejoin:round;">
</g>
<g style="fill:#E8B2A7; fill-opacity:0.0; 
stroke:#E8B2A7; stroke-width:0.000000; stroke-opacity:1; 
stroke-linecap:round; stroke-linejoin:round;">
</g>
<g style="fill:#E8B2A7; fill-opacity:0.0; 
stroke:#E8B2A7; stroke-width:150000.000000; stroke-opacity:1; 
stroke-linecap:round; stroke-linejoin:round;">
<path d="M8228500 17561310
L7953500 17286310
" />
<path d="M8228500 16986310
L8228500 17561310
" />
<path d="M7953500 17286310
L8228500 16986310
" />
<path d="M8753500 17273810
L7953500 17273810
" />
<path d="M8753500 20573810
L8753500 17273810
" />
<path d="M3491500 24864810
L9228500 24864810
" />
<path d="M9228500 24864810
L9228500 21182810
" />
<path d="M9228500 21182810
L3491500 21182810
" />
<path d="M3491500 21182810
L3491500 24864810
" />
<text x="6378500.000000" y="22568810.000000"
transform="scale(-1 1) translate(-12757000.000000 0)"
textLength="4614524.000000" font-size="1333333.000000" lengthAdjust="spacingAndGlyphs"
text-anchor="middle" opacity="0">Switch</text>
<g class="stroked-text"><desc>Switch</desc>
<path d="M8592785 22473571
L8449928 22521190
L8211833 22521190
L8116595 22473571
L8068976 22425952
L8021357 22330714
L8021357 22235476
L8068976 22140238
L8116595 22092619
L8211833 22045000
L8402309 21997381
L8497547 21949762
L8545166 21902143
L8592785 21806905
L8592785 21711667
L8545166 21616429
L8497547 21568810
L8402309 21521190
L8164214 21521190
L8021357 21568810
" />
<path d="M7688023 21854524
L7497547 22521190
L7307071 22045000
L7116595 22521190
L6926119 21854524
" />
<path d="M6545166 22521190
L6545166 21854524
" />
<path d="M6545166 21521190
L6592785 21568810
L6545166 21616429
L6497547 21568810
L6545166 21521190
L6545166 21616429
" />
<path d="M6211833 21854524
L5830880 21854524
" />
<path d="M6068976 21521190
L6068976 22378333
L6021357 22473571
L5926119 22521190
L5830880 22521190
" />
<path d="M5068976 22473571
L5164214 22521190
L5354690 22521190
L5449928 22473571
L5497547 22425952
L5545166 22330714
L5545166 22045000
L5497547 21949762
L5449928 21902143
L5354690 21854524
L5164214 21854524
L5068976 21902143
" />
<path d="M4640404 22521190
L4640404 21521190
" />
<path d="M4211833 22521190
L4211833 21997381
L4259452 21902143
L4354690 21854524
L4497547 21854524
L4592785 21902143
L4640404 21949762
" />
</g><text x="6378500.000000" y="24178810.000000"
transform="scale(-1 1) translate(-12757000.000000 0)"
textLength="4995476.000000" font-size="1333333.000000" lengthAdjust="spacingAndGlyphs"
text-anchor="middle" opacity="0">Bypass</text>
<g class="stroked-text"><desc>Bypass</desc>
<path d="M8402309 23607381
L8259452 23655000
L8211833 23702619
L8164214 23797857
L8164214 23940714
L8211833 24035952
L8259452 24083571
L8354690 24131190
L8735642 24131190
L8735642 23131190
L8402309 23131190
L8307071 23178810
L8259452 23226429
L8211833 23321667
L8211833 23416905
L8259452 23512143
L8307071 23559762
L8402309 23607381
L8735642 23607381
" />
<path d="M7830880 23464524
L7592785 24131190
" />
<path d="M7354690 23464524
L7592785 24131190
L7688023 24369286
L7735642 24416905
L7830880 24464524
" />
<path d="M6973738 23464524
L6973738 24464524
" />
<path d="M6973738 23512143
L6878499 23464524
L6688023 23464524
L6592785 23512143
L6545166 23559762
L6497547 23655000
L6497547 23940714
L6545166 24035952
L6592785 24083571
L6688023 24131190
L6878499 24131190
L6973738 24083571
" />
<path d="M5640404 24131190
L5640404 23607381
L5688023 23512143
L5783261 23464524
L5973738 23464524
L6068976 23512143
" />
<path d="M5640404 24083571
L5735642 24131190
L5973738 24131190
L6068976 24083571
L6116595 23988333
L6116595 23893095
L6068976 23797857
L5973738 23750238
L5735642 23750238
L5640404 23702619
" />
<path d="M5211833 24083571
L5116595 24131190
L4926119 24131190
L4830880 24083571
L4783261 23988333
L4783261 23940714
L4830880 23845476
L4926119 23797857
L5068976 23797857
L5164214 23750238
L5211833 23655000
L5211833 23607381
L5164214 23512143
L5068976 23464524
L4926119 23464524
L4830880 23512143
" />
<path d="M4402309 24083571
L4307071 24131190
L4116595 24131190
L4021357 24083571
L3973738 23988333
L3973738 23940714
L4021357 23845476
L4116595 23797857
L4259452 23797857
L4354690 23750238
L4402309 23655000
L4402309 23607381
L4354690 23512143
L4259452 23464524
L4116595 23464524
L4021357 23512143
" />
</g><path d="M30091500 41289810
L43053500 41289810
" />
<path d="M43053500 41289810
L43053500 39257810
" />
<path d="M43053500 39257810
L30091500 39257810
" />
<path d="M30091500 39257810
L30091500 41289810
" />
<text x="36678500.000000" y="40848810.000000"
transform="scale(-1 1) translate(-73357000.000000 0)"
textLength="11947857.000000" font-size="1333333.000000" lengthAdjust="spacingAndGlyphs"
text-anchor="middle" opacity="0">GPS Low-Power</text>
<g class="stroked-text"><desc>GPS Low-Power</desc>
<path d="M41988023 39848810
L42083261 39801190
L42226119 39801190
L42368976 39848810
L42464214 39944048
L42511833 40039286
L42559452 40229762
L42559452 40372619
L42511833 40563095
L42464214 40658333
L42368976 40753571
L42226119 40801190
L42130880 40801190
L41988023 40753571
L41940404 40705952
L41940404 40372619
L42130880 40372619
" />
<path d="M41511833 40801190
L41511833 39801190
L41130880 39801190
L41035642 39848810
L40988023 39896429
L40940404 39991667
L40940404 40134524
L40988023 40229762
L41035642 40277381
L41130880 40325000
L41511833 40325000
" />
<path d="M40559452 40753571
L40416595 40801190
L40178500 40801190
L40083261 40753571
L40035642 40705952
L39988023 40610714
L39988023 40515476
L40035642 40420238
L40083261 40372619
L40178500 40325000
L40368976 40277381
L40464214 40229762
L40511833 40182143
L40559452 40086905
L40559452 39991667
L40511833 39896429
L40464214 39848810
L40368976 39801190
L40130880 39801190
L39988023 39848810
" />
<path d="M38321357 40801190
L38797547 40801190
L38797547 39801190
" />
<path d="M37845166 40801190
L37940404 40753571
L37988023 40705952
L38035642 40610714
L38035642 40325000
L37988023 40229762
L37940404 40182143
L37845166 40134524
L37702309 40134524
L37607071 40182143
L37559452 40229762
L37511833 40325000
L37511833 40610714
L37559452 40705952
L37607071 40753571
L37702309 40801190
L37845166 40801190
" />
<path d="M37178500 40134524
L36988023 40801190
L36797547 40325000
L36607071 40801190
L36416595 40134524
" />
<path d="M36035642 40420238
L35273738 40420238
" />
<path d="M34797547 40801190
L34797547 39801190
L34416595 39801190
L34321357 39848810
L34273738 39896429
L34226119 39991667
L34226119 40134524
L34273738 40229762
L34321357 40277381
L34416595 40325000
L34797547 40325000
" />
<path d="M33654690 40801190
L33749928 40753571
L33797547 40705952
L33845166 40610714
L33845166 40325000
L33797547 40229762
L33749928 40182143
L33654690 40134524
L33511833 40134524
L33416595 40182143
L33368976 40229762
L33321357 40325000
L33321357 40610714
L33368976 40705952
L33416595 40753571
L33511833 40801190
L33654690 40801190
" />
<path d="M32988023 40134524
L32797547 40801190
L32607071 40325000
L32416595 40801190
L32226119 40134524
" />
<path d="M31464214 40753571
L31559452 40801190
L31749928 40801190
L31845166 40753571
L31892785 40658333
L31892785 40277381
L31845166 40182143
L31749928 40134524
L31559452 40134524
L31464214 40182143
L31416595 40277381
L31416595 40372619
L31892785 40467857
" />
<path d="M30988023 40801190
L30988023 40134524
" />
<path d="M30988023 40325000
L30940404 40229762
L30892785 40182143
L30797547 40134524
L30702309 40134524
" />
</g><path d="M60391500 24077310
L67303500 24077310
" />
<path d="M67303500 24077310
L67303500 20395310
" />
<path d="M67303500 20395310
L60391500 20395310
" />
<path d="M60391500 20395310
L60391500 24077310
" />
<text x="66978500.000000" y="21868810.000000"
transform="scale(-1 1) translate(-133957000.000000 0)"
textLength="5852619.000000" font-size="1333333.000000" lengthAdjust="spacingAndGlyphs"
text-anchor="start" opacity="0">Resistor</text>
<g class="stroked-text"><desc>Resistor</desc>
<path d="M66071476 21821190
L66404809 21345000
" />
<path d="M66642904 21821190
L66642904 20821190
L66261952 20821190
L66166714 20868810
L66119095 20916429
L66071476 21011667
L66071476 21154524
L66119095 21249762
L66166714 21297381
L66261952 21345000
L66642904 21345000
" />
<path d="M65261952 21773571
L65357190 21821190
L65547666 21821190
L65642904 21773571
L65690523 21678333
L65690523 21297381
L65642904 21202143
L65547666 21154524
L65357190 21154524
L65261952 21202143
L65214333 21297381
L65214333 21392619
L65690523 21487857
" />
<path d="M64833380 21773571
L64738142 21821190
L64547666 21821190
L64452428 21773571
L64404809 21678333
L64404809 21630714
L64452428 21535476
L64547666 21487857
L64690523 21487857
L64785761 21440238
L64833380 21345000
L64833380 21297381
L64785761 21202143
L64690523 21154524
L64547666 21154524
L64452428 21202143
" />
<path d="M63976238 21821190
L63976238 21154524
" />
<path d="M63976238 20821190
L64023857 20868810
L63976238 20916429
L63928619 20868810
L63976238 20821190
L63976238 20916429
" />
<path d="M63547666 21773571
L63452428 21821190
L63261952 21821190
L63166714 21773571
L63119095 21678333
L63119095 21630714
L63166714 21535476
L63261952 21487857
L63404809 21487857
L63500047 21440238
L63547666 21345000
L63547666 21297381
L63500047 21202143
L63404809 21154524
L63261952 21154524
L63166714 21202143
" />
<path d="M62833380 21154524
L62452428 21154524
" />
<path d="M62690523 20821190
L62690523 21678333
L62642904 21773571
L62547666 21821190
L62452428 21821190
" />
<path d="M61976238 21821190
L62071476 21773571
L62119095 21725952
L62166714 21630714
L62166714 21345000
L62119095 21249762
L62071476 21202143
L61976238 21154524
L61833380 21154524
L61738142 21202143
L61690523 21249762
L61642904 21345000
L61642904 21630714
L61690523 21725952
L61738142 21773571
L61833380 21821190
L61976238 21821190
" />
<path d="M61214333 21821190
L61214333 21154524
" />
<path d="M61214333 21345000
L61166714 21249762
L61119095 21202143
L61023857 21154524
L60928619 21154524
" />
</g><text x="66978500.000000" y="23478810.000000"
transform="scale(-1 1) translate(-133957000.000000 0)"
textLength="4995476.000000" font-size="1333333.000000" lengthAdjust="spacingAndGlyphs"
text-anchor="start" opacity="0">Bypass</text>
<g class="stroked-text"><desc>Bypass</desc>
<path d="M66309571 22907381
L66166714 22955000
L66119095 23002619
L66071476 23097857
L66071476 23240714
L66119095 23335952
L66166714 23383571
L66261952 23431190
L66642904 23431190
L66642904 22431190
L66309571 22431190
L66214333 22478810
L66166714 22526429
L66119095 22621667
L66119095 22716905
L66166714 22812143
L66214333 22859762
L66309571 22907381
L66642904 22907381
" />
<path d="M65738142 22764524
L65500047 23431190
" />
<path d="M65261952 22764524
L65500047 23431190
L65595285 23669286
L65642904 23716905
L65738142 23764524
" />
<path d="M64881000 22764524
L64881000 23764524
" />
<path d="M64881000 22812143
L64785761 22764524
L64595285 22764524
L64500047 22812143
L64452428 22859762
L64404809 22955000
L64404809 23240714
L64452428 23335952
L64500047 23383571
L64595285 23431190
L64785761 23431190
L64881000 23383571
" />
<path d="M63547666 23431190
L63547666 22907381
L63595285 22812143
L63690523 22764524
L63881000 22764524
L63976238 22812143
" />
<path d="M63547666 23383571
L63642904 23431190
L63881000 23431190
L63976238 23383571
L64023857 23288333
L64023857 23193095
L63976238 23097857
L63881000 23050238
L63642904 23050238
L63547666 23002619
" />
<path d="M63119095 23383571
L63023857 23431190
L62833380 23431190
L62738142 23383571
L62690523 23288333
L62690523 23240714
L62738142 23145476
L62833380 23097857
L62976238 23097857
L63071476 23050238
L63119095 22955000
L63119095 22907381
L63071476 22812143
L62976238 22764524
L62833380 22764524
L62738142 22812143
" />
<path d="M62309571 23383571
L62214333 23431190
L62023857 23431190
L61928619 23383571
L61881000 23288333
L61881000 23240714
L61928619 23145476
L62023857 23097857
L62166714 23097857
L62261952 23050238
L62309571 22955000
L62309571 22907381
L62261952 22812143
L62166714 22764524
L62023857 22764524
L61928619 22812143
" />
</g><path d="M50066500 32514810
L57678500 32514810
" />
<path d="M57678500 32514810
L57678500 30482810
" />
<path d="M57678500 30482810
L50066500 30482810
" />
<path d="M50066500 30482810
L50066500 32514810
" />
<path d="M28672500 9205810
L39384500 9205810
" />
<path d="M39384500 9205810
L39384500 7173810
" />
<path d="M39384500 7173810
L28672500 7173810
" />
<path d="M28672500 7173810
L28672500 9205810
" />
<text x="54728500.000000" y="20973810.000000"
transform="scale(-1 1) translate(-109457000.000000 0)"
textLength="5757381.000000" font-size="1333333.000000" lengthAdjust="spacingAndGlyphs"
text-anchor="middle" opacity="0">MicroSD</text>
<g class="stroked-text"><desc>MicroSD</desc>
<path d="M57466595 20926190
L57466595 19926190
L57133261 20640476
L56799928 19926190
L56799928 20926190
" />
<path d="M56323738 20926190
L56323738 20259524
" />
<path d="M56323738 19926190
L56371357 19973810
L56323738 20021429
L56276119 19973810
L56323738 19926190
L56323738 20021429
" />
<path d="M55418976 20878571
L55514214 20926190
L55704690 20926190
L55799928 20878571
L55847547 20830952
L55895166 20735714
L55895166 20450000
L55847547 20354762
L55799928 20307143
L55704690 20259524
L55514214 20259524
L55418976 20307143
" />
<path d="M54990404 20926190
L54990404 20259524
" />
<path d="M54990404 20450000
L54942785 20354762
L54895166 20307143
L54799928 20259524
L54704690 20259524
" />
<path d="M54228500 20926190
L54323738 20878571
L54371357 20830952
L54418976 20735714
L54418976 20450000
L54371357 20354762
L54323738 20307143
L54228500 20259524
L54085642 20259524
L53990404 20307143
L53942785 20354762
L53895166 20450000
L53895166 20735714
L53942785 20830952
L53990404 20878571
L54085642 20926190
L54228500 20926190
" />
<path d="M53514214 20878571
L53371357 20926190
L53133261 20926190
L53038023 20878571
L52990404 20830952
L52942785 20735714
L52942785 20640476
L52990404 20545238
L53038023 20497619
L53133261 20450000
L53323738 20402381
L53418976 20354762
L53466595 20307143
L53514214 20211905
L53514214 20116667
L53466595 20021429
L53418976 19973810
L53323738 19926190
L53085642 19926190
L52942785 19973810
" />
<path d="M52514214 20926190
L52514214 19926190
L52276119 19926190
L52133261 19973810
L52038023 20069048
L51990404 20164286
L51942785 20354762
L51942785 20497619
L51990404 20688095
L52038023 20783333
L52133261 20878571
L52276119 20926190
L52514214 20926190
" />
</g><path d="M51146500 21396810
L58258500 21396810
" />
<path d="M58258500 21396810
L58258500 19364810
" />
<path d="M58258500 19364810
L51146500 19364810
" />
<path d="M51146500 19364810
L51146500 21396810
" />
<path d="M54578500 39698810
L54116000 39211310
" />
<path d="M53578500 39223810
L53578500 35548810
" />
<path d="M45203500 41324010
L45203500 39324010
" />
<path d="M68779700 25898810
L68779700 24098810
" />
<path d="M68779700 19723810
L68779700 21223810
" />
<path d="M53103500 39698810
L53578500 39223810
" />
<path d="M53578500 35548810
L53303500 35323810
" />
<path d="M54116000 35536310
L54378500 35298810
" />
<path d="M54116000 39211310
L54116000 35536310
" />
<path d="M54398300 34560610
L56398300 34560610
" />
<path d="M51248300 34560610
L53248300 34560610
" />
<text x="57748300.000000" y="37260610.000000"
transform="scale(-1 1) translate(-115496600.000000 0)"
textLength="1757381.000000" font-size="1333333.000000" lengthAdjust="spacingAndGlyphs"
text-anchor="middle" opacity="0">D4</text>
<g class="stroked-text"><desc>D4</desc>
<path d="M58486395 37212990
L58486395 36212990
L58248300 36212990
L58105442 36260610
L58010204 36355848
L57962585 36451086
L57914966 36641562
L57914966 36784419
L57962585 36974895
L58010204 37070133
L58105442 37165371
L58248300 37212990
L58486395 37212990
" />
<path d="M57057823 36546324
L57057823 37212990
" />
<path d="M57295919 36165371
L57534014 36879657
L56914966 36879657
" />
</g><text x="49848300.000000" y="34210610.000000"
transform="scale(-1 1) translate(-99696600.000000 0)"
textLength="1519286.000000" font-size="1333333.000000" lengthAdjust="spacingAndGlyphs"
text-anchor="middle" opacity="0">TX</text>
<g class="stroked-text"><desc>TX</desc>
<path d="M50610204 33162990
L50038776 33162990
" />
<path d="M50324490 34162990
L50324490 33162990
" />
<path d="M49800680 33162990
L49134014 34162990
" />
<path d="M49134014 33162990
L49800680 34162990
" />
</g><text x="49848300.000000" y="37110610.000000"
transform="scale(-1 1) translate(-99696600.000000 0)"
textLength="1757381.000000" font-size="1333333.000000" lengthAdjust="spacingAndGlyphs"
text-anchor="middle" opacity="0">D3</text>
<g class="stroked-text"><desc>D3</desc>
<path d="M50586395 37062990
L50586395 36062990
L50348300 36062990
L50205442 36110610
L50110204 36205848
L50062585 36301086
L50014966 36491562
L50014966 36634419
L50062585 36824895
L50110204 36920133
L50205442 37015371
L50348300 37062990
L50586395 37062990
" />
<path d="M49681633 36062990
L49062585 36062990
L49395919 36443943
L49253061 36443943
L49157823 36491562
L49110204 36539181
L49062585 36634419
L49062585 36872514
L49110204 36967752
L49157823 37015371
L49253061 37062990
L49538776 37062990
L49634014 37015371
L49681633 36967752
" />
</g><text x="33946500.000000" y="8767810.000000"
transform="scale(-1 1) translate(-67893000.000000 0)"
textLength="9900238.000000" font-size="1333333.000000" lengthAdjust="spacingAndGlyphs"
text-anchor="middle" opacity="0">128x64 OLED</text>
<g class="stroked-text"><desc>128x64 OLED</desc>
<path d="M38232214 8720190
L38803642 8720190
" />
<path d="M38517928 8720190
L38517928 7720190
L38613166 7863048
L38708404 7958286
L38803642 8005905
" />
<path d="M37851261 7815429
L37803642 7767810
L37708404 7720190
L37470309 7720190
L37375071 7767810
L37327452 7815429
L37279833 7910667
L37279833 8005905
L37327452 8148762
L37898880 8720190
L37279833 8720190
" />
<path d="M36708404 8148762
L36803642 8101143
L36851261 8053524
L36898880 7958286
L36898880 7910667
L36851261 7815429
L36803642 7767810
L36708404 7720190
L36517928 7720190
L36422690 7767810
L36375071 7815429
L36327452 7910667
L36327452 7958286
L36375071 8053524
L36422690 8101143
L36517928 8148762
L36708404 8148762
L36803642 8196381
L36851261 8244000
L36898880 8339238
L36898880 8529714
L36851261 8624952
L36803642 8672571
L36708404 8720190
L36517928 8720190
L36422690 8672571
L36375071 8624952
L36327452 8529714
L36327452 8339238
L36375071 8244000
L36422690 8196381
L36517928 8148762
" />
<path d="M35994119 8720190
L35470309 8053524
" />
<path d="M35994119 8053524
L35470309 8720190
" />
<path d="M34660785 7720190
L34851261 7720190
L34946500 7767810
L34994119 7815429
L35089357 7958286
L35136976 8148762
L35136976 8529714
L35089357 8624952
L35041738 8672571
L34946500 8720190
L34756023 8720190
L34660785 8672571
L34613166 8624952
L34565547 8529714
L34565547 8291619
L34613166 8196381
L34660785 8148762
L34756023 8101143
L34946500 8101143
L35041738 8148762
L35089357 8196381
L35136976 8291619
" />
<path d="M33708404 8053524
L33708404 8720190
" />
<path d="M33946500 7672571
L34184595 8386857
L33565547 8386857
" />
<path d="M32232214 7720190
L32041738 7720190
L31946500 7767810
L31851261 7863048
L31803642 8053524
L31803642 8386857
L31851261 8577333
L31946500 8672571
L32041738 8720190
L32232214 8720190
L32327452 8672571
L32422690 8577333
L32470309 8386857
L32470309 8053524
L32422690 7863048
L32327452 7767810
L32232214 7720190
" />
<path d="M30898880 8720190
L31375071 8720190
L31375071 7720190
" />
<path d="M30565547 8196381
L30232214 8196381
" />
<path d="M30089357 8720190
L30565547 8720190
L30565547 7720190
L30089357 7720190
" />
<path d="M29660785 8720190
L29660785 7720190
L29422690 7720190
L29279833 7767810
L29184595 7863048
L29136976 7958286
L29089357 8148762
L29089357 8291619
L29136976 8482095
L29184595 8577333
L29279833 8672571
L29422690 8720190
L29660785 8720190
" />
</g><text x="57798300.000000" y="34210610.000000"
transform="scale(-1 1) translate(-115596600.000000 0)"
textLength="1757381.000000" font-size="1333333.000000" lengthAdjust="spacingAndGlyphs"
text-anchor="middle" opacity="0">RX</text>
<g class="stroked-text"><desc>RX</desc>
<path d="M57964966 34162990
L58298300 33686800
" />
<path d="M58536395 34162990
L58536395 33162990
L58155442 33162990
L58060204 33210610
L58012585 33258229
L57964966 33353467
L57964966 33496324
L58012585 33591562
L58060204 33639181
L58155442 33686800
L58536395 33686800
" />
<path d="M57631633 33162990
L56964966 34162990
" />
<path d="M56964966 33162990
L57631633 34162990
" />
</g><text x="53798300.000000" y="32010610.000000"
transform="scale(-1 1) translate(-107596600.000000 0)"
textLength="6709762.000000" font-size="1333333.000000" lengthAdjust="spacingAndGlyphs"
text-anchor="middle" opacity="0">GPS Pins</text>
<g class="stroked-text"><desc>GPS Pins</desc>
<path d="M56488776 31010610
L56584014 30962990
L56726871 30962990
L56869728 31010610
L56964966 31105848
L57012585 31201086
L57060204 31391562
L57060204 31534419
L57012585 31724895
L56964966 31820133
L56869728 31915371
L56726871 31962990
L56631633 31962990
L56488776 31915371
L56441157 31867752
L56441157 31534419
L56631633 31534419
" />
<path d="M56012585 31962990
L56012585 30962990
L55631633 30962990
L55536395 31010610
L55488776 31058229
L55441157 31153467
L55441157 31296324
L55488776 31391562
L55536395 31439181
L55631633 31486800
L56012585 31486800
" />
<path d="M55060204 31915371
L54917347 31962990
L54679252 31962990
L54584014 31915371
L54536395 31867752
L54488776 31772514
L54488776 31677276
L54536395 31582038
L54584014 31534419
L54679252 31486800
L54869728 31439181
L54964966 31391562
L55012585 31343943
L55060204 31248705
L55060204 31153467
L55012585 31058229
L54964966 31010610
L54869728 30962990
L54631633 30962990
L54488776 31010610
" />
<path d="M53298300 31962990
L53298300 30962990
L52917347 30962990
L52822109 31010610
L52774490 31058229
L52726871 31153467
L52726871 31296324
L52774490 31391562
L52822109 31439181
L52917347 31486800
L53298300 31486800
" />
<path d="M52298299 31962990
L52298299 31296324
" />
<path d="M52298299 30962990
L52345919 31010610
L52298299 31058229
L52250680 31010610
L52298299 30962990
L52298299 31058229
" />
<path d="M51822109 31296324
L51822109 31962990
" />
<path d="M51822109 31391562
L51774490 31343943
L51679252 31296324
L51536395 31296324
L51441157 31343943
L51393538 31439181
L51393538 31962990
" />
<path d="M50964966 31915371
L50869728 31962990
L50679252 31962990
L50584014 31915371
L50536395 31820133
L50536395 31772514
L50584014 31677276
L50679252 31629657
L50822109 31629657
L50917347 31582038
L50964966 31486800
L50964966 31439181
L50917347 31343943
L50822109 31296324
L50679252 31296324
L50584014 31343943
" />
</g><text x="47378500.000000" y="38798810.000000"
transform="scale(-1 1) translate(-94757000.000000 0)"
textLength="1433571.000000" font-size="800000.000000" lengthAdjust="spacingAndGlyphs"
text-anchor="middle" opacity="0">JP1</text>
<g class="stroked-text"><desc>JP1</desc>
<path d="M47878500 38170238
L47878500 38598810
L47907071 38684524
L47964214 38741667
L48049928 38770238
L48107071 38770238
" />
<path d="M47592785 38770238
L47592785 38170238
L47364214 38170238
L47307071 38198810
L47278500 38227381
L47249928 38284524
L47249928 38370238
L47278500 38427381
L47307071 38455952
L47364214 38484524
L47592785 38484524
" />
<path d="M46678500 38770238
L47021357 38770238
" />
<path d="M46849928 38770238
L46849928 38170238
L46907071 38255952
L46964214 38313095
L47021357 38341667
" />
</g><text x="52255800.000000" y="38373810.000000"
transform="scale(-1 1) translate(-104511600.000000 0)"
textLength="1433571.000000" font-size="800000.000000" lengthAdjust="spacingAndGlyphs"
text-anchor="middle" opacity="0">JP2</text>
<g class="stroked-text"><desc>JP2</desc>
<path d="M52755800 37745238
L52755800 38173810
L52784371 38259524
L52841514 38316667
L52927228 38345238
L52984371 38345238
" />
<path d="M52470085 38345238
L52470085 37745238
L52241514 37745238
L52184371 37773810
L52155800 37802381
L52127228 37859524
L52127228 37945238
L52155800 38002381
L52184371 38030952
L52241514 38059524
L52470085 38059524
" />
<path d="M51898657 37802381
L51870085 37773810
L51812942 37745238
L51670085 37745238
L51612942 37773810
L51584371 37802381
L51555800 37859524
L51555800 37916667
L51584371 38002381
L51927228 38345238
L51555800 38345238
" />
</g><text x="71028500.000000" y="22973810.000000"
transform="scale(-1 1) translate(-142057000.000000 0)"
textLength="1433571.000000" font-size="800000.000000" lengthAdjust="spacingAndGlyphs"
text-anchor="middle" opacity="0">JP4</text>
<g class="stroked-text"><desc>JP4</desc>
<path d="M71528500 22345238
L71528500 22773810
L71557071 22859524
L71614214 22916667
L71699928 22945238
L71757071 22945238
" />
<path d="M71242785 22945238
L71242785 22345238
L71014214 22345238
L70957071 22373810
L70928500 22402381
L70899928 22459524
L70899928 22545238
L70928500 22602381
L70957071 22630952
L71014214 22659524
L71242785 22659524
" />
<path d="M70385642 22545238
L70385642 22945238
" />
<path d="M70528500 22316667
L70671357 22745238
L70299928 22745238
" />
</g><text x="55405800.000000" y="38373810.000000"
transform="scale(-1 1) translate(-110811600.000000 0)"
textLength="1433571.000000" font-size="800000.000000" lengthAdjust="spacingAndGlyphs"
text-anchor="middle" opacity="0">JP3</text>
<g class="stroked-text"><desc>JP3</desc>
<path d="M55905800 37745238
L55905800 38173810
L55934371 38259524
L55991514 38316667
L56077228 38345238
L56134371 38345238
" />
<path d="M55620085 38345238
L55620085 37745238
L55391514 37745238
L55334371 37773810
L55305800 37802381
L55277228 37859524
L55277228 37945238
L55305800 38002381
L55334371 38030952
L55391514 38059524
L55620085 38059524
" />
<path d="M55077228 37745238
L54705800 37745238
L54905800 37973810
L54820085 37973810
L54762942 38002381
L54734371 38030952
L54705800 38088095
L54705800 38230952
L54734371 38288095
L54762942 38316667
L54820085 38345238
L54991514 38345238
L55048657 38316667
L55077228 38288095
" />
</g><text x="8653500.000000" y="16473810.000000"
transform="scale(-1 1) translate(-17307000.000000 0)"
textLength="1433571.000000" font-size="800000.000000" lengthAdjust="spacingAndGlyphs"
text-anchor="middle" opacity="0">JP5</text>
<g class="stroked-text"><desc>JP5</desc>
<path d="M9153500 15845238
L9153500 16273810
L9182071 16359524
L9239214 16416667
L9324928 16445238
L9382071 16445238
" />
<path d="M8867785 16445238
L8867785 15845238
L8639214 15845238
L8582071 15873810
L8553500 15902381
L8524928 15959524
L8524928 16045238
L8553500 16102381
L8582071 16130952
L8639214 16159524
L8867785 16159524
" />
<path d="M7982071 15845238
L8267785 15845238
L8296357 16130952
L8267785 16102381
L8210642 16073810
L8067785 16073810
L8010642 16102381
L7982071 16130952
L7953500 16188095
L7953500 16330952
L7982071 16388095
L8010642 16416667
L8067785 16445238
L8210642 16445238
L8267785 16416667
L8296357 16388095
" />
</g></g>
<g style="fill:#E8B2A7; fill-opacity:0.0; 
stroke:#E8B2A7; stroke-width:120000.000000; stroke-opacity:1; 
stroke-linecap:round; stroke-linejoin:round;">
<path d="M44252900 42305010
L44710100 42305010
" />
<path d="M44151300 42051010
L44811700 42051010
" />
<path d="M44100500 41797010
L44862500 41797010
" />
<path d="M44506900 41339810
L44506900 41797010
" />
<path d="M47928500 41323810
L47928500 39323810
" />
<path d="M47928500 39323810
L43828500 39323810
" />
<path d="M43828500 39323810
L43828500 41323810
" />
<path d="M43828500 41323810
L47928500 41323810
" />
<path d="M53255800 37260610
L53255800 33160610
" />
<path d="M51255800 37260610
L53255800 37260610
" />
<path d="M51255800 33160610
L51255800 37260610
" />
<path d="M53255800 33160610
L51255800 33160610
" />
<path d="M69779700 21273810
L67779700 21273810
" />
<path d="M67779700 21273810
L67779700 24073810
" />
<path d="M69779700 24073810
L69779700 21273810
" />
<path d="M67779700 24073810
L69779700 24073810
" />
<path d="M47512500 5655410
L47512500 2709010
" />
<path d="M47512500 2709010
L62244500 2709010
" />
<path d="M57469300 17237810
L60923700 17237810
" />
<path d="M47512500 15764610
L47512500 8652610
" />
<path d="M62244500 2709010
L62244500 5604610
" />
<path d="M62244500 16018610
L62244500 8652610
" />
<path d="M56405800 37260610
L56405800 33160610
" />
<path d="M56405800 33160610
L54405800 33160610
" />
<path d="M54405800 37260610
L56405800 37260610
" />
<path d="M54405800 33160610
L54405800 37260610
" />
<path d="M4553500 17573810
L7353500 17573810
" />
<path d="M4553500 15573810
L4553500 17573810
" />
<path d="M7353500 15573810
L4553500 15573810
" />
<path d="M7353500 17573810
L7353500 15573810
" />
<g >
</g>
<g >
</g>
<g >
</g>
<g >
</g>
<g >
</g>
<g >
</g>
<g >
</g>
<g >
</g>
<g >
</g>
<g >
</g>
<g >
</g>
<g >
</g>
<g >
</g>
<g >
</g>
<g >
</g>
<g >
</g>
<g >
</g>
<g >
</g>
<g >
</g>
<g >
</g>
<g >
</g>
<g >
</g>
<g >
</g>
<g >
</g>
<g style="fill:#000000; fill-opacity:0.0; 
stroke:#000000; stroke-width:120000.000000; stroke-opacity:1; 
stroke-linecap:round; stroke-linejoin:round;">
</g>
<g style="fill:#000000; fill-opacity:1.0; 
stroke:#000000; stroke-width:1.000000; stroke-opacity:1; 
stroke-linecap:round; stroke-linejoin:round;">
<circle cx="49948500.000000" cy="6737810.000000" r="500000.000000" /> 
</g>
<g style="fill:#000000; fill-opacity:1.0; 
stroke:#000000; stroke-width:21200.000000; stroke-opacity:1; 
stroke-linecap:round; stroke-linejoin:round;">
</g>
<g style="fill:#000000; fill-opacity:1.0; 
stroke:#000000; stroke-width:1.000000; stroke-opacity:1; 
stroke-linecap:round; stroke-linejoin:round;">
<circle cx="57928500.000000" cy="6737810.000000" r="500000.000000" /> 
</g>
<g style="fill:#000000; fill-opacity:1.0; 
stroke:#000000; stroke-width:21200.000000; stroke-opacity:1; 
stroke-linecap:round; stroke-linejoin:round;">
</g>
<g >
</g>
<g >
</g>
<g >
</g>
<g >
</g>
<g >
</g>
</g>
<g style="fill:#000000; fill-opacity:1.0; 
stroke:#000000; stroke-width:21200.000000; stroke-opacity:1; 
stroke-linecap:round; stroke-linejoin:round;">
</g>
<g style="fill:#D0D2CD; fill-opacity:1.0; 
stroke:#D0D2CD; stroke-width:21200.000000; stroke-opacity:1; 
stroke-linecap:round; stroke-linejoin:round;">
</g>
<g style="fill:#D0D2CD; fill-opacity:1.0; 
stroke:#D0D2CD; stroke-width:349999.000000; stroke-opacity:1; 
stroke-linecap:round; stroke-linejoin:round;">
</g>
<g style="fill:#D0D2CD; fill-opacity:0.0; 
stroke:#D0D2CD; stroke-width:349999.000000; stroke-opacity:1; 
stroke-linecap:round; stroke-linejoin:round;">
<path d="M3843898 3224645
L3968029 3146194
" />
</g>
<g style="fill:#D0D2CD; fill-opacity:1.0; 
stroke:#D0D2CD; stroke-width:1.000000; stroke-opacity:1; 
stroke-linecap:round; stroke-linejoin:round;">
<circle cx="75508287.000000" cy="42720612.000000" r="174999.500000" /> 
</g>
<g style="fill:#D0D2CD; fill-opacity:1.0; 
stroke:#D0D2CD; stroke-width:349999.000000; stroke-opacity:1; 
stroke-linecap:round; stroke-linejoin:round;">
</g>
<g style="fill:#D0D2CD; fill-opacity:0.0; 
stroke:#D0D2CD; stroke-width:349999.000000; stroke-opacity:1; 
stroke-linecap:round; stroke-linejoin:round;">
<path d="M76239541 2811087
L76380796 2850286
" />
<path d="M77919616 41505428
L77828895 41621884
" />
<path d="M4777047 42630135
L4635793 42590937
" />
<path d="M2511985 5571849
L2522978 5424097
" />
<path d="M78154868 4307938
L78220642 4438760
" />
<path d="M78450110 40308615
L78417810 40451862
" />
</g>
<g style="fill:#D0D2CD; fill-opacity:1.0; 
stroke:#D0D2CD; stroke-width:1.000000; stroke-opacity:1; 
stroke-linecap:round; stroke-linejoin:round;">
<circle cx="5508298.000000" cy="2720610.000000" r="174999.500000" /> 
</g>
<g style="fill:#D0D2CD; fill-opacity:1.0; 
stroke:#D0D2CD; stroke-width:349999.000000; stroke-opacity:1; 
stroke-linecap:round; stroke-linejoin:round;">
</g>
<g style="fill:#D0D2CD; fill-opacity:0.0; 
stroke:#D0D2CD; stroke-width:349999.000000; stroke-opacity:1; 
stroke-linecap:round; stroke-linejoin:round;">
<path d="M3096972 41505428
L3012334 41385011
" />
<path d="M77172692 3224645
L77293108 3309283
" />
<path d="M2541175 40163620
L2522978 40017124
" />
<path d="M76519811 42544941
L76380796 42590937
" />
<path d="M75657049 42716925
L75508287 42720612
" />
<path d="M4360249 42492251
L4226450 42432967
" />
<path d="M78004253 4056208
L78082704 4180339
" />
<path d="M3187693 41621884
L3096972 41505428
" />
<path d="M75951298 2753487
L76096294 2778787
" />
</g>
<g style="fill:#D0D2CD; fill-opacity:1.0; 
stroke:#D0D2CD; stroke-width:1.000000; stroke-opacity:1; 
stroke-linecap:round; stroke-linejoin:round;">
<circle cx="77629610.000000" cy="3599290.000000" r="174999.500000" /> 
</g>
<g style="fill:#D0D2CD; fill-opacity:1.0; 
stroke:#D0D2CD; stroke-width:349999.000000; stroke-opacity:1; 
stroke-linecap:round; stroke-linejoin:round;">
</g>
<g style="fill:#D0D2CD; fill-opacity:0.0; 
stroke:#D0D2CD; stroke-width:349999.000000; stroke-opacity:1; 
stroke-linecap:round; stroke-linejoin:round;">
<path d="M76656341 2948972
L76790140 3008255
" />
<path d="M77732192 3707087
L77828895 3819336
" />
<path d="M3386979 41841931
L3284396 41734133
" />
<path d="M2508298 5720610
L2511985 5571849
" />
<path d="M77409563 42041218
L77293108 42131939
" />
</g>
<g style="fill:#D0D2CD; fill-opacity:1.0; 
stroke:#D0D2CD; stroke-width:1.000000; stroke-opacity:1; 
stroke-linecap:round; stroke-linejoin:round;">
<circle cx="77629610.000000" cy="41841931.000000" r="174999.500000" /> 
</g>
<g style="fill:#D0D2CD; fill-opacity:1.0; 
stroke:#D0D2CD; stroke-width:349999.000000; stroke-opacity:1; 
stroke-linecap:round; stroke-linejoin:round;">
</g>
<g style="fill:#D0D2CD; fill-opacity:0.0; 
stroke:#D0D2CD; stroke-width:349999.000000; stroke-opacity:1; 
stroke-linecap:round; stroke-linejoin:round;">
<path d="M78475410 40163620
L78450110 40308615
" />
<path d="M75508287 2720610
L75657049 2724297
" />
<path d="M5065289 2753487
L5211785 2735290
" />
<path d="M2541175 5277600
L2566475 5132606
" />
<path d="M2508298 39720612
L2508298 5720610
" />
<path d="M4920294 42662435
L4777047 42630135
" />
<path d="M75804802 42705932
L75657049 42716925
" />
</g>
<g style="fill:#D0D2CD; fill-opacity:1.0; 
stroke:#D0D2CD; stroke-width:1.000000; stroke-opacity:1; 
stroke-linecap:round; stroke-linejoin:round;">
<circle cx="3386979.000000" cy="41841931.000000" r="174999.500000" /> 
</g>
<g style="fill:#D0D2CD; fill-opacity:1.0; 
stroke:#D0D2CD; stroke-width:349999.000000; stroke-opacity:1; 
stroke-linecap:round; stroke-linejoin:round;">
</g>
<g style="fill:#D0D2CD; fill-opacity:0.0; 
stroke:#D0D2CD; stroke-width:349999.000000; stroke-opacity:1; 
stroke-linecap:round; stroke-linejoin:round;">
<path d="M2683969 4709089
L2736660 4572559
" />
<path d="M78378611 40593115
L78332616 40732130
" />
<path d="M78493607 40017124
L78475410 40163620
" />
<path d="M78332616 4709089
L78378611 4848104
" />
<path d="M77048561 3146194
L77172692 3224645
" />
<path d="M76380796 42590937
L76239541 42630135
" />
<path d="M2861718 41133281
L2795943 41002459
" />
<path d="M2522978 5424097
L2541175 5277600
" />
<path d="M3386979 3599290
L3494777 3496706
" />
<path d="M78332616 40732130
L78279926 40868660
" />
<path d="M78450110 5132606
L78475410 5277600
" />
<path d="M77521813 41944514
L77409563 42041218
" />
<path d="M77828895 3819336
L77919616 3935792
" />
<path d="M78279926 40868660
L78220642 41002459
" />
<path d="M77521813 3496706
L77629610 3599290
" />
<path d="M3723482 3309283
L3843898 3224645
" />
<path d="M4226450 3008255
L4360249 2948972
" />
<path d="M2933882 41260880
L2861718 41133281
" />
<path d="M3012334 4056208
L3096972 3935792
" />
<path d="M78508287 39720612
L78504600 39869373
" />
<path d="M78082704 41260880
L78004253 41385011
" />
<path d="M77293108 42131939
L77172692 42216576
" />
<path d="M2637974 40593115
L2598775 40451862
" />
<path d="M76519811 2896281
L76656341 2948972
" />
<path d="M76920962 42367192
L76790140 42432967
" />
<path d="M4360249 2948972
L4496778 2896281
" />
<path d="M78417810 4989358
L78450110 5132606
" />
</g>
<g style="fill:#D0D2CD; fill-opacity:1.0; 
stroke:#D0D2CD; stroke-width:1.000000; stroke-opacity:1; 
stroke-linecap:round; stroke-linejoin:round;">
<circle cx="5508298.000000" cy="42720612.000000" r="174999.500000" /> 
</g>
<g style="fill:#D0D2CD; fill-opacity:1.0; 
stroke:#D0D2CD; stroke-width:349999.000000; stroke-opacity:1; 
stroke-linecap:round; stroke-linejoin:round;">
</g>
<g style="fill:#D0D2CD; fill-opacity:0.0; 
stroke:#D0D2CD; stroke-width:349999.000000; stroke-opacity:1; 
stroke-linecap:round; stroke-linejoin:round;">
<path d="M2637974 4848104
L2683969 4709089
" />
<path d="M5359537 2724297
L5508298 2720610
" />
<path d="M2598775 40451862
L2566475 40308615
" />
<path d="M3843898 42216576
L3723482 42131939
" />
<path d="M77409563 3400004
L77521813 3496706
" />
<path d="M76656341 42492251
L76519811 42544941
" />
<path d="M75951298 42687735
L75804802 42705932
" />
<path d="M76096294 42662435
L75951298 42687735
" />
<path d="M3968029 42295028
L3843898 42216576
" />
<path d="M78004253 41385011
L77919616 41505428
" />
<path d="M78378611 4848104
L78417810 4989358
" />
<path d="M2566475 5132606
L2598775 4989358
" />
<path d="M4226450 42432967
L4095628 42367192
" />
<path d="M4635793 42590937
L4496778 42544941
" />
<path d="M2795943 41002459
L2736660 40868660
" />
<path d="M4095628 3074030
L4226450 3008255
" />
<path d="M3187693 3819336
L3284396 3707087
" />
</g>
<g style="fill:#D0D2CD; fill-opacity:1.0; 
stroke:#D0D2CD; stroke-width:1.000000; stroke-opacity:1; 
stroke-linecap:round; stroke-linejoin:round;">
<circle cx="78508287.000000" cy="5720610.000000" r="174999.500000" /> 
</g>
<g style="fill:#D0D2CD; fill-opacity:1.0; 
stroke:#D0D2CD; stroke-width:349999.000000; stroke-opacity:1; 
stroke-linecap:round; stroke-linejoin:round;">
</g>
<g style="fill:#D0D2CD; fill-opacity:0.0; 
stroke:#D0D2CD; stroke-width:349999.000000; stroke-opacity:1; 
stroke-linecap:round; stroke-linejoin:round;">
<path d="M77828895 41621884
L77732192 41734133
" />
<path d="M4635793 2850286
L4777047 2811087
" />
<path d="M2933882 4180339
L3012334 4056208
" />
<path d="M3607026 3400004
L3723482 3309283
" />
<path d="M4920294 2778787
L5065289 2753487
" />
<path d="M76239541 42630135
L76096294 42662435
" />
<path d="M2683969 40732130
L2637974 40593115
" />
<path d="M2861718 4307938
L2933882 4180339
" />
<path d="M2795943 4438760
L2861718 4307938
" />
<path d="M75508287 42720612
L5508298 42720612
" />
<path d="M75657049 2724297
L75804802 2735290
" />
<path d="M4496778 42544941
L4360249 42492251
" />
<path d="M78154868 41133281
L78082704 41260880
" />
<path d="M2736660 4572559
L2795943 4438760
" />
<path d="M3607026 42041218
L3494777 41944514
" />
<path d="M78417810 40451862
L78378611 40593115
" />
</g>
<g style="fill:#D0D2CD; fill-opacity:1.0; 
stroke:#D0D2CD; stroke-width:1.000000; stroke-opacity:1; 
stroke-linecap:round; stroke-linejoin:round;">
<circle cx="75508287.000000" cy="2720610.000000" r="174999.500000" /> 
</g>
<g style="fill:#D0D2CD; fill-opacity:1.0; 
stroke:#D0D2CD; stroke-width:349999.000000; stroke-opacity:1; 
stroke-linecap:round; stroke-linejoin:round;">
</g>
<g style="fill:#D0D2CD; fill-opacity:0.0; 
stroke:#D0D2CD; stroke-width:349999.000000; stroke-opacity:1; 
stroke-linecap:round; stroke-linejoin:round;">
<path d="M4496778 2896281
L4635793 2850286
" />
<path d="M77172692 42216576
L77048561 42295028
" />
<path d="M76380796 2850286
L76519811 2896281
" />
<path d="M3968029 3146194
L4095628 3074030
" />
<path d="M2736660 40868660
L2683969 40732130
" />
<path d="M4095628 42367192
L3968029 42295028
" />
</g>
<g style="fill:#D0D2CD; fill-opacity:1.0; 
stroke:#D0D2CD; stroke-width:1.000000; stroke-opacity:1; 
stroke-linecap:round; stroke-linejoin:round;">
<circle cx="78508287.000000" cy="39720612.000000" r="174999.500000" /> 
</g>
<g style="fill:#D0D2CD; fill-opacity:1.0; 
stroke:#D0D2CD; stroke-width:349999.000000; stroke-opacity:1; 
stroke-linecap:round; stroke-linejoin:round;">
</g>
<g style="fill:#D0D2CD; fill-opacity:0.0; 
stroke:#D0D2CD; stroke-width:349999.000000; stroke-opacity:1; 
stroke-linecap:round; stroke-linejoin:round;">
<path d="M3284396 3707087
L3386979 3599290
" />
<path d="M5065289 42687735
L4920294 42662435
" />
<path d="M5211785 2735290
L5359537 2724297
" />
<path d="M78493607 5424097
L78504600 5571849
" />
<path d="M77732192 41734133
L77629610 41841931
" />
<path d="M77919616 3935792
L78004253 4056208
" />
<path d="M78082704 4180339
L78154868 4307938
" />
<path d="M2522978 40017124
L2511985 39869373
" />
<path d="M5359537 42716925
L5211785 42705932
" />
<path d="M3494777 3496706
L3607026 3400004
" />
<path d="M3096972 3935792
L3187693 3819336
" />
<path d="M2511985 39869373
L2508298 39720612
" />
<path d="M3494777 41944514
L3386979 41841931
" />
</g>
<g style="fill:#D0D2CD; fill-opacity:1.0; 
stroke:#D0D2CD; stroke-width:1.000000; stroke-opacity:1; 
stroke-linecap:round; stroke-linejoin:round;">
<circle cx="3386979.000000" cy="3599290.000000" r="174999.500000" /> 
</g>
<g style="fill:#D0D2CD; fill-opacity:1.0; 
stroke:#D0D2CD; stroke-width:349999.000000; stroke-opacity:1; 
stroke-linecap:round; stroke-linejoin:round;">
</g>
<g style="fill:#D0D2CD; fill-opacity:0.0; 
stroke:#D0D2CD; stroke-width:349999.000000; stroke-opacity:1; 
stroke-linecap:round; stroke-linejoin:round;">
<path d="M75804802 2735290
L75951298 2753487
" />
<path d="M3012334 41385011
L2933882 41260880
" />
<path d="M78279926 4572559
L78332616 4709089
" />
</g>
<g style="fill:#D0D2CD; fill-opacity:1.0; 
stroke:#D0D2CD; stroke-width:1.000000; stroke-opacity:1; 
stroke-linecap:round; stroke-linejoin:round;">
<circle cx="2508298.000000" cy="5720610.000000" r="174999.500000" /> 
</g>
<g style="fill:#D0D2CD; fill-opacity:1.0; 
stroke:#D0D2CD; stroke-width:349999.000000; stroke-opacity:1; 
stroke-linecap:round; stroke-linejoin:round;">
</g>
<g style="fill:#D0D2CD; fill-opacity:0.0; 
stroke:#D0D2CD; stroke-width:349999.000000; stroke-opacity:1; 
stroke-linecap:round; stroke-linejoin:round;">
<path d="M5508298 42720612
L5359537 42716925
" />
<path d="M2598775 4989358
L2637974 4848104
" />
<path d="M3284396 41734133
L3187693 41621884
" />
<path d="M78220642 4438760
L78279926 4572559
" />
<path d="M77629610 41841931
L77521813 41944514
" />
<path d="M77629610 3599290
L77732192 3707087
" />
<path d="M3723482 42131939
L3607026 42041218
" />
<path d="M78504600 5571849
L78508287 5720610
" />
<path d="M76790140 3008255
L76920962 3074030
" />
<path d="M76920962 3074030
L77048561 3146194
" />
<path d="M76096294 2778787
L76239541 2811087
" />
<path d="M78508287 5720610
L78508287 39720612
" />
<path d="M78220642 41002459
L78154868 41133281
" />
<path d="M78475410 5277600
L78493607 5424097
" />
<path d="M4777047 2811087
L4920294 2778787
" />
<path d="M77048561 42295028
L76920962 42367192
" />
<path d="M77293108 3309283
L77409563 3400004
" />
<path d="M78504600 39869373
L78493607 40017124
" />
<path d="M2566475 40308615
L2541175 40163620
" />
<path d="M76790140 42432967
L76656341 42492251
" />
<path d="M5508298 2720610
L75508287 2720610
" />
<path d="M5211785 42705932
L5065289 42687735
" />
<g >
</g>
<g >
</g>
<g >
</g>
<g >
</g>
<g >
</g>
<g >
</g>
<g >
</g>
<g >
</g>
<g >
</g>
<g >
</g>
<g >
</g>
<g >
</g>
<g >
</g>
<g >
</g>
<g >
</g>
<g >
</g>
<g >
</g>
<g >
</g>
<g >
</g>
<g >
</g>
<g >
</g>
<g >
</g>
<g >
</g>
<g >
</g>
<g >
</g>
<g >
</g>
<g >
</g>
<g >
</g>
<g >
</g>
</g> 
</svg>
