<?xml version="1.0" standalone="no"?>
 <!DOCTYPE svg PUBLIC "-//W3C//DTD SVG 1.1//EN" 
 "http://www.w3.org/Graphics/SVG/1.1/DTD/svg11.dtd"> 
<svg
  xmlns:svg="http://www.w3.org/2000/svg"
  xmlns="http://www.w3.org/2000/svg"
  xmlns:xlink="http://www.w3.org/1999/xlink"
  version="1.1"
  width="7.866380cm" height="4.292600cm" viewBox="0 0 78663800 42926000">
<title>SVG Picture created as DNS-DriveBy-F_Silkscreen.svg date 2023/07/20 15:57:40 </title>
  <desc>Picture generated by PCBNEW </desc>
<g style="fill:#000000; fill-opacity:1.000000;stroke:#000000; stroke-opacity:1.000000;
stroke-linecap:round; stroke-linejoin:round;"
 transform="translate(0 0) scale(1 1)">
</g>
<g style="fill:#000000; fill-opacity:0.0; 
stroke:#000000; stroke-width:0.000000; stroke-opacity:1; 
stroke-linecap:round; stroke-linejoin:round;">
</g>
<g style="fill:#F2EDA1; fill-opacity:0.0; 
stroke:#F2EDA1; stroke-width:0.000000; stroke-opacity:1; 
stroke-linecap:round; stroke-linejoin:round;">
</g>
<g style="fill:#F2EDA1; fill-opacity:0.0; 
stroke:#F2EDA1; stroke-width:150000.000000; stroke-opacity:1; 
stroke-linecap:round; stroke-linejoin:round;">
<path d="M31408301 6502208
L36944301 6502208
" />
<path d="M36944301 6502208
L36944301 4737208
" />
<path d="M36944301 4737208
L31408301 4737208
" />
<path d="M31408301 4737208
L31408301 6502208
" />
<path d="M67493500 16229810
L69525500 16229810
" />
<path d="M69525500 16229810
L69525500 9117810
" />
<path d="M69525500 9117810
L67493500 9117810
" />
<path d="M67493500 9117810
L67493500 16229810
" />
<path d="M23297500 12673810
L29647500 12673810
" />
<path d="M29647500 12673810
L29647500 10641810
" />
<path d="M29647500 10641810
L23297500 10641810
" />
<path d="M23297500 10641810
L23297500 12673810
" />
<path d="M50221500 12546810
L57333500 12546810
" />
<path d="M57333500 12546810
L57333500 10514810
" />
<path d="M57333500 10514810
L50221500 10514810
" />
<path d="M50221500 10514810
L50221500 12546810
" />
<path d="M25253500 27073810
L25253500 26373810
" />
<path d="M25253500 26373810
L24553500 26373810
" />
<path d="M11203302 36673810
L11203697 35406209
" />
<path d="M30521101 5674008
L28085899 5673613
" />
<path d="M24753500 26173810
L24753500 26573810
" />
<path d="M25253500 16573810
L24553500 16573810
" />
<path d="M76378500 17898810
L76128105 18284012
" />
<path d="M76128105 18284012
L75828500 17898810
" />
<path d="M75828500 17898810
L76378500 17898810
" />
</g>
<g style="fill:#F2EDA1; fill-opacity:1.0; 
stroke:#F2EDA1; stroke-width:150000.000000; stroke-opacity:1; 
stroke-linecap:round; stroke-linejoin:round;">
<path style="fill:#F2EDA1; fill-opacity:1.0; 
stroke:#F2EDA1; stroke-width:150000.000000; stroke-opacity:1; 
stroke-linecap:round; stroke-linejoin:round;fill-rule:evenodd;"
d="M 76128105.000000,18284012.000000
75828500.000000,17898810.000000
76378500.000000,17898810.000000
Z" /> 
</g>
<g style="fill:#F2EDA1; fill-opacity:0.0; 
stroke:#F2EDA1; stroke-width:150000.000000; stroke-opacity:1; 
stroke-linecap:round; stroke-linejoin:round;">
<path d="M76103500 17348810
L76103500 18098810
" />
<path d="M24753500 26573810
L24553500 26373810
" />
<path d="M24753500 16773810
L24553500 16573810
" />
<path d="M11503302 35791411
L10953302 35791411
" />
<path d="M24553500 16573810
L24753500 16373810
" />
<path d="M11203697 35406209
L11503302 35791411
" />
<path d="M24553500 26373810
L24753500 26173810
" />
<path d="M28471101 5924008
L28085899 5673613
" />
<path d="M25253500 17273810
L25253500 16573810
" />
<path d="M28471101 5924008
L28085899 5673613
" />
<path d="M28085899 5673613
L28471101 5374008
" />
<path d="M28471101 5374008
L28471101 5924008
" />
</g>
<g style="fill:#F2EDA1; fill-opacity:1.0; 
stroke:#F2EDA1; stroke-width:150000.000000; stroke-opacity:1; 
stroke-linecap:round; stroke-linejoin:round;">
<path style="fill:#F2EDA1; fill-opacity:1.0; 
stroke:#F2EDA1; stroke-width:150000.000000; stroke-opacity:1; 
stroke-linecap:round; stroke-linejoin:round;fill-rule:evenodd;"
d="M 28471101.000000,5924008.000000
28085899.000000,5673613.000000
28471101.000000,5374008.000000
Z" /> 
</g>
<g style="fill:#F2EDA1; fill-opacity:0.0; 
stroke:#F2EDA1; stroke-width:150000.000000; stroke-opacity:1; 
stroke-linecap:round; stroke-linejoin:round;">
<path d="M24753500 16373810
L24753500 16773810
" />
<path d="M73473793 17348487
L76103500 17348810
" />
<path d="M10953302 35791411
L11203697 35406209
" />
<path d="M28085899 5673613
L28471101 5374008
" />
<path d="M28471101 5374008
L28471101 5924008
" />
<text x="74753500.000000" y="31418810.000000"
textLength="2671190.000000" font-size="1333333.000000" lengthAdjust="spacingAndGlyphs"
text-anchor="middle" opacity="0">JST</text>
<g class="stroked-text"><desc>JST</desc>
<path d="M74039214 30371190
L74039214 31085476
L73991595 31228333
L73896357 31323571
L73753500 31371190
L73658261 31371190
" />
<path d="M74467785 31323571
L74610642 31371190
L74848738 31371190
L74943976 31323571
L74991595 31275952
L75039214 31180714
L75039214 31085476
L74991595 30990238
L74943976 30942619
L74848738 30895000
L74658261 30847381
L74563023 30799762
L74515404 30752143
L74467785 30656905
L74467785 30561667
L74515404 30466429
L74563023 30418810
L74658261 30371190
L74896357 30371190
L75039214 30418810
" />
<path d="M75324928 30371190
L75896357 30371190
" />
<path d="M75610642 31371190
L75610642 30371190
" />
</g><text x="74753500.000000" y="33028810.000000"
textLength="2575952.000000" font-size="1333333.000000" lengthAdjust="spacingAndGlyphs"
text-anchor="middle" opacity="0">2.0</text>
<g class="stroked-text"><desc>2.0</desc>
<path d="M73753500 32076429
L73801119 32028810
L73896357 31981190
L74134452 31981190
L74229690 32028810
L74277309 32076429
L74324928 32171667
L74324928 32266905
L74277309 32409762
L73705880 32981190
L74324928 32981190
" />
<path d="M74753500 32885952
L74801119 32933571
L74753500 32981190
L74705880 32933571
L74753500 32885952
L74753500 32981190
" />
<path d="M75420166 31981190
L75515404 31981190
L75610642 32028810
L75658261 32076429
L75705880 32171667
L75753500 32362143
L75753500 32600238
L75705880 32790714
L75658261 32885952
L75610642 32933571
L75515404 32981190
L75420166 32981190
L75324928 32933571
L75277309 32885952
L75229690 32790714
L75182071 32600238
L75182071 32362143
L75229690 32171667
L75277309 32076429
L75324928 32028810
L75420166 31981190
" />
</g><text x="70128500.000000" y="17873810.000000"
textLength="5480714.000000" font-size="1333333.000000" lengthAdjust="spacingAndGlyphs"
text-anchor="middle" opacity="0">Serial1</text>
<g class="stroked-text"><desc>Serial1</desc>
<path d="M67676119 17778571
L67818976 17826190
L68057071 17826190
L68152309 17778571
L68199928 17730952
L68247547 17635714
L68247547 17540476
L68199928 17445238
L68152309 17397619
L68057071 17350000
L67866595 17302381
L67771357 17254762
L67723738 17207143
L67676119 17111905
L67676119 17016667
L67723738 16921429
L67771357 16873810
L67866595 16826190
L68104690 16826190
L68247547 16873810
" />
<path d="M69057071 17778571
L68961833 17826190
L68771357 17826190
L68676119 17778571
L68628500 17683333
L68628500 17302381
L68676119 17207143
L68771357 17159524
L68961833 17159524
L69057071 17207143
L69104690 17302381
L69104690 17397619
L68628500 17492857
" />
<path d="M69533261 17826190
L69533261 17159524
" />
<path d="M69533261 17350000
L69580880 17254762
L69628500 17207143
L69723738 17159524
L69818976 17159524
" />
<path d="M70152309 17826190
L70152309 17159524
" />
<path d="M70152309 16826190
L70104690 16873810
L70152309 16921429
L70199928 16873810
L70152309 16826190
L70152309 16921429
" />
<path d="M71057071 17826190
L71057071 17302381
L71009452 17207143
L70914214 17159524
L70723738 17159524
L70628500 17207143
" />
<path d="M71057071 17778571
L70961833 17826190
L70723738 17826190
L70628500 17778571
L70580880 17683333
L70580880 17588095
L70628500 17492857
L70723738 17445238
L70961833 17445238
L71057071 17397619
" />
<path d="M71676119 17826190
L71580880 17778571
L71533261 17683333
L71533261 16826190
" />
<path d="M72580880 17826190
L72009452 17826190
" />
<path d="M72295166 17826190
L72295166 16826190
L72199928 16969048
L72104690 17064286
L72009452 17111905
" />
</g></g>
<g style="fill:#F2EDA1; fill-opacity:0.0; 
stroke:#F2EDA1; stroke-width:250000.000000; stroke-opacity:1; 
stroke-linecap:round; stroke-linejoin:round;">
<text x="67703500.000000" y="33173810.000000"
textLength="1433095.000000" font-size="1333333.000000" lengthAdjust="spacingAndGlyphs"
text-anchor="middle" opacity="0">+</text>
<g class="stroked-text"><desc>+</desc>
<path d="M67322547 32745238
L68084452 32745238
" />
<path d="M67703500 33126190
L67703500 32364286
" />
</g></g>
<g style="fill:#F2EDA1; fill-opacity:0.0; 
stroke:#F2EDA1; stroke-width:150000.000000; stroke-opacity:1; 
stroke-linecap:round; stroke-linejoin:round;">
<text x="22878500.000000" y="4148810.000000"
textLength="1325000.000000" font-size="1333333.000000" lengthAdjust="spacingAndGlyphs"
text-anchor="middle" opacity="0">C</text>
<g class="stroked-text"><desc>C</desc>
<path d="M23188023 4005952
L23140404 4053571
L22997547 4101190
L22902309 4101190
L22759452 4053571
L22664214 3958333
L22616595 3863095
L22568976 3672619
L22568976 3529762
L22616595 3339286
L22664214 3244048
L22759452 3148810
L22902309 3101190
L22997547 3101190
L23140404 3148810
L23188023 3196429
" />
</g><text x="74074500.000000" y="25785610.000000"
textLength="1433095.000000" font-size="1333333.000000" lengthAdjust="spacingAndGlyphs"
text-anchor="middle" opacity="0">+</text>
<g class="stroked-text"><desc>+</desc>
<path d="M73693547 25357038
L74455452 25357038
" />
<path d="M74074500 25737990
L74074500 24976086
" />
</g></g>
<g style="fill:#F2EDA1; fill-opacity:0.0; 
stroke:#F2EDA1; stroke-width:250000.000000; stroke-opacity:1; 
stroke-linecap:round; stroke-linejoin:round;">
<g transform="rotate(-90.000000 67503500.000000 30723810.000000)">
<text x="67503500.000000" y="31223810.000000"
textLength="1433095.000000" font-size="1333333.000000" lengthAdjust="spacingAndGlyphs"
text-anchor="middle" opacity="0">-</text>
</g>
<g class="stroked-text"><desc>-</desc>
<path d="M67574928 31104762
L67574928 30342857
" />
</g></g>
<g style="fill:#F2EDA1; fill-opacity:0.0; 
stroke:#F2EDA1; stroke-width:150000.000000; stroke-opacity:1; 
stroke-linecap:round; stroke-linejoin:round;">
<text x="25528500.000000" y="4148810.000000"
textLength="1325000.000000" font-size="1333333.000000" lengthAdjust="spacingAndGlyphs"
text-anchor="middle" opacity="0">D</text>
<g class="stroked-text"><desc>D</desc>
<path d="M25266595 4101190
L25266595 3101190
L25504690 3101190
L25647547 3148810
L25742785 3244048
L25790404 3339286
L25838023 3529762
L25838023 3672619
L25790404 3863095
L25742785 3958333
L25647547 4053571
L25504690 4101190
L25266595 4101190
" />
</g></g>
<g style="fill:#F2EDA1; fill-opacity:0.0; 
stroke:#F2EDA1; stroke-width:250000.000000; stroke-opacity:1; 
stroke-linecap:round; stroke-linejoin:round;">
<text x="5453500.000000" y="17973810.000000"
textLength="2147381.000000" font-size="1333333.000000" lengthAdjust="spacingAndGlyphs"
text-anchor="middle" opacity="0">On</text>
<g class="stroked-text"><desc>On</desc>
<path d="M4905880 16926190
L5096357 16926190
L5191595 16973810
L5286833 17069048
L5334452 17259524
L5334452 17592857
L5286833 17783333
L5191595 17878571
L5096357 17926190
L4905880 17926190
L4810642 17878571
L4715404 17783333
L4667785 17592857
L4667785 17259524
L4715404 17069048
L4810642 16973810
L4905880 16926190
" />
<path d="M5763023 17259524
L5763023 17926190
" />
<path d="M5763023 17354762
L5810642 17307143
L5905880 17259524
L6048738 17259524
L6143976 17307143
L6191595 17402381
L6191595 17926190
" />
</g></g>
<g style="fill:#F2EDA1; fill-opacity:0.0; 
stroke:#F2EDA1; stroke-width:150000.000000; stroke-opacity:1; 
stroke-linecap:round; stroke-linejoin:round;">
<g transform="rotate(-90.000000 73974500.000000 20235610.000000)">
<text x="73974500.000000" y="20735610.000000"
textLength="1563095.000000" font-size="1333333.000000" lengthAdjust="spacingAndGlyphs"
text-anchor="middle" opacity="0">-</text>
</g>
<g class="stroked-text"><desc>-</desc>
<path d="M74045928 20616562
L74045928 19854657
" />
</g><text x="34171101.000000" y="6074008.000000"
textLength="5242619.000000" font-size="1333333.000000" lengthAdjust="spacingAndGlyphs"
text-anchor="middle" opacity="0">Screen</text>
<g class="stroked-text"><desc>Screen</desc>
<path d="M31837767 5978769
L31980624 6026388
L32218720 6026388
L32313958 5978769
L32361577 5931150
L32409196 5835912
L32409196 5740674
L32361577 5645436
L32313958 5597817
L32218720 5550198
L32028243 5502579
L31933005 5454960
L31885386 5407341
L31837767 5312103
L31837767 5216865
L31885386 5121627
L31933005 5074008
L32028243 5026388
L32266339 5026388
L32409196 5074008
" />
<path d="M33266339 5978769
L33171101 6026388
L32980624 6026388
L32885386 5978769
L32837767 5931150
L32790148 5835912
L32790148 5550198
L32837767 5454960
L32885386 5407341
L32980624 5359722
L33171101 5359722
L33266339 5407341
" />
<path d="M33694910 6026388
L33694910 5359722
" />
<path d="M33694910 5550198
L33742529 5454960
L33790148 5407341
L33885386 5359722
L33980624 5359722
" />
<path d="M34694910 5978769
L34599672 6026388
L34409196 6026388
L34313958 5978769
L34266339 5883531
L34266339 5502579
L34313958 5407341
L34409196 5359722
L34599672 5359722
L34694910 5407341
L34742529 5502579
L34742529 5597817
L34266339 5693055
" />
<path d="M35552053 5978769
L35456815 6026388
L35266339 6026388
L35171101 5978769
L35123481 5883531
L35123481 5502579
L35171101 5407341
L35266339 5359722
L35456815 5359722
L35552053 5407341
L35599672 5502579
L35599672 5597817
L35123481 5693055
" />
<path d="M36028243 5359722
L36028243 6026388
" />
<path d="M36028243 5454960
L36075862 5407341
L36171101 5359722
L36313958 5359722
L36409196 5407341
L36456815 5502579
L36456815 6026388
" />
</g><text x="17878500.000000" y="4048810.000000"
textLength="1433095.000000" font-size="1333333.000000" lengthAdjust="spacingAndGlyphs"
text-anchor="middle" opacity="0">+</text>
<g class="stroked-text"><desc>+</desc>
<path d="M17497547 3620238
L18259452 3620238
" />
<path d="M17878500 4001190
L17878500 3239286
" />
</g></g>
<g style="fill:#F2EDA1; fill-opacity:0.0; 
stroke:#F2EDA1; stroke-width:250000.000000; stroke-opacity:1; 
stroke-linecap:round; stroke-linejoin:round;">
<text x="10313500.000000" y="18050810.000000"
textLength="2385476.000000" font-size="1333333.000000" lengthAdjust="spacingAndGlyphs"
text-anchor="middle" opacity="0">Off</text>
<g class="stroked-text"><desc>Off</desc>
<path d="M9646833 17003190
L9837309 17003190
L9932547 17050810
L10027785 17146048
L10075404 17336524
L10075404 17669857
L10027785 17860333
L9932547 17955571
L9837309 18003190
L9646833 18003190
L9551595 17955571
L9456357 17860333
L9408738 17669857
L9408738 17336524
L9456357 17146048
L9551595 17050810
L9646833 17003190
" />
<path d="M10361119 17336524
L10742071 17336524
" />
<path d="M10503976 18003190
L10503976 17146048
L10551595 17050810
L10646833 17003190
L10742071 17003190
" />
<path d="M10932547 17336524
L11313500 17336524
" />
<path d="M11075404 18003190
L11075404 17146048
L11123023 17050810
L11218261 17003190
L11313500 17003190
" />
</g></g>
<g style="fill:#F2EDA1; fill-opacity:0.0; 
stroke:#F2EDA1; stroke-width:150000.000000; stroke-opacity:1; 
stroke-linecap:round; stroke-linejoin:round;">
<text x="20378500.000000" y="4048810.000000"
textLength="1563095.000000" font-size="1333333.000000" lengthAdjust="spacingAndGlyphs"
text-anchor="middle" opacity="0">-</text>
<g class="stroked-text"><desc>-</desc>
<path d="M19997547 3620238
L20759452 3620238
" />
</g></g>
<g style="fill:#F2EDA1; fill-opacity:0.0; 
stroke:#F2EDA1; stroke-width:100000.000000; stroke-opacity:1; 
stroke-linecap:round; stroke-linejoin:round;">
<text x="19353500.000000" y="20973810.000000"
textLength="1937857.000000" font-size="800000.000000" lengthAdjust="spacingAndGlyphs"
text-anchor="middle" opacity="0">10K</text>
<g class="stroked-text"><desc>10K</desc>
<path d="M18939214 20945238
L18596357 20945238
" />
<path d="M18767785 20945238
L18767785 20345238
L18710642 20430952
L18653500 20488095
L18596357 20516667
" />
<path d="M19310642 20345238
L19367785 20345238
L19424928 20373810
L19453500 20402381
L19482071 20459524
L19510642 20573810
L19510642 20716667
L19482071 20830952
L19453500 20888095
L19424928 20916667
L19367785 20945238
L19310642 20945238
L19253500 20916667
L19224928 20888095
L19196357 20830952
L19167785 20716667
L19167785 20573810
L19196357 20459524
L19224928 20402381
L19253500 20373810
L19310642 20345238
" />
<path d="M19767785 20945238
L19767785 20345238
" />
<path d="M20110642 20945238
L19853500 20602381
" />
<path d="M20110642 20345238
L19767785 20688095
" />
</g><text x="19303500.000000" y="19823810.000000"
textLength="1301429.000000" font-size="800000.000000" lengthAdjust="spacingAndGlyphs"
text-anchor="middle" opacity="0">R1</text>
<g class="stroked-text"><desc>R1</desc>
<path d="M19203500 19795238
L19003500 19509524
" />
<path d="M18860642 19795238
L18860642 19195238
L19089214 19195238
L19146357 19223810
L19174928 19252381
L19203500 19309524
L19203500 19395238
L19174928 19452381
L19146357 19480952
L19089214 19509524
L18860642 19509524
" />
<path d="M19774928 19795238
L19432071 19795238
" />
<path d="M19603500 19795238
L19603500 19195238
L19546357 19280952
L19489214 19338095
L19432071 19366667
" />
</g><text x="19303500.000000" y="30923810.000000"
textLength="1872857.000000" font-size="800000.000000" lengthAdjust="spacingAndGlyphs"
text-anchor="middle" opacity="0">10K</text>
<g class="stroked-text"><desc>10K</desc>
<path d="M18889214 30895238
L18546357 30895238
" />
<path d="M18717785 30895238
L18717785 30295238
L18660642 30380952
L18603500 30438095
L18546357 30466667
" />
<path d="M19260642 30295238
L19317785 30295238
L19374928 30323810
L19403500 30352381
L19432071 30409524
L19460642 30523810
L19460642 30666667
L19432071 30780952
L19403500 30838095
L19374928 30866667
L19317785 30895238
L19260642 30895238
L19203500 30866667
L19174928 30838095
L19146357 30780952
L19117785 30666667
L19117785 30523810
L19146357 30409524
L19174928 30352381
L19203500 30323810
L19260642 30295238
" />
<path d="M19717785 30895238
L19717785 30295238
" />
<path d="M20060642 30895238
L19803500 30552381
" />
<path d="M20060642 30295238
L19717785 30638095
" />
</g><text x="19353500.000000" y="29723810.000000"
textLength="1301429.000000" font-size="800000.000000" lengthAdjust="spacingAndGlyphs"
text-anchor="middle" opacity="0">R2</text>
<g class="stroked-text"><desc>R2</desc>
<path d="M19253500 29695238
L19053500 29409524
" />
<path d="M18910642 29695238
L18910642 29095238
L19139214 29095238
L19196357 29123810
L19224928 29152381
L19253500 29209524
L19253500 29295238
L19224928 29352381
L19196357 29380952
L19139214 29409524
L18910642 29409524
" />
<path d="M19482071 29152381
L19510642 29123810
L19567785 29095238
L19710642 29095238
L19767785 29123810
L19796357 29152381
L19824928 29209524
L19824928 29266667
L19796357 29352381
L19453500 29695238
L19824928 29695238
" />
</g><text x="22638500.000000" y="29723810.000000"
textLength="1301429.000000" font-size="800000.000000" lengthAdjust="spacingAndGlyphs"
text-anchor="middle" opacity="0">R4</text>
<g class="stroked-text"><desc>R4</desc>
<path d="M22538500 29695238
L22338500 29409524
" />
<path d="M22195642 29695238
L22195642 29095238
L22424214 29095238
L22481357 29123810
L22509928 29152381
L22538500 29209524
L22538500 29295238
L22509928 29352381
L22481357 29380952
L22424214 29409524
L22195642 29409524
" />
<path d="M23052785 29295238
L23052785 29695238
" />
<path d="M22909928 29066667
L22767071 29495238
L23138500 29495238
" />
</g><text x="22653500.000000" y="30873810.000000"
textLength="1872857.000000" font-size="800000.000000" lengthAdjust="spacingAndGlyphs"
text-anchor="middle" opacity="0">10K</text>
<g class="stroked-text"><desc>10K</desc>
<path d="M22239214 30845238
L21896357 30845238
" />
<path d="M22067785 30845238
L22067785 30245238
L22010642 30330952
L21953500 30388095
L21896357 30416667
" />
<path d="M22610642 30245238
L22667785 30245238
L22724928 30273810
L22753500 30302381
L22782071 30359524
L22810642 30473810
L22810642 30616667
L22782071 30730952
L22753500 30788095
L22724928 30816667
L22667785 30845238
L22610642 30845238
L22553500 30816667
L22524928 30788095
L22496357 30730952
L22467785 30616667
L22467785 30473810
L22496357 30359524
L22524928 30302381
L22553500 30273810
L22610642 30245238
" />
<path d="M23067785 30845238
L23067785 30245238
" />
<path d="M23410642 30845238
L23153500 30502381
" />
<path d="M23410642 30245238
L23067785 30588095
" />
</g><g transform="rotate(-90.000000 25248300.000000 30573810.000000)">
<text x="25248300.000000" y="30873810.000000"
textLength="6387143.000000" font-size="800000.000000" lengthAdjust="spacingAndGlyphs"
text-anchor="middle" opacity="0">Optional: GPS</text>
</g>
<g class="stroked-text"><desc>Optional: GPS</desc>
<path d="M24919728 33445238
L24919728 33330952
L24948300 33273810
L25005442 33216667
L25119728 33188095
L25319728 33188095
L25434014 33216667
L25491157 33273810
L25519728 33330952
L25519728 33445238
L25491157 33502381
L25434014 33559524
L25319728 33588095
L25119728 33588095
L25005442 33559524
L24948300 33502381
L24919728 33445238
" />
<path d="M25119728 32930952
L25719728 32930952
" />
<path d="M25148300 32930952
L25119728 32873810
L25119728 32759524
L25148300 32702381
L25176871 32673810
L25234014 32645238
L25405442 32645238
L25462585 32673810
L25491157 32702381
L25519728 32759524
L25519728 32873810
L25491157 32930952
" />
<path d="M25119728 32473810
L25119728 32245238
" />
<path d="M24919728 32388095
L25434014 32388095
L25491157 32359524
L25519728 32302381
L25519728 32245238
" />
<path d="M25519728 32045238
L25119728 32045238
" />
<path d="M24919728 32045238
L24948300 32073810
L24976871 32045238
L24948300 32016667
L24919728 32045238
L24976871 32045238
" />
<path d="M25519728 31673810
L25491157 31730952
L25462585 31759524
L25405442 31788095
L25234014 31788095
L25176871 31759524
L25148300 31730952
L25119728 31673810
L25119728 31588095
L25148300 31530952
L25176871 31502381
L25234014 31473810
L25405442 31473810
L25462585 31502381
L25491157 31530952
L25519728 31588095
L25519728 31673810
" />
<path d="M25119728 31216667
L25519728 31216667
" />
<path d="M25176871 31216667
L25148300 31188095
L25119728 31130952
L25119728 31045238
L25148300 30988095
L25205442 30959524
L25519728 30959524
" />
<path d="M25519728 30416667
L25205442 30416667
L25148300 30445238
L25119728 30502381
L25119728 30616667
L25148300 30673810
" />
<path d="M25491157 30416667
L25519728 30473810
L25519728 30616667
L25491157 30673810
L25434014 30702381
L25376871 30702381
L25319728 30673810
L25291157 30616667
L25291157 30473810
L25262585 30416667
" />
<path d="M25519728 30045238
L25491157 30102381
L25434014 30130952
L24919728 30130952
" />
<path d="M25462585 29816667
L25491157 29788095
L25519728 29816667
L25491157 29845238
L25462585 29816667
L25519728 29816667
" />
<path d="M25148300 29816667
L25176871 29788095
L25205442 29816667
L25176871 29845238
L25148300 29816667
L25205442 29816667
" />
<path d="M24948300 28759524
L24919728 28816667
L24919728 28902381
L24948300 28988095
L25005442 29045238
L25062585 29073810
L25176871 29102381
L25262585 29102381
L25376871 29073810
L25434014 29045238
L25491157 28988095
L25519728 28902381
L25519728 28845238
L25491157 28759524
L25462585 28730952
L25262585 28730952
L25262585 28845238
" />
<path d="M25519728 28473810
L24919728 28473810
L24919728 28245238
L24948300 28188095
L24976871 28159524
L25034014 28130952
L25119728 28130952
L25176871 28159524
L25205442 28188095
L25234014 28245238
L25234014 28473810
" />
<path d="M25491157 27902381
L25519728 27816667
L25519728 27673810
L25491157 27616667
L25462585 27588095
L25405442 27559524
L25348300 27559524
L25291157 27588095
L25262585 27616667
L25234014 27673810
L25205442 27788095
L25176871 27845238
L25148300 27873810
L25091157 27902381
L25034014 27902381
L24976871 27873810
L24948300 27845238
L24919728 27788095
L24919728 27645238
L24948300 27559524
" />
</g><text x="68829700.000000" y="22473810.000000"
textLength="1301429.000000" font-size="800000.000000" lengthAdjust="spacingAndGlyphs"
text-anchor="middle" opacity="0">R5</text>
<g class="stroked-text"><desc>R5</desc>
<path d="M68729700 22445238
L68529700 22159524
" />
<path d="M68386842 22445238
L68386842 21845238
L68615414 21845238
L68672557 21873810
L68701128 21902381
L68729700 21959524
L68729700 22045238
L68701128 22102381
L68672557 22130952
L68615414 22159524
L68386842 22159524
" />
<path d="M69272557 21845238
L68986842 21845238
L68958271 22130952
L68986842 22102381
L69043985 22073810
L69186842 22073810
L69243985 22102381
L69272557 22130952
L69301128 22188095
L69301128 22330952
L69272557 22388095
L69243985 22416667
L69186842 22445238
L69043985 22445238
L68986842 22416667
L68958271 22388095
" />
</g><text x="68779700.000000" y="23723810.000000"
textLength="2444286.000000" font-size="800000.000000" lengthAdjust="spacingAndGlyphs"
text-anchor="middle" opacity="0">360K</text>
<g class="stroked-text"><desc>360K</desc>
<path d="M67708271 23095238
L68079700 23095238
L67879700 23323810
L67965414 23323810
L68022557 23352381
L68051128 23380952
L68079700 23438095
L68079700 23580952
L68051128 23638095
L68022557 23666667
L67965414 23695238
L67793985 23695238
L67736842 23666667
L67708271 23638095
" />
<path d="M68593985 23095238
L68479700 23095238
L68422557 23123810
L68393985 23152381
L68336842 23238095
L68308271 23352381
L68308271 23580952
L68336842 23638095
L68365414 23666667
L68422557 23695238
L68536842 23695238
L68593985 23666667
L68622557 23638095
L68651128 23580952
L68651128 23438095
L68622557 23380952
L68593985 23352381
L68536842 23323810
L68422557 23323810
L68365414 23352381
L68336842 23380952
L68308271 23438095
" />
<path d="M69022557 23095238
L69079700 23095238
L69136842 23123810
L69165414 23152381
L69193985 23209524
L69222557 23323810
L69222557 23466667
L69193985 23580952
L69165414 23638095
L69136842 23666667
L69079700 23695238
L69022557 23695238
L68965414 23666667
L68936842 23638095
L68908271 23580952
L68879700 23466667
L68879700 23323810
L68908271 23209524
L68936842 23152381
L68965414 23123810
L69022557 23095238
" />
<path d="M69479700 23695238
L69479700 23095238
" />
<path d="M69822557 23695238
L69565414 23352381
" />
<path d="M69822557 23095238
L69479700 23438095
" />
</g><text x="72105900.000000" y="22473810.000000"
textLength="1301429.000000" font-size="800000.000000" lengthAdjust="spacingAndGlyphs"
text-anchor="middle" opacity="0">R6</text>
<g class="stroked-text"><desc>R6</desc>
<path d="M72005900 22445238
L71805900 22159524
" />
<path d="M71663042 22445238
L71663042 21845238
L71891614 21845238
L71948757 21873810
L71977328 21902381
L72005900 21959524
L72005900 22045238
L71977328 22102381
L71948757 22130952
L71891614 22159524
L71663042 22159524
" />
<path d="M72520185 21845238
L72405900 21845238
L72348757 21873810
L72320185 21902381
L72263042 21988095
L72234471 22102381
L72234471 22330952
L72263042 22388095
L72291614 22416667
L72348757 22445238
L72463042 22445238
L72520185 22416667
L72548757 22388095
L72577328 22330952
L72577328 22188095
L72548757 22130952
L72520185 22102381
L72463042 22073810
L72348757 22073810
L72291614 22102381
L72263042 22130952
L72234471 22188095
" />
</g><text x="72129700.000000" y="23723810.000000"
textLength="2444286.000000" font-size="800000.000000" lengthAdjust="spacingAndGlyphs"
text-anchor="middle" opacity="0">100K</text>
<g class="stroked-text"><desc>100K</desc>
<path d="M71429700 23695238
L71086842 23695238
" />
<path d="M71258271 23695238
L71258271 23095238
L71201128 23180952
L71143985 23238095
L71086842 23266667
" />
<path d="M71801128 23095238
L71858271 23095238
L71915414 23123810
L71943985 23152381
L71972557 23209524
L72001128 23323810
L72001128 23466667
L71972557 23580952
L71943985 23638095
L71915414 23666667
L71858271 23695238
L71801128 23695238
L71743985 23666667
L71715414 23638095
L71686842 23580952
L71658271 23466667
L71658271 23323810
L71686842 23209524
L71715414 23152381
L71743985 23123810
L71801128 23095238
" />
<path d="M72372557 23095238
L72429700 23095238
L72486842 23123810
L72515414 23152381
L72543985 23209524
L72572557 23323810
L72572557 23466667
L72543985 23580952
L72515414 23638095
L72486842 23666667
L72429700 23695238
L72372557 23695238
L72315414 23666667
L72286842 23638095
L72258271 23580952
L72229700 23466667
L72229700 23323810
L72258271 23209524
L72286842 23152381
L72315414 23123810
L72372557 23095238
" />
<path d="M72829700 23695238
L72829700 23095238
" />
<path d="M73172557 23695238
L72915414 23352381
" />
<path d="M73172557 23095238
L72829700 23438095
" />
</g><text x="22703500.000000" y="19823810.000000"
textLength="1301429.000000" font-size="800000.000000" lengthAdjust="spacingAndGlyphs"
text-anchor="middle" opacity="0">R7</text>
<g class="stroked-text"><desc>R7</desc>
<path d="M22603500 19795238
L22403500 19509524
" />
<path d="M22260642 19795238
L22260642 19195238
L22489214 19195238
L22546357 19223810
L22574928 19252381
L22603500 19309524
L22603500 19395238
L22574928 19452381
L22546357 19480952
L22489214 19509524
L22260642 19509524
" />
<path d="M22803500 19195238
L23203500 19195238
L22946357 19795238
" />
</g><text x="22653500.000000" y="20973810.000000"
textLength="1872857.000000" font-size="800000.000000" lengthAdjust="spacingAndGlyphs"
text-anchor="middle" opacity="0">10K</text>
<g class="stroked-text"><desc>10K</desc>
<path d="M22239214 20945238
L21896357 20945238
" />
<path d="M22067785 20945238
L22067785 20345238
L22010642 20430952
L21953500 20488095
L21896357 20516667
" />
<path d="M22610642 20345238
L22667785 20345238
L22724928 20373810
L22753500 20402381
L22782071 20459524
L22810642 20573810
L22810642 20716667
L22782071 20830952
L22753500 20888095
L22724928 20916667
L22667785 20945238
L22610642 20945238
L22553500 20916667
L22524928 20888095
L22496357 20830952
L22467785 20716667
L22467785 20573810
L22496357 20459524
L22524928 20402381
L22553500 20373810
L22610642 20345238
" />
<path d="M23067785 20945238
L23067785 20345238
" />
<path d="M23410642 20945238
L23153500 20602381
" />
<path d="M23410642 20345238
L23067785 20688095
" />
</g><g transform="rotate(-90.000000 25248300.000000 20523810.000000)">
<text x="25248300.000000" y="20823810.000000"
textLength="5787143.000000" font-size="800000.000000" lengthAdjust="spacingAndGlyphs"
text-anchor="middle" opacity="0">Optional: SD</text>
</g>
<g class="stroked-text"><desc>Optional: SD</desc>
<path d="M24919728 23095238
L24919728 22980952
L24948300 22923810
L25005442 22866667
L25119728 22838095
L25319728 22838095
L25434014 22866667
L25491157 22923810
L25519728 22980952
L25519728 23095238
L25491157 23152381
L25434014 23209524
L25319728 23238095
L25119728 23238095
L25005442 23209524
L24948300 23152381
L24919728 23095238
" />
<path d="M25119728 22580952
L25719728 22580952
" />
<path d="M25148300 22580952
L25119728 22523810
L25119728 22409524
L25148300 22352381
L25176871 22323810
L25234014 22295238
L25405442 22295238
L25462585 22323810
L25491157 22352381
L25519728 22409524
L25519728 22523810
L25491157 22580952
" />
<path d="M25119728 22123810
L25119728 21895238
" />
<path d="M24919728 22038095
L25434014 22038095
L25491157 22009524
L25519728 21952381
L25519728 21895238
" />
<path d="M25519728 21695238
L25119728 21695238
" />
<path d="M24919728 21695238
L24948300 21723810
L24976871 21695238
L24948300 21666667
L24919728 21695238
L24976871 21695238
" />
<path d="M25519728 21323810
L25491157 21380952
L25462585 21409524
L25405442 21438095
L25234014 21438095
L25176871 21409524
L25148300 21380952
L25119728 21323810
L25119728 21238095
L25148300 21180952
L25176871 21152381
L25234014 21123810
L25405442 21123810
L25462585 21152381
L25491157 21180952
L25519728 21238095
L25519728 21323810
" />
<path d="M25119728 20866667
L25519728 20866667
" />
<path d="M25176871 20866667
L25148300 20838095
L25119728 20780952
L25119728 20695238
L25148300 20638095
L25205442 20609524
L25519728 20609524
" />
<path d="M25519728 20066667
L25205442 20066667
L25148300 20095238
L25119728 20152381
L25119728 20266667
L25148300 20323810
" />
<path d="M25491157 20066667
L25519728 20123810
L25519728 20266667
L25491157 20323810
L25434014 20352381
L25376871 20352381
L25319728 20323810
L25291157 20266667
L25291157 20123810
L25262585 20066667
" />
<path d="M25519728 19695238
L25491157 19752381
L25434014 19780952
L24919728 19780952
" />
<path d="M25462585 19466667
L25491157 19438095
L25519728 19466667
L25491157 19495238
L25462585 19466667
L25519728 19466667
" />
<path d="M25148300 19466667
L25176871 19438095
L25205442 19466667
L25176871 19495238
L25148300 19466667
L25205442 19466667
" />
<path d="M25491157 18752381
L25519728 18666667
L25519728 18523810
L25491157 18466667
L25462585 18438095
L25405442 18409524
L25348300 18409524
L25291157 18438095
L25262585 18466667
L25234014 18523810
L25205442 18638095
L25176871 18695238
L25148300 18723810
L25091157 18752381
L25034014 18752381
L24976871 18723810
L24948300 18695238
L24919728 18638095
L24919728 18495238
L24948300 18409524
" />
<path d="M25519728 18152381
L24919728 18152381
L24919728 18009524
L24948300 17923810
L25005442 17866667
L25062585 17838095
L25176871 17809524
L25262585 17809524
L25376871 17838095
L25434014 17866667
L25491157 17923810
L25519728 18009524
L25519728 18152381
" />
</g><g transform="rotate(-90.000000 22703500.000000 23773810.000000)">
<text x="22703500.000000" y="24073810.000000"
textLength="1301429.000000" font-size="800000.000000" lengthAdjust="spacingAndGlyphs"
text-anchor="middle" opacity="0">SD</text>
</g>
<g class="stroked-text"><desc>SD</desc>
<path d="M22946357 24245238
L22974928 24159524
L22974928 24016667
L22946357 23959524
L22917785 23930952
L22860642 23902381
L22803500 23902381
L22746357 23930952
L22717785 23959524
L22689214 24016667
L22660642 24130952
L22632071 24188095
L22603500 24216667
L22546357 24245238
L22489214 24245238
L22432071 24216667
L22403500 24188095
L22374928 24130952
L22374928 23988095
L22403500 23902381
" />
<path d="M22974928 23645238
L22374928 23645238
L22374928 23502381
L22403500 23416667
L22460642 23359524
L22517785 23330952
L22632071 23302381
L22717785 23302381
L22832071 23330952
L22889214 23359524
L22946357 23416667
L22974928 23502381
L22974928 23645238
" />
</g></g>
<g style="fill:#F2EDA1; fill-opacity:0.0; 
stroke:#F2EDA1; stroke-width:150000.000000; stroke-opacity:1; 
stroke-linecap:round; stroke-linejoin:round;">
<text x="11453500.000000" y="38123810.000000"
textLength="5939524.000000" font-size="1333333.000000" lengthAdjust="spacingAndGlyphs"
text-anchor="middle" opacity="0">2N3904</text>
<g class="stroked-text"><desc>2N3904</desc>
<path d="M8739214 37171429
L8786833 37123810
L8882071 37076190
L9120166 37076190
L9215404 37123810
L9263023 37171429
L9310642 37266667
L9310642 37361905
L9263023 37504762
L8691595 38076190
L9310642 38076190
" />
<path d="M9739214 38076190
L9739214 37076190
L10310642 38076190
L10310642 37076190
" />
<path d="M10691595 37076190
L11310642 37076190
L10977309 37457143
L11120166 37457143
L11215404 37504762
L11263023 37552381
L11310642 37647619
L11310642 37885714
L11263023 37980952
L11215404 38028571
L11120166 38076190
L10834452 38076190
L10739214 38028571
L10691595 37980952
" />
<path d="M11786833 38076190
L11977309 38076190
L12072547 38028571
L12120166 37980952
L12215404 37838095
L12263023 37647619
L12263023 37266667
L12215404 37171429
L12167785 37123810
L12072547 37076190
L11882071 37076190
L11786833 37123810
L11739214 37171429
L11691595 37266667
L11691595 37504762
L11739214 37600000
L11786833 37647619
L11882071 37695238
L12072547 37695238
L12167785 37647619
L12215404 37600000
L12263023 37504762
" />
<path d="M12882071 37076190
L12977309 37076190
L13072547 37123810
L13120166 37171429
L13167785 37266667
L13215404 37457143
L13215404 37695238
L13167785 37885714
L13120166 37980952
L13072547 38028571
L12977309 38076190
L12882071 38076190
L12786833 38028571
L12739214 37980952
L12691595 37885714
L12643976 37695238
L12643976 37457143
L12691595 37266667
L12739214 37171429
L12786833 37123810
L12882071 37076190
" />
<path d="M14072547 37409524
L14072547 38076190
" />
<path d="M13834452 37028571
L13596357 37742857
L14215404 37742857
" />
</g><text x="53803500.000000" y="12123810.000000"
textLength="6528333.000000" font-size="1333333.000000" lengthAdjust="spacingAndGlyphs"
text-anchor="middle" opacity="0">NEO-6M</text>
<g class="stroked-text"><desc>NEO-6M</desc>
<path d="M50874928 12076190
L50874928 11076190
L51446357 12076190
L51446357 11076190
" />
<path d="M51922547 11552381
L52255880 11552381
" />
<path d="M52398738 12076190
L51922547 12076190
L51922547 11076190
L52398738 11076190
" />
<path d="M53017785 11076190
L53208261 11076190
L53303500 11123810
L53398738 11219048
L53446357 11409524
L53446357 11742857
L53398738 11933333
L53303500 12028571
L53208261 12076190
L53017785 12076190
L52922547 12028571
L52827309 11933333
L52779690 11742857
L52779690 11409524
L52827309 11219048
L52922547 11123810
L53017785 11076190
" />
<path d="M53874928 11695238
L54636833 11695238
" />
<path d="M55541595 11076190
L55351119 11076190
L55255880 11123810
L55208261 11171429
L55113023 11314286
L55065404 11504762
L55065404 11885714
L55113023 11980952
L55160642 12028571
L55255880 12076190
L55446357 12076190
L55541595 12028571
L55589214 11980952
L55636833 11885714
L55636833 11647619
L55589214 11552381
L55541595 11504762
L55446357 11457143
L55255880 11457143
L55160642 11504762
L55113023 11552381
L55065404 11647619
" />
<path d="M56065404 12076190
L56065404 11076190
L56398738 11790476
L56732071 11076190
L56732071 12076190
" />
</g></g>
<g style="fill:#F2EDA1; fill-opacity:0.0; 
stroke:#F2EDA1; stroke-width:100000.000000; stroke-opacity:1; 
stroke-linecap:round; stroke-linejoin:round;">
<text x="50109900.000000" y="41834610.000000"
textLength="1623571.000000" font-size="666666.000000" lengthAdjust="spacingAndGlyphs"
text-anchor="middle" opacity="0">VCC</text>
<g class="stroked-text"><desc>VCC</desc>
<path d="M49443233 41310800
L49609900 41810800
L49776566 41310800
" />
<path d="M50228947 41763181
L50205138 41786990
L50133709 41810800
L50086090 41810800
L50014661 41786990
L49967042 41739371
L49943233 41691752
L49919423 41596514
L49919423 41525086
L49943233 41429848
L49967042 41382229
L50014661 41334610
L50086090 41310800
L50133709 41310800
L50205138 41334610
L50228947 41358419
" />
<path d="M50728947 41763181
L50705138 41786990
L50633709 41810800
L50586090 41810800
L50514661 41786990
L50467042 41739371
L50443233 41691752
L50419423 41596514
L50419423 41525086
L50443233 41429848
L50467042 41382229
L50514661 41334610
L50586090 41310800
L50633709 41310800
L50705138 41334610
L50728947 41358419
" />
</g><text x="55189900.000000" y="41834610.000000"
textLength="987143.000000" font-size="666666.000000" lengthAdjust="spacingAndGlyphs"
text-anchor="middle" opacity="0">TX</text>
<g class="stroked-text"><desc>TX</desc>
<path d="M54808947 41310800
L55094661 41310800
" />
<path d="M54951804 41810800
L54951804 41310800
" />
<path d="M55213709 41310800
L55547042 41810800
" />
<path d="M55547042 41310800
L55213709 41810800
" />
</g><text x="57729900.000000" y="41834610.000000"
textLength="1653810.000000" font-size="666666.000000" lengthAdjust="spacingAndGlyphs"
text-anchor="middle" opacity="0">GND</text>
<g class="stroked-text"><desc>GND</desc>
<path d="M57348947 41334610
L57301328 41310800
L57229900 41310800
L57158471 41334610
L57110852 41382229
L57087042 41429848
L57063233 41525086
L57063233 41596514
L57087042 41691752
L57110852 41739371
L57158471 41786990
L57229900 41810800
L57277519 41810800
L57348947 41786990
L57372757 41763181
L57372757 41596514
L57277519 41596514
" />
<path d="M57587042 41810800
L57587042 41310800
L57872757 41810800
L57872757 41310800
" />
<path d="M58110852 41810800
L58110852 41310800
L58229900 41310800
L58301328 41334610
L58348947 41382229
L58372757 41429848
L58396566 41525086
L58396566 41596514
L58372757 41691752
L58348947 41739371
L58301328 41786990
L58229900 41810800
L58110852 41810800
" />
</g><text x="52649900.000000" y="41834610.000000"
textLength="1106190.000000" font-size="666666.000000" lengthAdjust="spacingAndGlyphs"
text-anchor="middle" opacity="0">RX</text>
<g class="stroked-text"><desc>RX</desc>
<path d="M52566566 41810800
L52399900 41572705
" />
<path d="M52280852 41810800
L52280852 41310800
L52471328 41310800
L52518947 41334610
L52542757 41358419
L52566566 41406038
L52566566 41477467
L52542757 41525086
L52518947 41548895
L52471328 41572705
L52280852 41572705
" />
<path d="M52733233 41310800
L53066566 41810800
" />
<path d="M53066566 41310800
L52733233 41810800
" />
</g></g>
<g style="fill:#F2EDA1; fill-opacity:0.0; 
stroke:#F2EDA1; stroke-width:150000.000000; stroke-opacity:1; 
stroke-linecap:round; stroke-linejoin:round;">
<g transform="rotate(-90.000000 68553500.000000 12698810.000000)">
<text x="68553500.000000" y="13198810.000000"
textLength="6034762.000000" font-size="1333333.000000" lengthAdjust="spacingAndGlyphs"
text-anchor="middle" opacity="0">Antenna</text>
</g>
<g class="stroked-text"><desc>Antenna</desc>
<path d="M68720166 15460714
L68720166 14984524
" />
<path d="M69005880 15555952
L68005880 15222619
L69005880 14889286
" />
<path d="M68339214 14555952
L69005880 14555952
" />
<path d="M68434452 14555952
L68386833 14508333
L68339214 14413095
L68339214 14270238
L68386833 14175000
L68482071 14127381
L69005880 14127381
" />
<path d="M68339214 13794048
L68339214 13413095
" />
<path d="M68005880 13651190
L68863023 13651190
L68958261 13603571
L69005880 13508333
L69005880 13413095
" />
<path d="M68958261 12698810
L69005880 12794048
L69005880 12984524
L68958261 13079762
L68863023 13127381
L68482071 13127381
L68386833 13079762
L68339214 12984524
L68339214 12794048
L68386833 12698810
L68482071 12651190
L68577309 12651190
L68672547 13127381
" />
<path d="M68339214 12222619
L69005880 12222619
" />
<path d="M68434452 12222619
L68386833 12175000
L68339214 12079762
L68339214 11936905
L68386833 11841667
L68482071 11794048
L69005880 11794048
" />
<path d="M68339214 11317857
L69005880 11317857
" />
<path d="M68434452 11317857
L68386833 11270238
L68339214 11175000
L68339214 11032143
L68386833 10936905
L68482071 10889286
L69005880 10889286
" />
<path d="M69005880 9984524
L68482071 9984524
L68386833 10032143
L68339214 10127381
L68339214 10317857
L68386833 10413095
" />
<path d="M68958261 9984524
L69005880 10079762
L69005880 10317857
L68958261 10413095
L68863023 10460714
L68767785 10460714
L68672547 10413095
L68624928 10317857
L68624928 10079762
L68577309 9984524
" />
</g><text x="26453500.000000" y="12173810.000000"
textLength="5909286.000000" font-size="1333333.000000" lengthAdjust="spacingAndGlyphs"
text-anchor="middle" opacity="0">D1 Mini</text>
<g class="stroked-text"><desc>D1 Mini</desc>
<path d="M23834452 12126190
L23834452 11126190
L24072547 11126190
L24215404 11173810
L24310642 11269048
L24358261 11364286
L24405880 11554762
L24405880 11697619
L24358261 11888095
L24310642 11983333
L24215404 12078571
L24072547 12126190
L23834452 12126190
" />
<path d="M25358261 12126190
L24786833 12126190
" />
<path d="M25072547 12126190
L25072547 11126190
L24977309 11269048
L24882071 11364286
L24786833 11411905
" />
<path d="M26548738 12126190
L26548738 11126190
L26882071 11840476
L27215404 11126190
L27215404 12126190
" />
<path d="M27691595 12126190
L27691595 11459524
" />
<path d="M27691595 11126190
L27643976 11173810
L27691595 11221429
L27739214 11173810
L27691595 11126190
L27691595 11221429
" />
<path d="M28167785 11459524
L28167785 12126190
" />
<path d="M28167785 11554762
L28215404 11507143
L28310642 11459524
L28453500 11459524
L28548738 11507143
L28596357 11602381
L28596357 12126190
" />
<path d="M29072547 12126190
L29072547 11459524
" />
<path d="M29072547 11126190
L29024928 11173810
L29072547 11221429
L29120166 11173810
L29072547 11126190
L29072547 11221429
" />
</g></g>
<g style="fill:#F2EDA1; fill-opacity:0.0; 
stroke:#F2EDA1; stroke-width:100000.000000; stroke-opacity:1; 
stroke-linecap:round; stroke-linejoin:round;">
<text x="16607300.000000" y="24054610.000000"
textLength="1171190.000000" font-size="666666.000000" lengthAdjust="spacingAndGlyphs"
text-anchor="middle" opacity="0">D5</text>
<g class="stroked-text"><desc>D5</desc>
<path d="M16238252 24030800
L16238252 23530800
L16357300 23530800
L16428728 23554610
L16476347 23602229
L16500157 23649848
L16523966 23745086
L16523966 23816514
L16500157 23911752
L16476347 23959371
L16428728 24006990
L16357300 24030800
L16238252 24030800
" />
<path d="M16976347 23530800
L16738252 23530800
L16714442 23768895
L16738252 23745086
L16785871 23721276
L16904919 23721276
L16952538 23745086
L16976347 23768895
L17000157 23816514
L17000157 23935562
L16976347 23983181
L16952538 24006990
L16904919 24030800
L16785871 24030800
L16738252 24006990
L16714442 23983181
" />
</g><text x="36038300.000000" y="34214610.000000"
textLength="1034762.000000" font-size="666666.000000" lengthAdjust="spacingAndGlyphs"
text-anchor="middle" opacity="0">5V</text>
<g class="stroked-text"><desc>5V</desc>
<path d="M35943061 33690800
L35704966 33690800
L35681157 33928895
L35704966 33905086
L35752585 33881276
L35871633 33881276
L35919252 33905086
L35943061 33928895
L35966871 33976514
L35966871 34095562
L35943061 34143181
L35919252 34166990
L35871633 34190800
L35752585 34190800
L35704966 34166990
L35681157 34143181
" />
<path d="M36109728 33690800
L36276395 34190800
L36443061 33690800
" />
</g><text x="16099300.000000" y="18923810.000000"
textLength="1034762.000000" font-size="666666.000000" lengthAdjust="spacingAndGlyphs"
text-anchor="start" opacity="0">A0</text>
<g class="stroked-text"><desc>A0</desc>
<path d="M16259538 18757143
L16497633 18757143
" />
<path d="M16211919 18900000
L16378585 18400000
L16545252 18900000
" />
<path d="M16807157 18400000
L16854776 18400000
L16902395 18423810
L16926204 18447619
L16950014 18495238
L16973823 18590476
L16973823 18709524
L16950014 18804762
L16926204 18852381
L16902395 18876190
L16854776 18900000
L16807157 18900000
L16759538 18876190
L16735728 18852381
L16711919 18804762
L16688109 18709524
L16688109 18590476
L16711919 18495238
L16735728 18447619
L16759538 18423810
L16807157 18400000
" />
</g><text x="16607300.000000" y="29134610.000000"
textLength="1106190.000000" font-size="666666.000000" lengthAdjust="spacingAndGlyphs"
text-anchor="middle" opacity="0">D7</text>
<g class="stroked-text"><desc>D7</desc>
<path d="M16238252 29110800
L16238252 28610800
L16357300 28610800
L16428728 28634610
L16476347 28682229
L16500157 28729848
L16523966 28825086
L16523966 28896514
L16500157 28991752
L16476347 29039371
L16428728 29086990
L16357300 29110800
L16238252 29110800
" />
<path d="M16690633 28610800
L17023966 28610800
L16809680 29110800
" />
</g><text x="35911300.000000" y="29134610.000000"
textLength="1106190.000000" font-size="666666.000000" lengthAdjust="spacingAndGlyphs"
text-anchor="middle" opacity="0">D4</text>
<g class="stroked-text"><desc>D4</desc>
<path d="M35542252 29110800
L35542252 28610800
L35661300 28610800
L35732728 28634610
L35780347 28682229
L35804157 28729848
L35827966 28825086
L35827966 28896514
L35804157 28991752
L35780347 29039371
L35732728 29086990
L35661300 29110800
L35542252 29110800
" />
<path d="M36256538 28777467
L36256538 29110800
" />
<path d="M36137490 28586990
L36018442 28944133
L36327966 28944133
" />
</g><text x="16607300.000000" y="26543810.000000"
textLength="1106190.000000" font-size="666666.000000" lengthAdjust="spacingAndGlyphs"
text-anchor="middle" opacity="0">D6</text>
<g class="stroked-text"><desc>D6</desc>
<path d="M16238252 26520000
L16238252 26020000
L16357300 26020000
L16428728 26043810
L16476347 26091429
L16500157 26139048
L16523966 26234286
L16523966 26305714
L16500157 26400952
L16476347 26448571
L16428728 26496190
L16357300 26520000
L16238252 26520000
" />
<path d="M16952538 26020000
L16857300 26020000
L16809680 26043810
L16785871 26067619
L16738252 26139048
L16714442 26234286
L16714442 26424762
L16738252 26472381
L16762061 26496190
L16809680 26520000
L16904919 26520000
L16952538 26496190
L16976347 26472381
L17000157 26424762
L17000157 26305714
L16976347 26258095
L16952538 26234286
L16904919 26210476
L16809680 26210476
L16762061 26234286
L16738252 26258095
L16714442 26305714
" />
</g><text x="35657300.000000" y="31623810.000000"
textLength="1653810.000000" font-size="666666.000000" lengthAdjust="spacingAndGlyphs"
text-anchor="middle" opacity="0">GND</text>
<g class="stroked-text"><desc>GND</desc>
<path d="M35276347 31123810
L35228728 31100000
L35157300 31100000
L35085871 31123810
L35038252 31171429
L35014442 31219048
L34990633 31314286
L34990633 31385714
L35014442 31480952
L35038252 31528571
L35085871 31576190
L35157300 31600000
L35204919 31600000
L35276347 31576190
L35300157 31552381
L35300157 31385714
L35204919 31385714
" />
<path d="M35514442 31600000
L35514442 31100000
L35800157 31600000
L35800157 31100000
" />
<path d="M36038252 31600000
L36038252 31100000
L36157300 31100000
L36228728 31123810
L36276347 31171429
L36300157 31219048
L36323966 31314286
L36323966 31385714
L36300157 31480952
L36276347 31528571
L36228728 31576190
L36157300 31600000
L36038252 31600000
" />
</g><text x="16607300.000000" y="21463810.000000"
textLength="1106190.000000" font-size="666666.000000" lengthAdjust="spacingAndGlyphs"
text-anchor="middle" opacity="0">D0</text>
<g class="stroked-text"><desc>D0</desc>
<path d="M16238252 21440000
L16238252 20940000
L16357300 20940000
L16428728 20963810
L16476347 21011429
L16500157 21059048
L16523966 21154286
L16523966 21225714
L16500157 21320952
L16476347 21368571
L16428728 21416190
L16357300 21440000
L16238252 21440000
" />
<path d="M16833490 20940000
L16881109 20940000
L16928728 20963810
L16952538 20987619
L16976347 21035238
L17000157 21130476
L17000157 21249524
L16976347 21344762
L16952538 21392381
L16928728 21416190
L16881109 21440000
L16833490 21440000
L16785871 21416190
L16762061 21392381
L16738252 21344762
L16714442 21249524
L16714442 21130476
L16738252 21035238
L16762061 20987619
L16785871 20963810
L16833490 20940000
" />
</g><text x="16099300.000000" y="16383810.000000"
textLength="1487143.000000" font-size="666666.000000" lengthAdjust="spacingAndGlyphs"
text-anchor="start" opacity="0">RST</text>
<g class="stroked-text"><desc>RST</desc>
<path d="M16569061 16360000
L16402395 16121905
" />
<path d="M16283347 16360000
L16283347 15860000
L16473823 15860000
L16521442 15883810
L16545252 15907619
L16569061 15955238
L16569061 16026667
L16545252 16074286
L16521442 16098095
L16473823 16121905
L16283347 16121905
" />
<path d="M16759538 16336190
L16830966 16360000
L16950014 16360000
L16997633 16336190
L17021442 16312381
L17045252 16264762
L17045252 16217143
L17021442 16169524
L16997633 16145714
L16950014 16121905
L16854776 16098095
L16807157 16074286
L16783347 16050476
L16759538 16002857
L16759538 15955238
L16783347 15907619
L16807157 15883810
L16854776 15860000
L16973823 15860000
L17045252 15883810
" />
<path d="M17188109 15860000
L17473823 15860000
" />
<path d="M17330966 16360000
L17330966 15860000
" />
</g><text x="35911300.000000" y="24054610.000000"
textLength="1106190.000000" font-size="666666.000000" lengthAdjust="spacingAndGlyphs"
text-anchor="middle" opacity="0">D2</text>
<g class="stroked-text"><desc>D2</desc>
<path d="M35542252 24030800
L35542252 23530800
L35661300 23530800
L35732728 23554610
L35780347 23602229
L35804157 23649848
L35827966 23745086
L35827966 23816514
L35804157 23911752
L35780347 23959371
L35732728 24006990
L35661300 24030800
L35542252 24030800
" />
<path d="M36018442 23578419
L36042252 23554610
L36089871 23530800
L36208919 23530800
L36256538 23554610
L36280347 23578419
L36304157 23626038
L36304157 23673657
L36280347 23745086
L35994633 24030800
L36304157 24030800
" />
</g><text x="36419300.000000" y="16383810.000000"
textLength="987143.000000" font-size="666666.000000" lengthAdjust="spacingAndGlyphs"
text-anchor="end" opacity="0">TX</text>
<g class="stroked-text"><desc>TX</desc>
<path d="M35544776 15860000
L35830490 15860000
" />
<path d="M35687633 16360000
L35687633 15860000
" />
<path d="M35949538 15860000
L36282871 16360000
" />
<path d="M36282871 15860000
L35949538 16360000
" />
</g><text x="35911300.000000" y="18974610.000000"
textLength="1106190.000000" font-size="666666.000000" lengthAdjust="spacingAndGlyphs"
text-anchor="middle" opacity="0">RX</text>
<g class="stroked-text"><desc>RX</desc>
<path d="M35827966 18950800
L35661300 18712705
" />
<path d="M35542252 18950800
L35542252 18450800
L35732728 18450800
L35780347 18474610
L35804157 18498419
L35827966 18546038
L35827966 18617467
L35804157 18665086
L35780347 18688895
L35732728 18712705
L35542252 18712705
" />
<path d="M35994633 18450800
L36327966 18950800
" />
<path d="M36327966 18450800
L35994633 18950800
" />
</g><text x="36419300.000000" y="26543810.000000"
textLength="1106190.000000" font-size="666666.000000" lengthAdjust="spacingAndGlyphs"
text-anchor="end" opacity="0">D3</text>
<g class="stroked-text"><desc>D3</desc>
<path d="M35497157 26520000
L35497157 26020000
L35616204 26020000
L35687633 26043810
L35735252 26091429
L35759061 26139048
L35782871 26234286
L35782871 26305714
L35759061 26400952
L35735252 26448571
L35687633 26496190
L35616204 26520000
L35497157 26520000
" />
<path d="M35949538 26020000
L36259061 26020000
L36092395 26210476
L36163823 26210476
L36211442 26234286
L36235252 26258095
L36259061 26305714
L36259061 26424762
L36235252 26472381
L36211442 26496190
L36163823 26520000
L36020966 26520000
L35973347 26496190
L35949538 26472381
" />
</g><text x="16861300.000000" y="34290810.000000"
textLength="1510952.000000" font-size="666666.000000" lengthAdjust="spacingAndGlyphs"
text-anchor="middle" opacity="0">3V3</text>
<g class="stroked-text"><desc>3V3</desc>
<path d="M16242252 33767000
L16551776 33767000
L16385109 33957476
L16456538 33957476
L16504157 33981286
L16527966 34005095
L16551776 34052714
L16551776 34171762
L16527966 34219381
L16504157 34243190
L16456538 34267000
L16313680 34267000
L16266061 34243190
L16242252 34219381
" />
<path d="M16694633 33767000
L16861300 34267000
L17027966 33767000
" />
<path d="M17147014 33767000
L17456538 33767000
L17289871 33957476
L17361300 33957476
L17408919 33981286
L17432728 34005095
L17456538 34052714
L17456538 34171762
L17432728 34219381
L17408919 34243190
L17361300 34267000
L17218442 34267000
L17170823 34243190
L17147014 34219381
" />
</g><text x="36419300.000000" y="21463810.000000"
textLength="1106190.000000" font-size="666666.000000" lengthAdjust="spacingAndGlyphs"
text-anchor="end" opacity="0">D1</text>
<g class="stroked-text"><desc>D1</desc>
<path d="M35497157 21440000
L35497157 20940000
L35616204 20940000
L35687633 20963810
L35735252 21011429
L35759061 21059048
L35782871 21154286
L35782871 21225714
L35759061 21320952
L35735252 21368571
L35687633 21416190
L35616204 21440000
L35497157 21440000
" />
<path d="M36259061 21440000
L35973347 21440000
" />
<path d="M36116204 21440000
L36116204 20940000
L36068585 21011429
L36020966 21059048
L35973347 21082857
" />
</g><text x="16607300.000000" y="31623810.000000"
textLength="1106190.000000" font-size="666666.000000" lengthAdjust="spacingAndGlyphs"
text-anchor="middle" opacity="0">D8</text>
<g class="stroked-text"><desc>D8</desc>
<path d="M16238252 31600000
L16238252 31100000
L16357300 31100000
L16428728 31123810
L16476347 31171429
L16500157 31219048
L16523966 31314286
L16523966 31385714
L16500157 31480952
L16476347 31528571
L16428728 31576190
L16357300 31600000
L16238252 31600000
" />
<path d="M16809680 31314286
L16762061 31290476
L16738252 31266667
L16714442 31219048
L16714442 31195238
L16738252 31147619
L16762061 31123810
L16809680 31100000
L16904919 31100000
L16952538 31123810
L16976347 31147619
L17000157 31195238
L17000157 31219048
L16976347 31266667
L16952538 31290476
L16904919 31314286
L16809680 31314286
L16762061 31338095
L16738252 31361905
L16714442 31409524
L16714442 31504762
L16738252 31552381
L16762061 31576190
L16809680 31600000
L16904919 31600000
L16952538 31576190
L16976347 31552381
L17000157 31504762
L17000157 31409524
L16976347 31361905
L16952538 31338095
L16904919 31314286
" />
</g></g>
<g style="fill:#F2EDA1; fill-opacity:0.0; 
stroke:#F2EDA1; stroke-width:150000.000000; stroke-opacity:1; 
stroke-linecap:round; stroke-linejoin:round;">
<g transform="rotate(-270.000000 6962700.000000 28362610.000000)">
<text x="6962700.000000" y="28862610.000000"
textLength="6749048.000000" font-size="1333333.000000" lengthAdjust="spacingAndGlyphs"
text-anchor="middle" opacity="0">Vibration</text>
</g>
<g class="stroked-text"><desc>Vibration</desc>
<path d="M7510319 25148324
L6510319 25481657
L7510319 25814990
" />
<path d="M6510319 26148324
L7176985 26148324
" />
<path d="M7510319 26148324
L7462700 26100705
L7415080 26148324
L7462700 26195943
L7510319 26148324
L7415080 26148324
" />
<path d="M6510319 26624514
L7510319 26624514
" />
<path d="M7129366 26624514
L7176985 26719752
L7176985 26910229
L7129366 27005467
L7081747 27053086
L6986509 27100705
L6700795 27100705
L6605557 27053086
L6557938 27005467
L6510319 26910229
L6510319 26719752
L6557938 26624514
" />
<path d="M6510319 27529276
L7176985 27529276
" />
<path d="M6986509 27529276
L7081747 27576895
L7129366 27624514
L7176985 27719752
L7176985 27814990
" />
<path d="M6510319 28576895
L7034128 28576895
L7129366 28529276
L7176985 28434038
L7176985 28243562
L7129366 28148324
" />
<path d="M6557938 28576895
L6510319 28481657
L6510319 28243562
L6557938 28148324
L6653176 28100705
L6748414 28100705
L6843652 28148324
L6891271 28243562
L6891271 28481657
L6938890 28576895
" />
<path d="M7176985 28910229
L7176985 29291181
" />
<path d="M7510319 29053086
L6653176 29053086
L6557938 29100705
L6510319 29195943
L6510319 29291181
" />
<path d="M6510319 29624514
L7176985 29624514
" />
<path d="M7510319 29624514
L7462700 29576895
L7415080 29624514
L7462700 29672133
L7510319 29624514
L7415080 29624514
" />
<path d="M6510319 30243562
L6557938 30148324
L6605557 30100705
L6700795 30053086
L6986509 30053086
L7081747 30100705
L7129366 30148324
L7176985 30243562
L7176985 30386419
L7129366 30481657
L7081747 30529276
L6986509 30576895
L6700795 30576895
L6605557 30529276
L6557938 30481657
L6510319 30386419
L6510319 30243562
" />
<path d="M7176985 31005467
L6510319 31005467
" />
<path d="M7081747 31005467
L7129366 31053086
L7176985 31148324
L7176985 31291181
L7129366 31386419
L7034128 31434038
L6510319 31434038
" />
</g><g transform="rotate(-270.000000 5235500.000000 28362610.000000)">
<text x="5235500.000000" y="28862610.000000"
textLength="5242619.000000" font-size="1333333.000000" lengthAdjust="spacingAndGlyphs"
text-anchor="middle" opacity="0">Sensor</text>
</g>
<g class="stroked-text"><desc>Sensor</desc>
<path d="M4830738 26029276
L4783119 26172133
L4783119 26410229
L4830738 26505467
L4878357 26553086
L4973595 26600705
L5068833 26600705
L5164071 26553086
L5211690 26505467
L5259309 26410229
L5306928 26219752
L5354547 26124514
L5402166 26076895
L5497404 26029276
L5592642 26029276
L5687880 26076895
L5735500 26124514
L5783119 26219752
L5783119 26457848
L5735500 26600705
" />
<path d="M4830738 27410229
L4783119 27314990
L4783119 27124514
L4830738 27029276
L4925976 26981657
L5306928 26981657
L5402166 27029276
L5449785 27124514
L5449785 27314990
L5402166 27410229
L5306928 27457848
L5211690 27457848
L5116452 26981657
" />
<path d="M5449785 27886419
L4783119 27886419
" />
<path d="M5354547 27886419
L5402166 27934038
L5449785 28029276
L5449785 28172133
L5402166 28267371
L5306928 28314990
L4783119 28314990
" />
<path d="M4830738 28743562
L4783119 28838800
L4783119 29029276
L4830738 29124514
L4925976 29172133
L4973595 29172133
L5068833 29124514
L5116452 29029276
L5116452 28886419
L5164071 28791181
L5259309 28743562
L5306928 28743562
L5402166 28791181
L5449785 28886419
L5449785 29029276
L5402166 29124514
" />
<path d="M4783119 29743562
L4830738 29648324
L4878357 29600705
L4973595 29553086
L5259309 29553086
L5354547 29600705
L5402166 29648324
L5449785 29743562
L5449785 29886419
L5402166 29981657
L5354547 30029276
L5259309 30076895
L4973595 30076895
L4878357 30029276
L4830738 29981657
L4783119 29886419
L4783119 29743562
" />
<path d="M4783119 30505467
L5449785 30505467
" />
<path d="M5259309 30505467
L5354547 30553086
L5402166 30600705
L5449785 30695943
L5449785 30791181
" />
</g></g>
<g style="fill:#F2EDA1; fill-opacity:0.0; 
stroke:#F2EDA1; stroke-width:120000.000000; stroke-opacity:1; 
stroke-linecap:round; stroke-linejoin:round;">
<path d="M20673500 23293810
L20673500 16753810
" />
<path d="M17933500 16753810
L18263500 16753810
" />
<path d="M17933500 23293810
L17933500 16753810
" />
<path d="M18263500 23293810
L17933500 23293810
" />
<path d="M20343500 23293810
L20673500 23293810
" />
<path d="M20673500 16753810
L20343500 16753810
" />
<path d="M17933500 26803810
L17933500 33343810
" />
<path d="M20673500 26803810
L20673500 33343810
" />
<path d="M17933500 33343810
L18263500 33343810
" />
<path d="M18263500 26803810
L17933500 26803810
" />
<path d="M20343500 26803810
L20673500 26803810
" />
<path d="M20673500 33343810
L20343500 33343810
" />
<path d="M23693500 33333810
L24023500 33333810
" />
<path d="M24023500 33333810
L24023500 26793810
" />
<path d="M24023500 26793810
L23693500 26793810
" />
<path d="M21283500 33333810
L21283500 26793810
" />
<path d="M21283500 26793810
L21613500 26793810
" />
<path d="M21613500 33333810
L21283500 33333810
" />
<path d="M70144500 26015610
L70144500 19475610
" />
<path d="M67734500 26015610
L67404500 26015610
" />
<path d="M67404500 26015610
L67404500 19475610
" />
<path d="M69814500 26015610
L70144500 26015610
" />
<path d="M67404500 19475610
L67734500 19475610
" />
<path d="M70144500 19475610
L69814500 19475610
" />
<path d="M71063500 19553810
L70733500 19553810
" />
<path d="M70733500 26093810
L71063500 26093810
" />
<path d="M73473500 19553810
L73473500 26093810
" />
<path d="M70733500 19553810
L70733500 26093810
" />
<path d="M73473500 26093810
L73143500 26093810
" />
<path d="M73143500 19553810
L73473500 19553810
" />
<path d="M23743500 23233810
L24073500 23233810
" />
<path d="M21663500 23233810
L21333500 23233810
" />
<path d="M21333500 16693810
L21663500 16693810
" />
<path d="M24073500 16693810
L23743500 16693810
" />
<path d="M21333500 23233810
L21333500 16693810
" />
<path d="M24073500 23233810
L24073500 16693810
" />
<path d="M12903500 33473810
L12903500 29623810
" />
<path d="M12903499.863798 29623810.153027 A2556945.000000 2556945.000000 0.0 0 0 12315763.924805 29231427.155655" />
<path d="M10104693.168853 29177410.362107 A2599997.000000 2599997.000000 0.0 0 0 8603500.000000 31533810.000000" />
<path d="M8603500.000001 31533810.000000 A2600002.000000 2600002.000000 0.0 0 0 10104693.097859 33890209.790141" />
<path d="M12325545.239445 33856441.495650 A2579477.000000 2579477.000000 0.0 0 0 12903500.269954 33473810.308065" />
<path d="M26753500 6903810
L26753500 4243810
" />
<path d="M19073500 4243810
L26753500 4243810
" />
<path d="M16473500 6903810
L16473500 5573810
" />
<path d="M19073500 6903810
L26753500 6903810
" />
<path d="M17803500 6903810
L16473500 6903810
" />
<path d="M19073500 6903810
L19073500 4243810
" />
<path d="M74493500 35833810
L70243500 35833810
" />
<path d="M78063500 34113810
L78063500 29433810
" />
<path d="M70243500 34813810
L71843500 34813810
" />
<path d="M70243500 28733810
L71843500 28733810
" />
<path d="M74493500 27713810
L70243500 27713810
" />
<path d="M70243500 27713810
L70243500 28733810
" />
<path d="M71843500 28733810
L71843500 30013810
" />
<path d="M71843500 34813810
L71843500 33533810
" />
<path d="M71843500 33533810
L68953500 33533810
" />
<path d="M70243500 35833810
L70243500 34813810
" />
<path d="M66818300 42261810
L40818300 42261810
" />
<path d="M40818300 42261810
L40818300 6261810
" />
<path d="M40818300 6261810
L66818300 6261810
" />
<path d="M66818300 6261810
L66818300 42261810
" />
<path d="M70823500 11148810
L70823500 14048810
" />
<path d="M77533500 11148810
L77533500 14048810
" />
<path d="M75628500 9243810
L72728500 9243810
" />
<path d="M75628500 15953810
L72728500 15953810
" />
<path d="M13329300 35353810
L15869300 35353810
" />
<path d="M39189300 42253810
L39189300 9923810
" />
<path d="M15869300 35353810
L15869300 42253810
" />
<path d="M37069300 7793810
L15459300 7793810
" />
<path d="M15869300 42253810
L39189300 42253810
" />
<path d="M13329300 35353810
L13329300 9923810
" />
<path d="M15459300.000000 7793810.000001 A2130002.000000 2130002.000000 0.0 0 0 13329300.000001 9923810.000000" />
<path d="M39189299.999999 9923810.000000 A2130002.000000 2130002.000000 0.0 0 0 37059300.000000 7793810.000001" />
<path d="M74723500 24093810
L74723500 18953810
" />
<path d="M77383500 24093810
L74723500 24093810
" />
<path d="M77383500 18953810
L74723500 18953810
" />
<path d="M77383500 24093810
L77383500 18953810
" />
<path d="M77383500 25363810
L77383500 26693810
" />
<path d="M77383500 26693810
L76053500 26693810
" />
<path d="M4571000 12098810
L3371000 12098810
" />
<path d="M3371000 16298810
L4571000 16298810
" />
<path d="M12571000 12098810
L12571000 16298810
" />
<path d="M4271000 11798810
L3071000 11798810
" />
<path d="M12571000 16298810
L11371000 16298810
" />
<path d="M3371000 12098810
L3371000 16298810
" />
<path d="M3071000 11798810
L3071000 12998810
" />
<path d="M11371000 12098810
L12571000 12098810
" />
<path d="M8298300 20263410
L3798300 20263410
" />
<path d="M3798300 20263410
L3798300 36287410
" />
<path d="M3798300 36287410
L8298300 36287410
" />
<path d="M8298300 36287410
L8298300 20263410
" />
<path d="M13003500 25663810
L13003500 21813810
" />
<path d="M10204693.168853 21367410.362107 A2599997.000000 2599997.000000 0.0 0 0 8703500.000000 23723810.000000" />
<path d="M12425545.239445 26046441.495650 A2579477.000000 2579477.000000 0.0 0 0 13003500.269954 25663810.308065" />
<path d="M13003499.863798 21813810.153027 A2556945.000000 2556945.000000 0.0 0 0 12415763.924805 21421427.155655" />
<path d="M8703500.000001 23723810.000000 A2600002.000000 2600002.000000 0.0 0 0 10204693.097859 26080209.790141" />
<g >
</g>
<g >
</g>
<g >
</g>
<g >
</g>
<g >
</g>
<g >
</g>
<g >
</g>
<g >
</g>
<g >
</g>
<g >
</g>
<g >
</g>
<g >
</g>
<g >
</g>
<g >
</g>
<g >
</g>
<g >
</g>
<g >
</g>
<g >
</g>
<g >
</g>
<g >
</g>
<g >
</g>
<g >
</g>
<g >
</g>
<g >
</g>
<g >
</g>
<g >
</g>
<g >
</g>
<g >
</g>
<g >
</g>
</g>
<g style="fill:#000000; fill-opacity:0.0; 
stroke:#000000; stroke-width:120000.000000; stroke-opacity:1; 
stroke-linecap:round; stroke-linejoin:round;">
</g>
<g style="fill:#D0D2CD; fill-opacity:0.0; 
stroke:#D0D2CD; stroke-width:120000.000000; stroke-opacity:1; 
stroke-linecap:round; stroke-linejoin:round;">
</g>
<g style="fill:#D0D2CD; fill-opacity:0.0; 
stroke:#D0D2CD; stroke-width:349999.000000; stroke-opacity:1; 
stroke-linecap:round; stroke-linejoin:round;">
<path d="M3843898 3224645
L3968029 3146194
" />
</g>
<g style="fill:#D0D2CD; fill-opacity:1.0; 
stroke:#D0D2CD; stroke-width:1.000000; stroke-opacity:1; 
stroke-linecap:round; stroke-linejoin:round;">
<circle cx="75508287.000000" cy="42720612.000000" r="174999.500000" /> 
</g>
<g style="fill:#D0D2CD; fill-opacity:1.0; 
stroke:#D0D2CD; stroke-width:349999.000000; stroke-opacity:1; 
stroke-linecap:round; stroke-linejoin:round;">
</g>
<g style="fill:#D0D2CD; fill-opacity:0.0; 
stroke:#D0D2CD; stroke-width:349999.000000; stroke-opacity:1; 
stroke-linecap:round; stroke-linejoin:round;">
<path d="M76239541 2811087
L76380796 2850286
" />
<path d="M77919616 41505428
L77828895 41621884
" />
<path d="M4777047 42630135
L4635793 42590937
" />
<path d="M2511985 5571849
L2522978 5424097
" />
<path d="M78154868 4307938
L78220642 4438760
" />
<path d="M78450110 40308615
L78417810 40451862
" />
</g>
<g style="fill:#D0D2CD; fill-opacity:1.0; 
stroke:#D0D2CD; stroke-width:1.000000; stroke-opacity:1; 
stroke-linecap:round; stroke-linejoin:round;">
<circle cx="5508298.000000" cy="2720610.000000" r="174999.500000" /> 
</g>
<g style="fill:#D0D2CD; fill-opacity:1.0; 
stroke:#D0D2CD; stroke-width:349999.000000; stroke-opacity:1; 
stroke-linecap:round; stroke-linejoin:round;">
</g>
<g style="fill:#D0D2CD; fill-opacity:0.0; 
stroke:#D0D2CD; stroke-width:349999.000000; stroke-opacity:1; 
stroke-linecap:round; stroke-linejoin:round;">
<path d="M3096972 41505428
L3012334 41385011
" />
<path d="M77172692 3224645
L77293108 3309283
" />
<path d="M2541175 40163620
L2522978 40017124
" />
<path d="M76519811 42544941
L76380796 42590937
" />
<path d="M75657049 42716925
L75508287 42720612
" />
<path d="M4360249 42492251
L4226450 42432967
" />
<path d="M78004253 4056208
L78082704 4180339
" />
<path d="M3187693 41621884
L3096972 41505428
" />
<path d="M75951298 2753487
L76096294 2778787
" />
</g>
<g style="fill:#D0D2CD; fill-opacity:1.0; 
stroke:#D0D2CD; stroke-width:1.000000; stroke-opacity:1; 
stroke-linecap:round; stroke-linejoin:round;">
<circle cx="77629610.000000" cy="3599290.000000" r="174999.500000" /> 
</g>
<g style="fill:#D0D2CD; fill-opacity:1.0; 
stroke:#D0D2CD; stroke-width:349999.000000; stroke-opacity:1; 
stroke-linecap:round; stroke-linejoin:round;">
</g>
<g style="fill:#D0D2CD; fill-opacity:0.0; 
stroke:#D0D2CD; stroke-width:349999.000000; stroke-opacity:1; 
stroke-linecap:round; stroke-linejoin:round;">
<path d="M76656341 2948972
L76790140 3008255
" />
<path d="M77732192 3707087
L77828895 3819336
" />
<path d="M3386979 41841931
L3284396 41734133
" />
<path d="M2508298 5720610
L2511985 5571849
" />
<path d="M77409563 42041218
L77293108 42131939
" />
</g>
<g style="fill:#D0D2CD; fill-opacity:1.0; 
stroke:#D0D2CD; stroke-width:1.000000; stroke-opacity:1; 
stroke-linecap:round; stroke-linejoin:round;">
<circle cx="77629610.000000" cy="41841931.000000" r="174999.500000" /> 
</g>
<g style="fill:#D0D2CD; fill-opacity:1.0; 
stroke:#D0D2CD; stroke-width:349999.000000; stroke-opacity:1; 
stroke-linecap:round; stroke-linejoin:round;">
</g>
<g style="fill:#D0D2CD; fill-opacity:0.0; 
stroke:#D0D2CD; stroke-width:349999.000000; stroke-opacity:1; 
stroke-linecap:round; stroke-linejoin:round;">
<path d="M78475410 40163620
L78450110 40308615
" />
<path d="M75508287 2720610
L75657049 2724297
" />
<path d="M5065289 2753487
L5211785 2735290
" />
<path d="M2541175 5277600
L2566475 5132606
" />
<path d="M2508298 39720612
L2508298 5720610
" />
<path d="M4920294 42662435
L4777047 42630135
" />
<path d="M75804802 42705932
L75657049 42716925
" />
</g>
<g style="fill:#D0D2CD; fill-opacity:1.0; 
stroke:#D0D2CD; stroke-width:1.000000; stroke-opacity:1; 
stroke-linecap:round; stroke-linejoin:round;">
<circle cx="3386979.000000" cy="41841931.000000" r="174999.500000" /> 
</g>
<g style="fill:#D0D2CD; fill-opacity:1.0; 
stroke:#D0D2CD; stroke-width:349999.000000; stroke-opacity:1; 
stroke-linecap:round; stroke-linejoin:round;">
</g>
<g style="fill:#D0D2CD; fill-opacity:0.0; 
stroke:#D0D2CD; stroke-width:349999.000000; stroke-opacity:1; 
stroke-linecap:round; stroke-linejoin:round;">
<path d="M2683969 4709089
L2736660 4572559
" />
<path d="M78378611 40593115
L78332616 40732130
" />
<path d="M78493607 40017124
L78475410 40163620
" />
<path d="M78332616 4709089
L78378611 4848104
" />
<path d="M77048561 3146194
L77172692 3224645
" />
<path d="M76380796 42590937
L76239541 42630135
" />
<path d="M2861718 41133281
L2795943 41002459
" />
<path d="M2522978 5424097
L2541175 5277600
" />
<path d="M3386979 3599290
L3494777 3496706
" />
<path d="M78332616 40732130
L78279926 40868660
" />
<path d="M78450110 5132606
L78475410 5277600
" />
<path d="M77521813 41944514
L77409563 42041218
" />
<path d="M77828895 3819336
L77919616 3935792
" />
<path d="M78279926 40868660
L78220642 41002459
" />
<path d="M77521813 3496706
L77629610 3599290
" />
<path d="M3723482 3309283
L3843898 3224645
" />
<path d="M4226450 3008255
L4360249 2948972
" />
<path d="M2933882 41260880
L2861718 41133281
" />
<path d="M3012334 4056208
L3096972 3935792
" />
<path d="M78508287 39720612
L78504600 39869373
" />
<path d="M78082704 41260880
L78004253 41385011
" />
<path d="M77293108 42131939
L77172692 42216576
" />
<path d="M2637974 40593115
L2598775 40451862
" />
<path d="M76519811 2896281
L76656341 2948972
" />
<path d="M76920962 42367192
L76790140 42432967
" />
<path d="M4360249 2948972
L4496778 2896281
" />
<path d="M78417810 4989358
L78450110 5132606
" />
</g>
<g style="fill:#D0D2CD; fill-opacity:1.0; 
stroke:#D0D2CD; stroke-width:1.000000; stroke-opacity:1; 
stroke-linecap:round; stroke-linejoin:round;">
<circle cx="5508298.000000" cy="42720612.000000" r="174999.500000" /> 
</g>
<g style="fill:#D0D2CD; fill-opacity:1.0; 
stroke:#D0D2CD; stroke-width:349999.000000; stroke-opacity:1; 
stroke-linecap:round; stroke-linejoin:round;">
</g>
<g style="fill:#D0D2CD; fill-opacity:0.0; 
stroke:#D0D2CD; stroke-width:349999.000000; stroke-opacity:1; 
stroke-linecap:round; stroke-linejoin:round;">
<path d="M2637974 4848104
L2683969 4709089
" />
<path d="M5359537 2724297
L5508298 2720610
" />
<path d="M2598775 40451862
L2566475 40308615
" />
<path d="M3843898 42216576
L3723482 42131939
" />
<path d="M77409563 3400004
L77521813 3496706
" />
<path d="M76656341 42492251
L76519811 42544941
" />
<path d="M75951298 42687735
L75804802 42705932
" />
<path d="M76096294 42662435
L75951298 42687735
" />
<path d="M3968029 42295028
L3843898 42216576
" />
<path d="M78004253 41385011
L77919616 41505428
" />
<path d="M78378611 4848104
L78417810 4989358
" />
<path d="M2566475 5132606
L2598775 4989358
" />
<path d="M4226450 42432967
L4095628 42367192
" />
<path d="M4635793 42590937
L4496778 42544941
" />
<path d="M2795943 41002459
L2736660 40868660
" />
<path d="M4095628 3074030
L4226450 3008255
" />
<path d="M3187693 3819336
L3284396 3707087
" />
</g>
<g style="fill:#D0D2CD; fill-opacity:1.0; 
stroke:#D0D2CD; stroke-width:1.000000; stroke-opacity:1; 
stroke-linecap:round; stroke-linejoin:round;">
<circle cx="78508287.000000" cy="5720610.000000" r="174999.500000" /> 
</g>
<g style="fill:#D0D2CD; fill-opacity:1.0; 
stroke:#D0D2CD; stroke-width:349999.000000; stroke-opacity:1; 
stroke-linecap:round; stroke-linejoin:round;">
</g>
<g style="fill:#D0D2CD; fill-opacity:0.0; 
stroke:#D0D2CD; stroke-width:349999.000000; stroke-opacity:1; 
stroke-linecap:round; stroke-linejoin:round;">
<path d="M77828895 41621884
L77732192 41734133
" />
<path d="M4635793 2850286
L4777047 2811087
" />
<path d="M2933882 4180339
L3012334 4056208
" />
<path d="M3607026 3400004
L3723482 3309283
" />
<path d="M4920294 2778787
L5065289 2753487
" />
<path d="M76239541 42630135
L76096294 42662435
" />
<path d="M2683969 40732130
L2637974 40593115
" />
<path d="M2861718 4307938
L2933882 4180339
" />
<path d="M2795943 4438760
L2861718 4307938
" />
<path d="M75508287 42720612
L5508298 42720612
" />
<path d="M75657049 2724297
L75804802 2735290
" />
<path d="M4496778 42544941
L4360249 42492251
" />
<path d="M78154868 41133281
L78082704 41260880
" />
<path d="M2736660 4572559
L2795943 4438760
" />
<path d="M3607026 42041218
L3494777 41944514
" />
<path d="M78417810 40451862
L78378611 40593115
" />
</g>
<g style="fill:#D0D2CD; fill-opacity:1.0; 
stroke:#D0D2CD; stroke-width:1.000000; stroke-opacity:1; 
stroke-linecap:round; stroke-linejoin:round;">
<circle cx="75508287.000000" cy="2720610.000000" r="174999.500000" /> 
</g>
<g style="fill:#D0D2CD; fill-opacity:1.0; 
stroke:#D0D2CD; stroke-width:349999.000000; stroke-opacity:1; 
stroke-linecap:round; stroke-linejoin:round;">
</g>
<g style="fill:#D0D2CD; fill-opacity:0.0; 
stroke:#D0D2CD; stroke-width:349999.000000; stroke-opacity:1; 
stroke-linecap:round; stroke-linejoin:round;">
<path d="M4496778 2896281
L4635793 2850286
" />
<path d="M77172692 42216576
L77048561 42295028
" />
<path d="M76380796 2850286
L76519811 2896281
" />
<path d="M3968029 3146194
L4095628 3074030
" />
<path d="M2736660 40868660
L2683969 40732130
" />
<path d="M4095628 42367192
L3968029 42295028
" />
</g>
<g style="fill:#D0D2CD; fill-opacity:1.0; 
stroke:#D0D2CD; stroke-width:1.000000; stroke-opacity:1; 
stroke-linecap:round; stroke-linejoin:round;">
<circle cx="78508287.000000" cy="39720612.000000" r="174999.500000" /> 
</g>
<g style="fill:#D0D2CD; fill-opacity:1.0; 
stroke:#D0D2CD; stroke-width:349999.000000; stroke-opacity:1; 
stroke-linecap:round; stroke-linejoin:round;">
</g>
<g style="fill:#D0D2CD; fill-opacity:0.0; 
stroke:#D0D2CD; stroke-width:349999.000000; stroke-opacity:1; 
stroke-linecap:round; stroke-linejoin:round;">
<path d="M3284396 3707087
L3386979 3599290
" />
<path d="M5065289 42687735
L4920294 42662435
" />
<path d="M5211785 2735290
L5359537 2724297
" />
<path d="M78493607 5424097
L78504600 5571849
" />
<path d="M77732192 41734133
L77629610 41841931
" />
<path d="M77919616 3935792
L78004253 4056208
" />
<path d="M78082704 4180339
L78154868 4307938
" />
<path d="M2522978 40017124
L2511985 39869373
" />
<path d="M5359537 42716925
L5211785 42705932
" />
<path d="M3494777 3496706
L3607026 3400004
" />
<path d="M3096972 3935792
L3187693 3819336
" />
<path d="M2511985 39869373
L2508298 39720612
" />
<path d="M3494777 41944514
L3386979 41841931
" />
</g>
<g style="fill:#D0D2CD; fill-opacity:1.0; 
stroke:#D0D2CD; stroke-width:1.000000; stroke-opacity:1; 
stroke-linecap:round; stroke-linejoin:round;">
<circle cx="3386979.000000" cy="3599290.000000" r="174999.500000" /> 
</g>
<g style="fill:#D0D2CD; fill-opacity:1.0; 
stroke:#D0D2CD; stroke-width:349999.000000; stroke-opacity:1; 
stroke-linecap:round; stroke-linejoin:round;">
</g>
<g style="fill:#D0D2CD; fill-opacity:0.0; 
stroke:#D0D2CD; stroke-width:349999.000000; stroke-opacity:1; 
stroke-linecap:round; stroke-linejoin:round;">
<path d="M75804802 2735290
L75951298 2753487
" />
<path d="M3012334 41385011
L2933882 41260880
" />
<path d="M78279926 4572559
L78332616 4709089
" />
</g>
<g style="fill:#D0D2CD; fill-opacity:1.0; 
stroke:#D0D2CD; stroke-width:1.000000; stroke-opacity:1; 
stroke-linecap:round; stroke-linejoin:round;">
<circle cx="2508298.000000" cy="5720610.000000" r="174999.500000" /> 
</g>
<g style="fill:#D0D2CD; fill-opacity:1.0; 
stroke:#D0D2CD; stroke-width:349999.000000; stroke-opacity:1; 
stroke-linecap:round; stroke-linejoin:round;">
</g>
<g style="fill:#D0D2CD; fill-opacity:0.0; 
stroke:#D0D2CD; stroke-width:349999.000000; stroke-opacity:1; 
stroke-linecap:round; stroke-linejoin:round;">
<path d="M5508298 42720612
L5359537 42716925
" />
<path d="M2598775 4989358
L2637974 4848104
" />
<path d="M3284396 41734133
L3187693 41621884
" />
<path d="M78220642 4438760
L78279926 4572559
" />
<path d="M77629610 41841931
L77521813 41944514
" />
<path d="M77629610 3599290
L77732192 3707087
" />
<path d="M3723482 42131939
L3607026 42041218
" />
<path d="M78504600 5571849
L78508287 5720610
" />
<path d="M76790140 3008255
L76920962 3074030
" />
<path d="M76920962 3074030
L77048561 3146194
" />
<path d="M76096294 2778787
L76239541 2811087
" />
<path d="M78508287 5720610
L78508287 39720612
" />
<path d="M78220642 41002459
L78154868 41133281
" />
<path d="M78475410 5277600
L78493607 5424097
" />
<path d="M4777047 2811087
L4920294 2778787
" />
<path d="M77048561 42295028
L76920962 42367192
" />
<path d="M77293108 3309283
L77409563 3400004
" />
<path d="M78504600 39869373
L78493607 40017124
" />
<path d="M2566475 40308615
L2541175 40163620
" />
<path d="M76790140 42432967
L76656341 42492251
" />
<path d="M5508298 2720610
L75508287 2720610
" />
<path d="M5211785 42705932
L5065289 42687735
" />
<g >
</g>
<g >
</g>
<g >
</g>
<g >
</g>
<g >
</g>
<g >
</g>
<g >
</g>
<g >
</g>
<g >
</g>
<g >
</g>
<g >
</g>
<g >
</g>
<g >
</g>
<g >
</g>
<g >
</g>
<g >
</g>
<g >
</g>
<g >
</g>
<g >
</g>
<g >
</g>
<g >
</g>
<g >
</g>
<g >
</g>
<g >
</g>
<g >
</g>
<g >
</g>
<g >
</g>
<g >
</g>
<g >
</g>
</g> 
</svg>
