<?xml version="1.0" standalone="no"?>
 <!DOCTYPE svg PUBLIC "-//W3C//DTD SVG 1.1//EN" 
 "http://www.w3.org/Graphics/SVG/1.1/DTD/svg11.dtd"> 
<svg
  xmlns:svg="http://www.w3.org/2000/svg"
  xmlns="http://www.w3.org/2000/svg"
  xmlns:xlink="http://www.w3.org/1999/xlink"
  version="1.1"
  width="7.866380cm" height="4.292600cm" viewBox="0 0 78663800 42926000">
<title>SVG Picture created as DNS-DriveBy-F_Paste.svg date 2023/07/20 15:57:40 </title>
  <desc>Picture generated by PCBNEW </desc>
<g style="fill:#000000; fill-opacity:1.000000;stroke:#000000; stroke-opacity:1.000000;
stroke-linecap:round; stroke-linejoin:round;"
 transform="translate(0 0) scale(1 1)">
</g>
<g style="fill:#000000; fill-opacity:0.0; 
stroke:#000000; stroke-width:0.000000; stroke-opacity:1; 
stroke-linecap:round; stroke-linejoin:round;">
<g >
</g>
<g >
</g>
<g >
</g>
<g >
</g>
<g >
</g>
<g >
</g>
<g >
</g>
<g >
</g>
<g >
</g>
<g >
</g>
<g >
</g>
<g style="fill:#000000; fill-opacity:0.0; 
stroke:#000000; stroke-width:0.000000; stroke-opacity:1; 
stroke-linecap:round; stroke-linejoin:round;">
</g>
<g style="fill:#000000; fill-opacity:0.0; 
stroke:#000000; stroke-width:1.000000; stroke-opacity:1; 
stroke-linecap:round; stroke-linejoin:round;">
</g>
<g style="fill:#000000; fill-opacity:1.0; 
stroke:#000000; stroke-width:1.000000; stroke-opacity:1; 
stroke-linecap:round; stroke-linejoin:round;">
<path style="fill:#000000; fill-opacity:1.0; 
stroke:#000000; stroke-width:1.000000; stroke-opacity:1; 
stroke-linecap:round; stroke-linejoin:round;fill-rule:evenodd;"
d="M 69203500.000000,33273810.000000
69107829.000000,33254780.000000
69026723.000000,33200587.000000
68972530.000000,33119481.000000
68953500.000000,33023810.000000
68953500.000000,32523810.000000
68972530.000000,32428139.000000
69026723.000000,32347033.000000
69107829.000000,32292840.000000
69203500.000000,32273810.000000
72203500.000000,32273810.000000
72299171.000000,32292840.000000
72380277.000000,32347033.000000
72434470.000000,32428139.000000
72453500.000000,32523810.000000
72453500.000000,33023810.000000
72434470.000000,33119481.000000
72380277.000000,33200587.000000
72299171.000000,33254780.000000
72203500.000000,33273810.000000
Z" /> 
<path style="fill:#000000; fill-opacity:1.0; 
stroke:#000000; stroke-width:1.000000; stroke-opacity:1; 
stroke-linecap:round; stroke-linejoin:round;fill-rule:evenodd;"
d="M 69203500.000000,31273810.000000
69107829.000000,31254780.000000
69026723.000000,31200587.000000
68972530.000000,31119481.000000
68953500.000000,31023810.000000
68953500.000000,30523810.000000
68972530.000000,30428139.000000
69026723.000000,30347033.000000
69107829.000000,30292840.000000
69203500.000000,30273810.000000
72203500.000000,30273810.000000
72299171.000000,30292840.000000
72380277.000000,30347033.000000
72434470.000000,30428139.000000
72453500.000000,30523810.000000
72453500.000000,31023810.000000
72434470.000000,31119481.000000
72380277.000000,31200587.000000
72299171.000000,31254780.000000
72203500.000000,31273810.000000
Z" /> 
<path style="fill:#000000; fill-opacity:1.0; 
stroke:#000000; stroke-width:1.000000; stroke-opacity:1; 
stroke-linecap:round; stroke-linejoin:round;fill-rule:evenodd;"
d="M 75003501.000000,29173810.000000
74907830.000000,29154780.000000
74826724.000000,29100586.000000
74772530.000000,29019480.000000
74753501.000000,28923808.000000
74753500.000000,27923811.000000
74772530.000000,27828140.000000
74826724.000000,27747034.000000
74907830.000000,27692840.000000
75003502.000000,27673811.000000
77903499.000000,27673810.000000
77999170.000000,27692840.000000
78080276.000000,27747034.000000
78134470.000000,27828140.000000
78153499.000000,27923812.000000
78153500.000000,28923809.000000
78134470.000000,29019480.000000
78080276.000000,29100586.000000
77999170.000000,29154780.000000
77903498.000000,29173809.000000
Z" /> 
<path style="fill:#000000; fill-opacity:1.0; 
stroke:#000000; stroke-width:1.000000; stroke-opacity:1; 
stroke-linecap:round; stroke-linejoin:round;fill-rule:evenodd;"
d="M 75003501.000000,35873810.000000
74907830.000000,35854780.000000
74826724.000000,35800586.000000
74772530.000000,35719480.000000
74753501.000000,35623808.000000
74753500.000000,34623811.000000
74772530.000000,34528140.000000
74826724.000000,34447034.000000
74907830.000000,34392840.000000
75003502.000000,34373811.000000
77903499.000000,34373810.000000
77999170.000000,34392840.000000
78080276.000000,34447034.000000
78134470.000000,34528140.000000
78153499.000000,34623812.000000
78153500.000000,35623809.000000
78134470.000000,35719480.000000
78080276.000000,35800586.000000
77999170.000000,35854780.000000
77903498.000000,35873809.000000
Z" /> 
</g>
<g >
</g>
<g >
</g>
<g >
</g>
<g >
</g>
<g >
</g>
<g >
</g>
<g >
</g>
<g >
</g>
<g >
</g>
<g >
</g>
<g >
</g>
<g >
</g>
<g >
</g>
<g >
</g>
<g >
</g>
<g >
</g>
<g >
</g>
<g >
</g>
</g>
<g style="fill:#000000; fill-opacity:1.0; 
stroke:#000000; stroke-width:1.000000; stroke-opacity:1; 
stroke-linecap:round; stroke-linejoin:round;">
</g>
<g style="fill:#D0D2CD; fill-opacity:1.0; 
stroke:#D0D2CD; stroke-width:1.000000; stroke-opacity:1; 
stroke-linecap:round; stroke-linejoin:round;">
</g>
<g style="fill:#D0D2CD; fill-opacity:1.0; 
stroke:#D0D2CD; stroke-width:349999.000000; stroke-opacity:1; 
stroke-linecap:round; stroke-linejoin:round;">
</g>
<g style="fill:#D0D2CD; fill-opacity:0.0; 
stroke:#D0D2CD; stroke-width:349999.000000; stroke-opacity:1; 
stroke-linecap:round; stroke-linejoin:round;">
<path d="M3843898 3224645
L3968029 3146194
" />
</g>
<g style="fill:#D0D2CD; fill-opacity:1.0; 
stroke:#D0D2CD; stroke-width:1.000000; stroke-opacity:1; 
stroke-linecap:round; stroke-linejoin:round;">
<circle cx="75508287.000000" cy="42720612.000000" r="174999.500000" /> 
</g>
<g style="fill:#D0D2CD; fill-opacity:1.0; 
stroke:#D0D2CD; stroke-width:349999.000000; stroke-opacity:1; 
stroke-linecap:round; stroke-linejoin:round;">
</g>
<g style="fill:#D0D2CD; fill-opacity:0.0; 
stroke:#D0D2CD; stroke-width:349999.000000; stroke-opacity:1; 
stroke-linecap:round; stroke-linejoin:round;">
<path d="M76239541 2811087
L76380796 2850286
" />
<path d="M77919616 41505428
L77828895 41621884
" />
<path d="M4777047 42630135
L4635793 42590937
" />
<path d="M2511985 5571849
L2522978 5424097
" />
<path d="M78154868 4307938
L78220642 4438760
" />
<path d="M78450110 40308615
L78417810 40451862
" />
</g>
<g style="fill:#D0D2CD; fill-opacity:1.0; 
stroke:#D0D2CD; stroke-width:1.000000; stroke-opacity:1; 
stroke-linecap:round; stroke-linejoin:round;">
<circle cx="5508298.000000" cy="2720610.000000" r="174999.500000" /> 
</g>
<g style="fill:#D0D2CD; fill-opacity:1.0; 
stroke:#D0D2CD; stroke-width:349999.000000; stroke-opacity:1; 
stroke-linecap:round; stroke-linejoin:round;">
</g>
<g style="fill:#D0D2CD; fill-opacity:0.0; 
stroke:#D0D2CD; stroke-width:349999.000000; stroke-opacity:1; 
stroke-linecap:round; stroke-linejoin:round;">
<path d="M3096972 41505428
L3012334 41385011
" />
<path d="M77172692 3224645
L77293108 3309283
" />
<path d="M2541175 40163620
L2522978 40017124
" />
<path d="M76519811 42544941
L76380796 42590937
" />
<path d="M75657049 42716925
L75508287 42720612
" />
<path d="M4360249 42492251
L4226450 42432967
" />
<path d="M78004253 4056208
L78082704 4180339
" />
<path d="M3187693 41621884
L3096972 41505428
" />
<path d="M75951298 2753487
L76096294 2778787
" />
</g>
<g style="fill:#D0D2CD; fill-opacity:1.0; 
stroke:#D0D2CD; stroke-width:1.000000; stroke-opacity:1; 
stroke-linecap:round; stroke-linejoin:round;">
<circle cx="77629610.000000" cy="3599290.000000" r="174999.500000" /> 
</g>
<g style="fill:#D0D2CD; fill-opacity:1.0; 
stroke:#D0D2CD; stroke-width:349999.000000; stroke-opacity:1; 
stroke-linecap:round; stroke-linejoin:round;">
</g>
<g style="fill:#D0D2CD; fill-opacity:0.0; 
stroke:#D0D2CD; stroke-width:349999.000000; stroke-opacity:1; 
stroke-linecap:round; stroke-linejoin:round;">
<path d="M76656341 2948972
L76790140 3008255
" />
<path d="M77732192 3707087
L77828895 3819336
" />
<path d="M3386979 41841931
L3284396 41734133
" />
<path d="M2508298 5720610
L2511985 5571849
" />
<path d="M77409563 42041218
L77293108 42131939
" />
</g>
<g style="fill:#D0D2CD; fill-opacity:1.0; 
stroke:#D0D2CD; stroke-width:1.000000; stroke-opacity:1; 
stroke-linecap:round; stroke-linejoin:round;">
<circle cx="77629610.000000" cy="41841931.000000" r="174999.500000" /> 
</g>
<g style="fill:#D0D2CD; fill-opacity:1.0; 
stroke:#D0D2CD; stroke-width:349999.000000; stroke-opacity:1; 
stroke-linecap:round; stroke-linejoin:round;">
</g>
<g style="fill:#D0D2CD; fill-opacity:0.0; 
stroke:#D0D2CD; stroke-width:349999.000000; stroke-opacity:1; 
stroke-linecap:round; stroke-linejoin:round;">
<path d="M78475410 40163620
L78450110 40308615
" />
<path d="M75508287 2720610
L75657049 2724297
" />
<path d="M5065289 2753487
L5211785 2735290
" />
<path d="M2541175 5277600
L2566475 5132606
" />
<path d="M2508298 39720612
L2508298 5720610
" />
<path d="M4920294 42662435
L4777047 42630135
" />
<path d="M75804802 42705932
L75657049 42716925
" />
</g>
<g style="fill:#D0D2CD; fill-opacity:1.0; 
stroke:#D0D2CD; stroke-width:1.000000; stroke-opacity:1; 
stroke-linecap:round; stroke-linejoin:round;">
<circle cx="3386979.000000" cy="41841931.000000" r="174999.500000" /> 
</g>
<g style="fill:#D0D2CD; fill-opacity:1.0; 
stroke:#D0D2CD; stroke-width:349999.000000; stroke-opacity:1; 
stroke-linecap:round; stroke-linejoin:round;">
</g>
<g style="fill:#D0D2CD; fill-opacity:0.0; 
stroke:#D0D2CD; stroke-width:349999.000000; stroke-opacity:1; 
stroke-linecap:round; stroke-linejoin:round;">
<path d="M2683969 4709089
L2736660 4572559
" />
<path d="M78378611 40593115
L78332616 40732130
" />
<path d="M78493607 40017124
L78475410 40163620
" />
<path d="M78332616 4709089
L78378611 4848104
" />
<path d="M77048561 3146194
L77172692 3224645
" />
<path d="M76380796 42590937
L76239541 42630135
" />
<path d="M2861718 41133281
L2795943 41002459
" />
<path d="M2522978 5424097
L2541175 5277600
" />
<path d="M3386979 3599290
L3494777 3496706
" />
<path d="M78332616 40732130
L78279926 40868660
" />
<path d="M78450110 5132606
L78475410 5277600
" />
<path d="M77521813 41944514
L77409563 42041218
" />
<path d="M77828895 3819336
L77919616 3935792
" />
<path d="M78279926 40868660
L78220642 41002459
" />
<path d="M77521813 3496706
L77629610 3599290
" />
<path d="M3723482 3309283
L3843898 3224645
" />
<path d="M4226450 3008255
L4360249 2948972
" />
<path d="M2933882 41260880
L2861718 41133281
" />
<path d="M3012334 4056208
L3096972 3935792
" />
<path d="M78508287 39720612
L78504600 39869373
" />
<path d="M78082704 41260880
L78004253 41385011
" />
<path d="M77293108 42131939
L77172692 42216576
" />
<path d="M2637974 40593115
L2598775 40451862
" />
<path d="M76519811 2896281
L76656341 2948972
" />
<path d="M76920962 42367192
L76790140 42432967
" />
<path d="M4360249 2948972
L4496778 2896281
" />
<path d="M78417810 4989358
L78450110 5132606
" />
</g>
<g style="fill:#D0D2CD; fill-opacity:1.0; 
stroke:#D0D2CD; stroke-width:1.000000; stroke-opacity:1; 
stroke-linecap:round; stroke-linejoin:round;">
<circle cx="5508298.000000" cy="42720612.000000" r="174999.500000" /> 
</g>
<g style="fill:#D0D2CD; fill-opacity:1.0; 
stroke:#D0D2CD; stroke-width:349999.000000; stroke-opacity:1; 
stroke-linecap:round; stroke-linejoin:round;">
</g>
<g style="fill:#D0D2CD; fill-opacity:0.0; 
stroke:#D0D2CD; stroke-width:349999.000000; stroke-opacity:1; 
stroke-linecap:round; stroke-linejoin:round;">
<path d="M2637974 4848104
L2683969 4709089
" />
<path d="M5359537 2724297
L5508298 2720610
" />
<path d="M2598775 40451862
L2566475 40308615
" />
<path d="M3843898 42216576
L3723482 42131939
" />
<path d="M77409563 3400004
L77521813 3496706
" />
<path d="M76656341 42492251
L76519811 42544941
" />
<path d="M75951298 42687735
L75804802 42705932
" />
<path d="M76096294 42662435
L75951298 42687735
" />
<path d="M3968029 42295028
L3843898 42216576
" />
<path d="M78004253 41385011
L77919616 41505428
" />
<path d="M78378611 4848104
L78417810 4989358
" />
<path d="M2566475 5132606
L2598775 4989358
" />
<path d="M4226450 42432967
L4095628 42367192
" />
<path d="M4635793 42590937
L4496778 42544941
" />
<path d="M2795943 41002459
L2736660 40868660
" />
<path d="M4095628 3074030
L4226450 3008255
" />
<path d="M3187693 3819336
L3284396 3707087
" />
</g>
<g style="fill:#D0D2CD; fill-opacity:1.0; 
stroke:#D0D2CD; stroke-width:1.000000; stroke-opacity:1; 
stroke-linecap:round; stroke-linejoin:round;">
<circle cx="78508287.000000" cy="5720610.000000" r="174999.500000" /> 
</g>
<g style="fill:#D0D2CD; fill-opacity:1.0; 
stroke:#D0D2CD; stroke-width:349999.000000; stroke-opacity:1; 
stroke-linecap:round; stroke-linejoin:round;">
</g>
<g style="fill:#D0D2CD; fill-opacity:0.0; 
stroke:#D0D2CD; stroke-width:349999.000000; stroke-opacity:1; 
stroke-linecap:round; stroke-linejoin:round;">
<path d="M77828895 41621884
L77732192 41734133
" />
<path d="M4635793 2850286
L4777047 2811087
" />
<path d="M2933882 4180339
L3012334 4056208
" />
<path d="M3607026 3400004
L3723482 3309283
" />
<path d="M4920294 2778787
L5065289 2753487
" />
<path d="M76239541 42630135
L76096294 42662435
" />
<path d="M2683969 40732130
L2637974 40593115
" />
<path d="M2861718 4307938
L2933882 4180339
" />
<path d="M2795943 4438760
L2861718 4307938
" />
<path d="M75508287 42720612
L5508298 42720612
" />
<path d="M75657049 2724297
L75804802 2735290
" />
<path d="M4496778 42544941
L4360249 42492251
" />
<path d="M78154868 41133281
L78082704 41260880
" />
<path d="M2736660 4572559
L2795943 4438760
" />
<path d="M3607026 42041218
L3494777 41944514
" />
<path d="M78417810 40451862
L78378611 40593115
" />
</g>
<g style="fill:#D0D2CD; fill-opacity:1.0; 
stroke:#D0D2CD; stroke-width:1.000000; stroke-opacity:1; 
stroke-linecap:round; stroke-linejoin:round;">
<circle cx="75508287.000000" cy="2720610.000000" r="174999.500000" /> 
</g>
<g style="fill:#D0D2CD; fill-opacity:1.0; 
stroke:#D0D2CD; stroke-width:349999.000000; stroke-opacity:1; 
stroke-linecap:round; stroke-linejoin:round;">
</g>
<g style="fill:#D0D2CD; fill-opacity:0.0; 
stroke:#D0D2CD; stroke-width:349999.000000; stroke-opacity:1; 
stroke-linecap:round; stroke-linejoin:round;">
<path d="M4496778 2896281
L4635793 2850286
" />
<path d="M77172692 42216576
L77048561 42295028
" />
<path d="M76380796 2850286
L76519811 2896281
" />
<path d="M3968029 3146194
L4095628 3074030
" />
<path d="M2736660 40868660
L2683969 40732130
" />
<path d="M4095628 42367192
L3968029 42295028
" />
</g>
<g style="fill:#D0D2CD; fill-opacity:1.0; 
stroke:#D0D2CD; stroke-width:1.000000; stroke-opacity:1; 
stroke-linecap:round; stroke-linejoin:round;">
<circle cx="78508287.000000" cy="39720612.000000" r="174999.500000" /> 
</g>
<g style="fill:#D0D2CD; fill-opacity:1.0; 
stroke:#D0D2CD; stroke-width:349999.000000; stroke-opacity:1; 
stroke-linecap:round; stroke-linejoin:round;">
</g>
<g style="fill:#D0D2CD; fill-opacity:0.0; 
stroke:#D0D2CD; stroke-width:349999.000000; stroke-opacity:1; 
stroke-linecap:round; stroke-linejoin:round;">
<path d="M3284396 3707087
L3386979 3599290
" />
<path d="M5065289 42687735
L4920294 42662435
" />
<path d="M5211785 2735290
L5359537 2724297
" />
<path d="M78493607 5424097
L78504600 5571849
" />
<path d="M77732192 41734133
L77629610 41841931
" />
<path d="M77919616 3935792
L78004253 4056208
" />
<path d="M78082704 4180339
L78154868 4307938
" />
<path d="M2522978 40017124
L2511985 39869373
" />
<path d="M5359537 42716925
L5211785 42705932
" />
<path d="M3494777 3496706
L3607026 3400004
" />
<path d="M3096972 3935792
L3187693 3819336
" />
<path d="M2511985 39869373
L2508298 39720612
" />
<path d="M3494777 41944514
L3386979 41841931
" />
</g>
<g style="fill:#D0D2CD; fill-opacity:1.0; 
stroke:#D0D2CD; stroke-width:1.000000; stroke-opacity:1; 
stroke-linecap:round; stroke-linejoin:round;">
<circle cx="3386979.000000" cy="3599290.000000" r="174999.500000" /> 
</g>
<g style="fill:#D0D2CD; fill-opacity:1.0; 
stroke:#D0D2CD; stroke-width:349999.000000; stroke-opacity:1; 
stroke-linecap:round; stroke-linejoin:round;">
</g>
<g style="fill:#D0D2CD; fill-opacity:0.0; 
stroke:#D0D2CD; stroke-width:349999.000000; stroke-opacity:1; 
stroke-linecap:round; stroke-linejoin:round;">
<path d="M75804802 2735290
L75951298 2753487
" />
<path d="M3012334 41385011
L2933882 41260880
" />
<path d="M78279926 4572559
L78332616 4709089
" />
</g>
<g style="fill:#D0D2CD; fill-opacity:1.0; 
stroke:#D0D2CD; stroke-width:1.000000; stroke-opacity:1; 
stroke-linecap:round; stroke-linejoin:round;">
<circle cx="2508298.000000" cy="5720610.000000" r="174999.500000" /> 
</g>
<g style="fill:#D0D2CD; fill-opacity:1.0; 
stroke:#D0D2CD; stroke-width:349999.000000; stroke-opacity:1; 
stroke-linecap:round; stroke-linejoin:round;">
</g>
<g style="fill:#D0D2CD; fill-opacity:0.0; 
stroke:#D0D2CD; stroke-width:349999.000000; stroke-opacity:1; 
stroke-linecap:round; stroke-linejoin:round;">
<path d="M5508298 42720612
L5359537 42716925
" />
<path d="M2598775 4989358
L2637974 4848104
" />
<path d="M3284396 41734133
L3187693 41621884
" />
<path d="M78220642 4438760
L78279926 4572559
" />
<path d="M77629610 41841931
L77521813 41944514
" />
<path d="M77629610 3599290
L77732192 3707087
" />
<path d="M3723482 42131939
L3607026 42041218
" />
<path d="M78504600 5571849
L78508287 5720610
" />
<path d="M76790140 3008255
L76920962 3074030
" />
<path d="M76920962 3074030
L77048561 3146194
" />
<path d="M76096294 2778787
L76239541 2811087
" />
<path d="M78508287 5720610
L78508287 39720612
" />
<path d="M78220642 41002459
L78154868 41133281
" />
<path d="M78475410 5277600
L78493607 5424097
" />
<path d="M4777047 2811087
L4920294 2778787
" />
<path d="M77048561 42295028
L76920962 42367192
" />
<path d="M77293108 3309283
L77409563 3400004
" />
<path d="M78504600 39869373
L78493607 40017124
" />
<path d="M2566475 40308615
L2541175 40163620
" />
<path d="M76790140 42432967
L76656341 42492251
" />
<path d="M5508298 2720610
L75508287 2720610
" />
<path d="M5211785 42705932
L5065289 42687735
" />
<g >
</g>
<g >
</g>
<g >
</g>
<g >
</g>
<g >
</g>
<g >
</g>
<g >
</g>
<g >
</g>
<g >
</g>
<g >
</g>
<g >
</g>
<g >
</g>
<g >
</g>
<g >
</g>
<g >
</g>
<g >
</g>
<g >
</g>
<g >
</g>
<g >
</g>
<g >
</g>
<g >
</g>
<g >
</g>
<g >
</g>
<g >
</g>
<g >
</g>
<g >
</g>
<g >
</g>
<g >
</g>
<g >
</g>
</g> 
</svg>
