<?xml version="1.0" standalone="no"?>
 <!DOCTYPE svg PUBLIC "-//W3C//DTD SVG 1.1//EN" 
 "http://www.w3.org/Graphics/SVG/1.1/DTD/svg11.dtd"> 
<svg
  xmlns:svg="http://www.w3.org/2000/svg"
  xmlns="http://www.w3.org/2000/svg"
  xmlns:xlink="http://www.w3.org/1999/xlink"
  version="1.1"
  width="7.866380cm" height="4.292600cm" viewBox="0 0 78663800 42926000">
<title>SVG Picture created as DNS-DriveBy-F_Mask.svg date 2023/07/20 15:57:40 </title>
  <desc>Picture generated by PCBNEW </desc>
<g style="fill:#000000; fill-opacity:1.000000;stroke:#000000; stroke-opacity:1.000000;
stroke-linecap:round; stroke-linejoin:round;"
 transform="translate(0 0) scale(1 1)">
</g>
<g style="fill:#000000; fill-opacity:0.0; 
stroke:#000000; stroke-width:0.000000; stroke-opacity:1; 
stroke-linecap:round; stroke-linejoin:round;">
</g>
<g style="fill:#D864FF; fill-opacity:0.0; 
stroke:#D864FF; stroke-width:0.000000; stroke-opacity:1; 
stroke-linecap:round; stroke-linejoin:round;">
</g>
<g style="fill:#D864FF; fill-opacity:0.0; 
stroke:#D864FF; stroke-width:150000.000000; stroke-opacity:1; 
stroke-linecap:round; stroke-linejoin:round;">
<text x="64678500.000000" y="5323810.000000"
textLength="15337857.000000" font-size="1333333.000000" lengthAdjust="spacingAndGlyphs"
text-anchor="middle" opacity="0">LyndLabs / Rev 1.3</text>
<g class="stroked-text"><desc>LyndLabs / Rev 1.3</desc>
<path d="M57821357 5276190
L57345166 5276190
L57345166 4276190
" />
<path d="M58059452 4609524
L58297547 5276190
" />
<path d="M58535642 4609524
L58297547 5276190
L58202309 5514286
L58154690 5561905
L58059452 5609524
" />
<path d="M58916595 4609524
L58916595 5276190
" />
<path d="M58916595 4704762
L58964214 4657143
L59059452 4609524
L59202309 4609524
L59297547 4657143
L59345166 4752381
L59345166 5276190
" />
<path d="M60249928 5276190
L60249928 4276190
" />
<path d="M60249928 5228571
L60154690 5276190
L59964214 5276190
L59868976 5228571
L59821357 5180952
L59773738 5085714
L59773738 4800000
L59821357 4704762
L59868976 4657143
L59964214 4609524
L60154690 4609524
L60249928 4657143
" />
<path d="M61202309 5276190
L60726119 5276190
L60726119 4276190
" />
<path d="M61964214 5276190
L61964214 4752381
L61916595 4657143
L61821357 4609524
L61630880 4609524
L61535642 4657143
" />
<path d="M61964214 5228571
L61868976 5276190
L61630880 5276190
L61535642 5228571
L61488023 5133333
L61488023 5038095
L61535642 4942857
L61630880 4895238
L61868976 4895238
L61964214 4847619
" />
<path d="M62440404 5276190
L62440404 4276190
" />
<path d="M62440404 4657143
L62535642 4609524
L62726119 4609524
L62821357 4657143
L62868976 4704762
L62916595 4800000
L62916595 5085714
L62868976 5180952
L62821357 5228571
L62726119 5276190
L62535642 5276190
L62440404 5228571
" />
<path d="M63297547 5228571
L63392785 5276190
L63583261 5276190
L63678500 5228571
L63726119 5133333
L63726119 5085714
L63678500 4990476
L63583261 4942857
L63440404 4942857
L63345166 4895238
L63297547 4800000
L63297547 4752381
L63345166 4657143
L63440404 4609524
L63583261 4609524
L63678500 4657143
" />
<path d="M65630880 4228571
L64773738 5514286
" />
<path d="M67297547 5276190
L66964214 4800000
" />
<path d="M66726119 5276190
L66726119 4276190
L67107071 4276190
L67202309 4323810
L67249928 4371429
L67297547 4466667
L67297547 4609524
L67249928 4704762
L67202309 4752381
L67107071 4800000
L66726119 4800000
" />
<path d="M68107071 5228571
L68011833 5276190
L67821357 5276190
L67726119 5228571
L67678500 5133333
L67678500 4752381
L67726119 4657143
L67821357 4609524
L68011833 4609524
L68107071 4657143
L68154690 4752381
L68154690 4847619
L67678500 4942857
" />
<path d="M68488023 4609524
L68726119 5276190
L68964214 4609524
" />
<path d="M70630880 5276190
L70059452 5276190
" />
<path d="M70345166 5276190
L70345166 4276190
L70249928 4419048
L70154690 4514286
L70059452 4561905
" />
<path d="M71059452 5180952
L71107071 5228571
L71059452 5276190
L71011833 5228571
L71059452 5180952
L71059452 5276190
" />
<path d="M71440404 4276190
L72059452 4276190
L71726119 4657143
L71868976 4657143
L71964214 4704762
L72011833 4752381
L72059452 4847619
L72059452 5085714
L72011833 5180952
L71964214 5228571
L71868976 5276190
L71583261 5276190
L71488023 5228571
L71440404 5180952
" />
</g><text x="11803500.000000" y="41573810.000000"
textLength="7004524.000000" font-size="1333333.000000" lengthAdjust="spacingAndGlyphs"
text-anchor="middle" opacity="0">LyndLabs</text>
<g class="stroked-text"><desc>LyndLabs</desc>
<path d="M9113023 41526190
L8636833 41526190
L8636833 40526190
" />
<path d="M9351119 40859524
L9589214 41526190
" />
<path d="M9827309 40859524
L9589214 41526190
L9493976 41764286
L9446357 41811905
L9351119 41859524
" />
<path d="M10208261 40859524
L10208261 41526190
" />
<path d="M10208261 40954762
L10255880 40907143
L10351119 40859524
L10493976 40859524
L10589214 40907143
L10636833 41002381
L10636833 41526190
" />
<path d="M11541595 41526190
L11541595 40526190
" />
<path d="M11541595 41478571
L11446357 41526190
L11255880 41526190
L11160642 41478571
L11113023 41430952
L11065404 41335714
L11065404 41050000
L11113023 40954762
L11160642 40907143
L11255880 40859524
L11446357 40859524
L11541595 40907143
" />
<path d="M12493976 41526190
L12017785 41526190
L12017785 40526190
" />
<path d="M13255880 41526190
L13255880 41002381
L13208261 40907143
L13113023 40859524
L12922547 40859524
L12827309 40907143
" />
<path d="M13255880 41478571
L13160642 41526190
L12922547 41526190
L12827309 41478571
L12779690 41383333
L12779690 41288095
L12827309 41192857
L12922547 41145238
L13160642 41145238
L13255880 41097619
" />
<path d="M13732071 41526190
L13732071 40526190
" />
<path d="M13732071 40907143
L13827309 40859524
L14017785 40859524
L14113023 40907143
L14160642 40954762
L14208261 41050000
L14208261 41335714
L14160642 41430952
L14113023 41478571
L14017785 41526190
L13827309 41526190
L13732071 41478571
" />
<path d="M14589214 41478571
L14684452 41526190
L14874928 41526190
L14970166 41478571
L15017785 41383333
L15017785 41335714
L14970166 41240476
L14874928 41192857
L14732071 41192857
L14636833 41145238
L14589214 41050000
L14589214 41002381
L14636833 40907143
L14732071 40859524
L14874928 40859524
L14970166 40907143
" />
</g><g >
</g>
<g >
</g>
<g style="fill:#000000; fill-opacity:0.0; 
stroke:#000000; stroke-width:150000.000000; stroke-opacity:1; 
stroke-linecap:round; stroke-linejoin:round;">
</g>
<g style="fill:#000000; fill-opacity:1.0; 
stroke:#000000; stroke-width:1.000000; stroke-opacity:1; 
stroke-linecap:round; stroke-linejoin:round;">
<circle cx="19303500.000000" cy="23833810.000000" r="800000.000000" /> 
</g>
<g style="fill:#000000; fill-opacity:1.0; 
stroke:#000000; stroke-width:21200.000000; stroke-opacity:1; 
stroke-linecap:round; stroke-linejoin:round;">
</g>
<g style="fill:#000000; fill-opacity:1.0; 
stroke:#000000; stroke-width:1.000000; stroke-opacity:1; 
stroke-linecap:round; stroke-linejoin:round;">
<circle cx="19303500.000000" cy="16213810.000000" r="800000.000000" /> 
</g>
<g >
</g>
<g style="fill:#000000; fill-opacity:1.0; 
stroke:#000000; stroke-width:1.000000; stroke-opacity:1; 
stroke-linecap:round; stroke-linejoin:round;">
<circle cx="19303500.000000" cy="26263810.000000" r="800000.000000" /> 
</g>
<g style="fill:#000000; fill-opacity:1.0; 
stroke:#000000; stroke-width:21200.000000; stroke-opacity:1; 
stroke-linecap:round; stroke-linejoin:round;">
</g>
<g style="fill:#000000; fill-opacity:1.0; 
stroke:#000000; stroke-width:1.000000; stroke-opacity:1; 
stroke-linecap:round; stroke-linejoin:round;">
<circle cx="19303500.000000" cy="33883810.000000" r="800000.000000" /> 
</g>
<g >
</g>
<g style="fill:#000000; fill-opacity:1.0; 
stroke:#000000; stroke-width:1.000000; stroke-opacity:1; 
stroke-linecap:round; stroke-linejoin:round;">
<circle cx="22653500.000000" cy="33873810.000000" r="800000.000000" /> 
</g>
<g style="fill:#000000; fill-opacity:1.0; 
stroke:#000000; stroke-width:21200.000000; stroke-opacity:1; 
stroke-linecap:round; stroke-linejoin:round;">
</g>
<g style="fill:#000000; fill-opacity:1.0; 
stroke:#000000; stroke-width:1.000000; stroke-opacity:1; 
stroke-linecap:round; stroke-linejoin:round;">
<circle cx="22653500.000000" cy="26253810.000000" r="800000.000000" /> 
</g>
<g >
</g>
<g style="fill:#000000; fill-opacity:1.0; 
stroke:#000000; stroke-width:1.000000; stroke-opacity:1; 
stroke-linecap:round; stroke-linejoin:round;">
<circle cx="68774500.000000" cy="26555610.000000" r="800000.000000" /> 
</g>
<g style="fill:#000000; fill-opacity:1.0; 
stroke:#000000; stroke-width:21200.000000; stroke-opacity:1; 
stroke-linecap:round; stroke-linejoin:round;">
</g>
<g style="fill:#000000; fill-opacity:1.0; 
stroke:#000000; stroke-width:1.000000; stroke-opacity:1; 
stroke-linecap:round; stroke-linejoin:round;">
<circle cx="68774500.000000" cy="18935610.000000" r="800000.000000" /> 
</g>
<g >
</g>
<g style="fill:#000000; fill-opacity:1.0; 
stroke:#000000; stroke-width:1.000000; stroke-opacity:1; 
stroke-linecap:round; stroke-linejoin:round;">
<circle cx="72103500.000000" cy="19013810.000000" r="800000.000000" /> 
</g>
<g style="fill:#000000; fill-opacity:1.0; 
stroke:#000000; stroke-width:21200.000000; stroke-opacity:1; 
stroke-linecap:round; stroke-linejoin:round;">
</g>
<g style="fill:#000000; fill-opacity:1.0; 
stroke:#000000; stroke-width:1.000000; stroke-opacity:1; 
stroke-linecap:round; stroke-linejoin:round;">
<circle cx="72103500.000000" cy="26633810.000000" r="800000.000000" /> 
</g>
<g >
</g>
<g style="fill:#000000; fill-opacity:1.0; 
stroke:#000000; stroke-width:1.000000; stroke-opacity:1; 
stroke-linecap:round; stroke-linejoin:round;">
<circle cx="22703500.000000" cy="23773810.000000" r="800000.000000" /> 
</g>
<g style="fill:#000000; fill-opacity:1.0; 
stroke:#000000; stroke-width:21200.000000; stroke-opacity:1; 
stroke-linecap:round; stroke-linejoin:round;">
</g>
<g style="fill:#000000; fill-opacity:1.0; 
stroke:#000000; stroke-width:1.000000; stroke-opacity:1; 
stroke-linecap:round; stroke-linejoin:round;">
<circle cx="22703500.000000" cy="16153810.000000" r="800000.000000" /> 
</g>
<g >
</g>
<g style="fill:#000000; fill-opacity:1.0; 
stroke:#000000; stroke-width:1.000000; stroke-opacity:1; 
stroke-linecap:round; stroke-linejoin:round;">
<circle cx="5248300.000000" cy="5460610.000000" r="2350000.000000" /> 
</g>
<g style="fill:#000000; fill-opacity:1.0; 
stroke:#000000; stroke-width:21200.000000; stroke-opacity:1; 
stroke-linecap:round; stroke-linejoin:round;">
</g>
<g >
</g>
<g style="fill:#000000; fill-opacity:1.0; 
stroke:#000000; stroke-width:21200.000000; stroke-opacity:1; 
stroke-linecap:round; stroke-linejoin:round;">
</g>
<g style="fill:#000000; fill-opacity:1.0; 
stroke:#000000; stroke-width:1.000000; stroke-opacity:1; 
stroke-linecap:round; stroke-linejoin:round;">
<path style="fill:#000000; fill-opacity:1.0; 
stroke:#000000; stroke-width:1.000000; stroke-opacity:1; 
stroke-linecap:round; stroke-linejoin:round;fill-rule:evenodd;"
d="M 11953499.000000,34823809.000000
10453501.000000,34823809.000000
10453501.000000,33323811.000000
11953499.000000,33323811.000000
Z" /> 
<circle cx="11203500.000000" cy="31533810.000000" r="750000.000000" /> 
</g>
<g style="fill:#000000; fill-opacity:1.0; 
stroke:#000000; stroke-width:21200.000000; stroke-opacity:1; 
stroke-linecap:round; stroke-linejoin:round;">
</g>
<g style="fill:#000000; fill-opacity:1.0; 
stroke:#000000; stroke-width:1.000000; stroke-opacity:1; 
stroke-linecap:round; stroke-linejoin:round;">
<circle cx="11203500.000000" cy="28993810.000000" r="750000.000000" /> 
</g>
<g style="fill:#000000; fill-opacity:1.0; 
stroke:#000000; stroke-width:21200.000000; stroke-opacity:1; 
stroke-linecap:round; stroke-linejoin:round;">
</g>
<g >
</g>
<g style="fill:#000000; fill-opacity:1.0; 
stroke:#000000; stroke-width:21200.000000; stroke-opacity:1; 
stroke-linecap:round; stroke-linejoin:round;">
</g>
<g style="fill:#000000; fill-opacity:1.0; 
stroke:#000000; stroke-width:1.000000; stroke-opacity:1; 
stroke-linecap:round; stroke-linejoin:round;">
<path style="fill:#000000; fill-opacity:1.0; 
stroke:#000000; stroke-width:1.000000; stroke-opacity:1; 
stroke-linecap:round; stroke-linejoin:round;fill-rule:evenodd;"
d="M 18653499.000000,6423809.000000
16953501.000000,6423809.000000
16953501.000000,4723811.000000
18653499.000000,4723811.000000
Z" /> 
<circle cx="20343500.000000" cy="5573810.000000" r="850000.000000" /> 
<circle cx="22883500.000000" cy="5573810.000000" r="850000.000000" /> 
<circle cx="25423500.000000" cy="5573810.000000" r="850000.000000" /> 
</g>
<g >
</g>
<g style="fill:#000000; fill-opacity:1.0; 
stroke:#000000; stroke-width:1.000000; stroke-opacity:1; 
stroke-linecap:round; stroke-linejoin:round;">
<path style="fill:#000000; fill-opacity:1.0; 
stroke:#000000; stroke-width:1.000000; stroke-opacity:1; 
stroke-linecap:round; stroke-linejoin:round;fill-rule:evenodd;"
d="M 69203500.000000,33273810.000000
69107829.000000,33254780.000000
69026723.000000,33200587.000000
68972530.000000,33119481.000000
68953500.000000,33023810.000000
68953500.000000,32523810.000000
68972530.000000,32428139.000000
69026723.000000,32347033.000000
69107829.000000,32292840.000000
69203500.000000,32273810.000000
72203500.000000,32273810.000000
72299171.000000,32292840.000000
72380277.000000,32347033.000000
72434470.000000,32428139.000000
72453500.000000,32523810.000000
72453500.000000,33023810.000000
72434470.000000,33119481.000000
72380277.000000,33200587.000000
72299171.000000,33254780.000000
72203500.000000,33273810.000000
Z" /> 
<path style="fill:#000000; fill-opacity:1.0; 
stroke:#000000; stroke-width:1.000000; stroke-opacity:1; 
stroke-linecap:round; stroke-linejoin:round;fill-rule:evenodd;"
d="M 69203500.000000,31273810.000000
69107829.000000,31254780.000000
69026723.000000,31200587.000000
68972530.000000,31119481.000000
68953500.000000,31023810.000000
68953500.000000,30523810.000000
68972530.000000,30428139.000000
69026723.000000,30347033.000000
69107829.000000,30292840.000000
69203500.000000,30273810.000000
72203500.000000,30273810.000000
72299171.000000,30292840.000000
72380277.000000,30347033.000000
72434470.000000,30428139.000000
72453500.000000,30523810.000000
72453500.000000,31023810.000000
72434470.000000,31119481.000000
72380277.000000,31200587.000000
72299171.000000,31254780.000000
72203500.000000,31273810.000000
Z" /> 
<path style="fill:#000000; fill-opacity:1.0; 
stroke:#000000; stroke-width:1.000000; stroke-opacity:1; 
stroke-linecap:round; stroke-linejoin:round;fill-rule:evenodd;"
d="M 75003501.000000,29173810.000000
74907830.000000,29154780.000000
74826724.000000,29100586.000000
74772530.000000,29019480.000000
74753501.000000,28923808.000000
74753500.000000,27923811.000000
74772530.000000,27828140.000000
74826724.000000,27747034.000000
74907830.000000,27692840.000000
75003502.000000,27673811.000000
77903499.000000,27673810.000000
77999170.000000,27692840.000000
78080276.000000,27747034.000000
78134470.000000,27828140.000000
78153499.000000,27923812.000000
78153500.000000,28923809.000000
78134470.000000,29019480.000000
78080276.000000,29100586.000000
77999170.000000,29154780.000000
77903498.000000,29173809.000000
Z" /> 
<path style="fill:#000000; fill-opacity:1.0; 
stroke:#000000; stroke-width:1.000000; stroke-opacity:1; 
stroke-linecap:round; stroke-linejoin:round;fill-rule:evenodd;"
d="M 75003501.000000,35873810.000000
74907830.000000,35854780.000000
74826724.000000,35800586.000000
74772530.000000,35719480.000000
74753501.000000,35623808.000000
74753500.000000,34623811.000000
74772530.000000,34528140.000000
74826724.000000,34447034.000000
74907830.000000,34392840.000000
75003502.000000,34373811.000000
77903499.000000,34373810.000000
77999170.000000,34392840.000000
78080276.000000,34447034.000000
78134470.000000,34528140.000000
78153499.000000,34623812.000000
78153500.000000,35623809.000000
78134470.000000,35719480.000000
78080276.000000,35800586.000000
77999170.000000,35854780.000000
77903498.000000,35873809.000000
Z" /> 
</g>
<g >
</g>
<g style="fill:#000000; fill-opacity:1.0; 
stroke:#000000; stroke-width:1.000000; stroke-opacity:1; 
stroke-linecap:round; stroke-linejoin:round;">
<circle cx="50008300.000000" cy="40261810.000000" r="762000.000000" /> 
</g>
<g style="fill:#000000; fill-opacity:1.0; 
stroke:#000000; stroke-width:21200.000000; stroke-opacity:1; 
stroke-linecap:round; stroke-linejoin:round;">
</g>
<g style="fill:#000000; fill-opacity:1.0; 
stroke:#000000; stroke-width:1.000000; stroke-opacity:1; 
stroke-linecap:round; stroke-linejoin:round;">
<circle cx="52548300.000000" cy="40261810.000000" r="762000.000000" /> 
</g>
<g style="fill:#000000; fill-opacity:1.0; 
stroke:#000000; stroke-width:21200.000000; stroke-opacity:1; 
stroke-linecap:round; stroke-linejoin:round;">
</g>
<g style="fill:#000000; fill-opacity:1.0; 
stroke:#000000; stroke-width:1.000000; stroke-opacity:1; 
stroke-linecap:round; stroke-linejoin:round;">
<circle cx="55088300.000000" cy="40261810.000000" r="762000.000000" /> 
</g>
<g style="fill:#000000; fill-opacity:1.0; 
stroke:#000000; stroke-width:21200.000000; stroke-opacity:1; 
stroke-linecap:round; stroke-linejoin:round;">
</g>
<g style="fill:#000000; fill-opacity:1.0; 
stroke:#000000; stroke-width:1.000000; stroke-opacity:1; 
stroke-linecap:round; stroke-linejoin:round;">
<circle cx="57628300.000000" cy="40261810.000000" r="762000.000000" /> 
</g>
<g style="fill:#000000; fill-opacity:1.0; 
stroke:#000000; stroke-width:21200.000000; stroke-opacity:1; 
stroke-linecap:round; stroke-linejoin:round;">
</g>
<g >
</g>
<g style="fill:#000000; fill-opacity:1.0; 
stroke:#000000; stroke-width:21200.000000; stroke-opacity:1; 
stroke-linecap:round; stroke-linejoin:round;">
</g>
<g style="fill:#000000; fill-opacity:1.0; 
stroke:#000000; stroke-width:1.000000; stroke-opacity:1; 
stroke-linecap:round; stroke-linejoin:round;">
<circle cx="76718500.000000" cy="10058810.000000" r="1125000.000000" /> 
</g>
<g style="fill:#000000; fill-opacity:1.0; 
stroke:#000000; stroke-width:21200.000000; stroke-opacity:1; 
stroke-linecap:round; stroke-linejoin:round;">
</g>
<g style="fill:#000000; fill-opacity:1.0; 
stroke:#000000; stroke-width:1.000000; stroke-opacity:1; 
stroke-linecap:round; stroke-linejoin:round;">
<circle cx="76718500.000000" cy="15138810.000000" r="1125000.000000" /> 
</g>
<g style="fill:#000000; fill-opacity:1.0; 
stroke:#000000; stroke-width:21200.000000; stroke-opacity:1; 
stroke-linecap:round; stroke-linejoin:round;">
</g>
<g style="fill:#000000; fill-opacity:1.0; 
stroke:#000000; stroke-width:1.000000; stroke-opacity:1; 
stroke-linecap:round; stroke-linejoin:round;">
<circle cx="71638500.000000" cy="15138810.000000" r="1125000.000000" /> 
</g>
<g style="fill:#000000; fill-opacity:1.0; 
stroke:#000000; stroke-width:21200.000000; stroke-opacity:1; 
stroke-linecap:round; stroke-linejoin:round;">
</g>
<g style="fill:#000000; fill-opacity:1.0; 
stroke:#000000; stroke-width:1.000000; stroke-opacity:1; 
stroke-linecap:round; stroke-linejoin:round;">
<circle cx="71638500.000000" cy="10058810.000000" r="1125000.000000" /> 
</g>
<g style="fill:#000000; fill-opacity:1.0; 
stroke:#000000; stroke-width:21200.000000; stroke-opacity:1; 
stroke-linecap:round; stroke-linejoin:round;">
</g>
<g style="fill:#000000; fill-opacity:1.0; 
stroke:#000000; stroke-width:1.000000; stroke-opacity:1; 
stroke-linecap:round; stroke-linejoin:round;">
<circle cx="74178500.000000" cy="12598810.000000" r="1025000.000000" /> 
</g>
<g style="fill:#000000; fill-opacity:1.0; 
stroke:#000000; stroke-width:21200.000000; stroke-opacity:1; 
stroke-linecap:round; stroke-linejoin:round;">
</g>
<g >
</g>
<g style="fill:#000000; fill-opacity:1.0; 
stroke:#000000; stroke-width:21200.000000; stroke-opacity:1; 
stroke-linecap:round; stroke-linejoin:round;">
</g>
<g style="fill:#000000; fill-opacity:1.0; 
stroke:#000000; stroke-width:1.000000; stroke-opacity:1; 
stroke-linecap:round; stroke-linejoin:round;">
<path style="fill:#000000; fill-opacity:1.0; 
stroke:#000000; stroke-width:1.000000; stroke-opacity:1; 
stroke-linecap:round; stroke-linejoin:round;fill-rule:evenodd;"
d="M 13829301.000000,17133809.000000
13829301.000000,15133811.000000
15829299.000000,15133811.000000
15829299.000000,17133809.000000
Z" /> 
</g>
<g style="fill:#000000; fill-opacity:1.0; 
stroke:#000000; stroke-width:1600000.000000; stroke-opacity:1; 
stroke-linecap:round; stroke-linejoin:round;">
</g>
<g style="fill:#000000; fill-opacity:0.0; 
stroke:#000000; stroke-width:1600000.000000; stroke-opacity:1; 
stroke-linecap:round; stroke-linejoin:round;">
<path d="M14629300 18673810
L15029300 18673810
" />
<path d="M14629300 21213810
L15029300 21213810
" />
<path d="M14629300 23753810
L15029300 23753810
" />
<path d="M14629300 26293810
L15029300 26293810
" />
<path d="M14629300 28833810
L15029300 28833810
" />
<path d="M14629300 31373810
L15029300 31373810
" />
<path d="M14629300 33913810
L15029300 33913810
" />
<path d="M37489300 33913810
L37889300 33913810
" />
<path d="M37489300 31373810
L37889300 31373810
" />
<path d="M37489300 28833810
L37889300 28833810
" />
<path d="M37489300 26293810
L37889300 26293810
" />
<path d="M37489300 23753810
L37889300 23753810
" />
<path d="M37489300 21213810
L37889300 21213810
" />
<path d="M37489300 18673810
L37889300 18673810
" />
<path d="M37489300 16133810
L37889300 16133810
" />
</g>
<g >
</g>
<g style="fill:#000000; fill-opacity:0.0; 
stroke:#000000; stroke-width:1600000.000000; stroke-opacity:1; 
stroke-linecap:round; stroke-linejoin:round;">
</g>
<g style="fill:#000000; fill-opacity:1.0; 
stroke:#000000; stroke-width:1.000000; stroke-opacity:1; 
stroke-linecap:round; stroke-linejoin:round;">
<circle cx="75748300.000000" cy="5460610.000000" r="2350000.000000" /> 
</g>
<g style="fill:#000000; fill-opacity:1.0; 
stroke:#000000; stroke-width:21200.000000; stroke-opacity:1; 
stroke-linecap:round; stroke-linejoin:round;">
</g>
<g >
</g>
<g style="fill:#000000; fill-opacity:1.0; 
stroke:#000000; stroke-width:21200.000000; stroke-opacity:1; 
stroke-linecap:round; stroke-linejoin:round;">
</g>
<g style="fill:#000000; fill-opacity:1.0; 
stroke:#000000; stroke-width:1.000000; stroke-opacity:1; 
stroke-linecap:round; stroke-linejoin:round;">
<path style="fill:#000000; fill-opacity:1.0; 
stroke:#000000; stroke-width:1.000000; stroke-opacity:1; 
stroke-linecap:round; stroke-linejoin:round;fill-rule:evenodd;"
d="M 76903499.000000,24513811.000000
76903499.000000,26213809.000000
75203501.000000,26213809.000000
75203501.000000,24513811.000000
Z" /> 
<circle cx="76053500.000000" cy="22823810.000000" r="850000.000000" /> 
<circle cx="76053500.000000" cy="20283810.000000" r="850000.000000" /> 
</g>
<g >
</g>
<g style="fill:#000000; fill-opacity:1.0; 
stroke:#000000; stroke-width:1.000000; stroke-opacity:1; 
stroke-linecap:round; stroke-linejoin:round;">
<circle cx="10471000.000000" cy="15848810.000000" r="700000.000000" /> 
</g>
<g style="fill:#000000; fill-opacity:1.0; 
stroke:#000000; stroke-width:21200.000000; stroke-opacity:1; 
stroke-linecap:round; stroke-linejoin:round;">
</g>
<g style="fill:#000000; fill-opacity:1.0; 
stroke:#000000; stroke-width:1.000000; stroke-opacity:1; 
stroke-linecap:round; stroke-linejoin:round;">
<circle cx="7971000.000000" cy="15848810.000000" r="700000.000000" /> 
</g>
<g style="fill:#000000; fill-opacity:1.0; 
stroke:#000000; stroke-width:21200.000000; stroke-opacity:1; 
stroke-linecap:round; stroke-linejoin:round;">
</g>
<g style="fill:#000000; fill-opacity:1.0; 
stroke:#000000; stroke-width:1.000000; stroke-opacity:1; 
stroke-linecap:round; stroke-linejoin:round;">
<circle cx="5471000.000000" cy="15848810.000000" r="700000.000000" /> 
</g>
<g style="fill:#000000; fill-opacity:1.0; 
stroke:#000000; stroke-width:21200.000000; stroke-opacity:1; 
stroke-linecap:round; stroke-linejoin:round;">
</g>
<g style="fill:#000000; fill-opacity:1.0; 
stroke:#000000; stroke-width:1.000000; stroke-opacity:1; 
stroke-linecap:round; stroke-linejoin:round;">
<circle cx="10471000.000000" cy="12548810.000000" r="700000.000000" /> 
</g>
<g style="fill:#000000; fill-opacity:1.0; 
stroke:#000000; stroke-width:21200.000000; stroke-opacity:1; 
stroke-linecap:round; stroke-linejoin:round;">
</g>
<g style="fill:#000000; fill-opacity:1.0; 
stroke:#000000; stroke-width:1.000000; stroke-opacity:1; 
stroke-linecap:round; stroke-linejoin:round;">
<circle cx="7971000.000000" cy="12548810.000000" r="700000.000000" /> 
</g>
<g style="fill:#000000; fill-opacity:1.0; 
stroke:#000000; stroke-width:21200.000000; stroke-opacity:1; 
stroke-linecap:round; stroke-linejoin:round;">
</g>
<g style="fill:#000000; fill-opacity:1.0; 
stroke:#000000; stroke-width:1.000000; stroke-opacity:1; 
stroke-linecap:round; stroke-linejoin:round;">
<path style="fill:#000000; fill-opacity:1.0; 
stroke:#000000; stroke-width:1.000000; stroke-opacity:1; 
stroke-linecap:round; stroke-linejoin:round;fill-rule:evenodd;"
d="M 4771001.000000,13248809.000000
4771001.000000,11848811.000000
6170999.000000,11848811.000000
6170999.000000,13248809.000000
Z" /> 
</g>
<g >
</g>
<g style="fill:#000000; fill-opacity:1.0; 
stroke:#000000; stroke-width:1.000000; stroke-opacity:1; 
stroke-linecap:round; stroke-linejoin:round;">
<circle cx="4778300.000000" cy="19371010.000000" r="762000.000000" /> 
</g>
<g style="fill:#000000; fill-opacity:1.0; 
stroke:#000000; stroke-width:21200.000000; stroke-opacity:1; 
stroke-linecap:round; stroke-linejoin:round;">
</g>
<g style="fill:#000000; fill-opacity:1.0; 
stroke:#000000; stroke-width:1.000000; stroke-opacity:1; 
stroke-linecap:round; stroke-linejoin:round;">
<circle cx="7318300.000000" cy="19371010.000000" r="762000.000000" /> 
</g>
<g style="fill:#000000; fill-opacity:1.0; 
stroke:#000000; stroke-width:21200.000000; stroke-opacity:1; 
stroke-linecap:round; stroke-linejoin:round;">
</g>
<g >
</g>
<g style="fill:#000000; fill-opacity:1.0; 
stroke:#000000; stroke-width:21200.000000; stroke-opacity:1; 
stroke-linecap:round; stroke-linejoin:round;">
</g>
<g style="fill:#000000; fill-opacity:1.0; 
stroke:#000000; stroke-width:1.000000; stroke-opacity:1; 
stroke-linecap:round; stroke-linejoin:round;">
<path style="fill:#000000; fill-opacity:1.0; 
stroke:#000000; stroke-width:1.000000; stroke-opacity:1; 
stroke-linecap:round; stroke-linejoin:round;fill-rule:evenodd;"
d="M 12053499.000000,27013809.000000
10553501.000000,27013809.000000
10553501.000000,25513811.000000
12053499.000000,25513811.000000
Z" /> 
<circle cx="11303500.000000" cy="23723810.000000" r="750000.000000" /> 
</g>
<g style="fill:#000000; fill-opacity:1.0; 
stroke:#000000; stroke-width:21200.000000; stroke-opacity:1; 
stroke-linecap:round; stroke-linejoin:round;">
</g>
<g style="fill:#000000; fill-opacity:1.0; 
stroke:#000000; stroke-width:1.000000; stroke-opacity:1; 
stroke-linecap:round; stroke-linejoin:round;">
<circle cx="11303500.000000" cy="21183810.000000" r="750000.000000" /> 
</g>
<g style="fill:#000000; fill-opacity:1.0; 
stroke:#000000; stroke-width:21200.000000; stroke-opacity:1; 
stroke-linecap:round; stroke-linejoin:round;">
</g>
<g >
</g>
<g style="fill:#000000; fill-opacity:1.0; 
stroke:#000000; stroke-width:21200.000000; stroke-opacity:1; 
stroke-linecap:round; stroke-linejoin:round;">
</g>
<g style="fill:#000000; fill-opacity:1.0; 
stroke:#000000; stroke-width:1.000000; stroke-opacity:1; 
stroke-linecap:round; stroke-linejoin:round;">
<circle cx="75748300.000000" cy="39960610.000000" r="2350000.000000" /> 
</g>
<g style="fill:#000000; fill-opacity:1.0; 
stroke:#000000; stroke-width:21200.000000; stroke-opacity:1; 
stroke-linecap:round; stroke-linejoin:round;">
</g>
<g >
</g>
<g style="fill:#000000; fill-opacity:1.0; 
stroke:#000000; stroke-width:21200.000000; stroke-opacity:1; 
stroke-linecap:round; stroke-linejoin:round;">
</g>
<g style="fill:#000000; fill-opacity:1.0; 
stroke:#000000; stroke-width:1.000000; stroke-opacity:1; 
stroke-linecap:round; stroke-linejoin:round;">
<circle cx="5248300.000000" cy="39960610.000000" r="2350000.000000" /> 
</g>
<g style="fill:#000000; fill-opacity:1.0; 
stroke:#000000; stroke-width:21200.000000; stroke-opacity:1; 
stroke-linecap:round; stroke-linejoin:round;">
</g>
<g >
</g>
<g >
</g>
<g >
</g>
<g style="fill:#000000; fill-opacity:1.0; 
stroke:#000000; stroke-width:21200.000000; stroke-opacity:1; 
stroke-linecap:round; stroke-linejoin:round;">
</g>
<g style="fill:#000000; fill-opacity:1.0; 
stroke:#000000; stroke-width:1.000000; stroke-opacity:1; 
stroke-linecap:round; stroke-linejoin:round;">
<circle cx="49948500.000000" cy="6737810.000000" r="500000.000000" /> 
</g>
<g style="fill:#000000; fill-opacity:1.0; 
stroke:#000000; stroke-width:21200.000000; stroke-opacity:1; 
stroke-linecap:round; stroke-linejoin:round;">
</g>
<g style="fill:#000000; fill-opacity:1.0; 
stroke:#000000; stroke-width:1.000000; stroke-opacity:1; 
stroke-linecap:round; stroke-linejoin:round;">
<circle cx="57928500.000000" cy="6737810.000000" r="500000.000000" /> 
</g>
<g style="fill:#000000; fill-opacity:1.0; 
stroke:#000000; stroke-width:21200.000000; stroke-opacity:1; 
stroke-linecap:round; stroke-linejoin:round;">
</g>
<g >
</g>
<g >
</g>
<g >
</g>
<g >
</g>
<g >
</g>
</g>
<g style="fill:#000000; fill-opacity:1.0; 
stroke:#000000; stroke-width:21200.000000; stroke-opacity:1; 
stroke-linecap:round; stroke-linejoin:round;">
</g>
<g style="fill:#D0D2CD; fill-opacity:1.0; 
stroke:#D0D2CD; stroke-width:21200.000000; stroke-opacity:1; 
stroke-linecap:round; stroke-linejoin:round;">
</g>
<g style="fill:#D0D2CD; fill-opacity:1.0; 
stroke:#D0D2CD; stroke-width:349999.000000; stroke-opacity:1; 
stroke-linecap:round; stroke-linejoin:round;">
</g>
<g style="fill:#D0D2CD; fill-opacity:0.0; 
stroke:#D0D2CD; stroke-width:349999.000000; stroke-opacity:1; 
stroke-linecap:round; stroke-linejoin:round;">
<path d="M3843898 3224645
L3968029 3146194
" />
</g>
<g style="fill:#D0D2CD; fill-opacity:1.0; 
stroke:#D0D2CD; stroke-width:1.000000; stroke-opacity:1; 
stroke-linecap:round; stroke-linejoin:round;">
<circle cx="75508287.000000" cy="42720612.000000" r="174999.500000" /> 
</g>
<g style="fill:#D0D2CD; fill-opacity:1.0; 
stroke:#D0D2CD; stroke-width:349999.000000; stroke-opacity:1; 
stroke-linecap:round; stroke-linejoin:round;">
</g>
<g style="fill:#D0D2CD; fill-opacity:0.0; 
stroke:#D0D2CD; stroke-width:349999.000000; stroke-opacity:1; 
stroke-linecap:round; stroke-linejoin:round;">
<path d="M76239541 2811087
L76380796 2850286
" />
<path d="M77919616 41505428
L77828895 41621884
" />
<path d="M4777047 42630135
L4635793 42590937
" />
<path d="M2511985 5571849
L2522978 5424097
" />
<path d="M78154868 4307938
L78220642 4438760
" />
<path d="M78450110 40308615
L78417810 40451862
" />
</g>
<g style="fill:#D0D2CD; fill-opacity:1.0; 
stroke:#D0D2CD; stroke-width:1.000000; stroke-opacity:1; 
stroke-linecap:round; stroke-linejoin:round;">
<circle cx="5508298.000000" cy="2720610.000000" r="174999.500000" /> 
</g>
<g style="fill:#D0D2CD; fill-opacity:1.0; 
stroke:#D0D2CD; stroke-width:349999.000000; stroke-opacity:1; 
stroke-linecap:round; stroke-linejoin:round;">
</g>
<g style="fill:#D0D2CD; fill-opacity:0.0; 
stroke:#D0D2CD; stroke-width:349999.000000; stroke-opacity:1; 
stroke-linecap:round; stroke-linejoin:round;">
<path d="M3096972 41505428
L3012334 41385011
" />
<path d="M77172692 3224645
L77293108 3309283
" />
<path d="M2541175 40163620
L2522978 40017124
" />
<path d="M76519811 42544941
L76380796 42590937
" />
<path d="M75657049 42716925
L75508287 42720612
" />
<path d="M4360249 42492251
L4226450 42432967
" />
<path d="M78004253 4056208
L78082704 4180339
" />
<path d="M3187693 41621884
L3096972 41505428
" />
<path d="M75951298 2753487
L76096294 2778787
" />
</g>
<g style="fill:#D0D2CD; fill-opacity:1.0; 
stroke:#D0D2CD; stroke-width:1.000000; stroke-opacity:1; 
stroke-linecap:round; stroke-linejoin:round;">
<circle cx="77629610.000000" cy="3599290.000000" r="174999.500000" /> 
</g>
<g style="fill:#D0D2CD; fill-opacity:1.0; 
stroke:#D0D2CD; stroke-width:349999.000000; stroke-opacity:1; 
stroke-linecap:round; stroke-linejoin:round;">
</g>
<g style="fill:#D0D2CD; fill-opacity:0.0; 
stroke:#D0D2CD; stroke-width:349999.000000; stroke-opacity:1; 
stroke-linecap:round; stroke-linejoin:round;">
<path d="M76656341 2948972
L76790140 3008255
" />
<path d="M77732192 3707087
L77828895 3819336
" />
<path d="M3386979 41841931
L3284396 41734133
" />
<path d="M2508298 5720610
L2511985 5571849
" />
<path d="M77409563 42041218
L77293108 42131939
" />
</g>
<g style="fill:#D0D2CD; fill-opacity:1.0; 
stroke:#D0D2CD; stroke-width:1.000000; stroke-opacity:1; 
stroke-linecap:round; stroke-linejoin:round;">
<circle cx="77629610.000000" cy="41841931.000000" r="174999.500000" /> 
</g>
<g style="fill:#D0D2CD; fill-opacity:1.0; 
stroke:#D0D2CD; stroke-width:349999.000000; stroke-opacity:1; 
stroke-linecap:round; stroke-linejoin:round;">
</g>
<g style="fill:#D0D2CD; fill-opacity:0.0; 
stroke:#D0D2CD; stroke-width:349999.000000; stroke-opacity:1; 
stroke-linecap:round; stroke-linejoin:round;">
<path d="M78475410 40163620
L78450110 40308615
" />
<path d="M75508287 2720610
L75657049 2724297
" />
<path d="M5065289 2753487
L5211785 2735290
" />
<path d="M2541175 5277600
L2566475 5132606
" />
<path d="M2508298 39720612
L2508298 5720610
" />
<path d="M4920294 42662435
L4777047 42630135
" />
<path d="M75804802 42705932
L75657049 42716925
" />
</g>
<g style="fill:#D0D2CD; fill-opacity:1.0; 
stroke:#D0D2CD; stroke-width:1.000000; stroke-opacity:1; 
stroke-linecap:round; stroke-linejoin:round;">
<circle cx="3386979.000000" cy="41841931.000000" r="174999.500000" /> 
</g>
<g style="fill:#D0D2CD; fill-opacity:1.0; 
stroke:#D0D2CD; stroke-width:349999.000000; stroke-opacity:1; 
stroke-linecap:round; stroke-linejoin:round;">
</g>
<g style="fill:#D0D2CD; fill-opacity:0.0; 
stroke:#D0D2CD; stroke-width:349999.000000; stroke-opacity:1; 
stroke-linecap:round; stroke-linejoin:round;">
<path d="M2683969 4709089
L2736660 4572559
" />
<path d="M78378611 40593115
L78332616 40732130
" />
<path d="M78493607 40017124
L78475410 40163620
" />
<path d="M78332616 4709089
L78378611 4848104
" />
<path d="M77048561 3146194
L77172692 3224645
" />
<path d="M76380796 42590937
L76239541 42630135
" />
<path d="M2861718 41133281
L2795943 41002459
" />
<path d="M2522978 5424097
L2541175 5277600
" />
<path d="M3386979 3599290
L3494777 3496706
" />
<path d="M78332616 40732130
L78279926 40868660
" />
<path d="M78450110 5132606
L78475410 5277600
" />
<path d="M77521813 41944514
L77409563 42041218
" />
<path d="M77828895 3819336
L77919616 3935792
" />
<path d="M78279926 40868660
L78220642 41002459
" />
<path d="M77521813 3496706
L77629610 3599290
" />
<path d="M3723482 3309283
L3843898 3224645
" />
<path d="M4226450 3008255
L4360249 2948972
" />
<path d="M2933882 41260880
L2861718 41133281
" />
<path d="M3012334 4056208
L3096972 3935792
" />
<path d="M78508287 39720612
L78504600 39869373
" />
<path d="M78082704 41260880
L78004253 41385011
" />
<path d="M77293108 42131939
L77172692 42216576
" />
<path d="M2637974 40593115
L2598775 40451862
" />
<path d="M76519811 2896281
L76656341 2948972
" />
<path d="M76920962 42367192
L76790140 42432967
" />
<path d="M4360249 2948972
L4496778 2896281
" />
<path d="M78417810 4989358
L78450110 5132606
" />
</g>
<g style="fill:#D0D2CD; fill-opacity:1.0; 
stroke:#D0D2CD; stroke-width:1.000000; stroke-opacity:1; 
stroke-linecap:round; stroke-linejoin:round;">
<circle cx="5508298.000000" cy="42720612.000000" r="174999.500000" /> 
</g>
<g style="fill:#D0D2CD; fill-opacity:1.0; 
stroke:#D0D2CD; stroke-width:349999.000000; stroke-opacity:1; 
stroke-linecap:round; stroke-linejoin:round;">
</g>
<g style="fill:#D0D2CD; fill-opacity:0.0; 
stroke:#D0D2CD; stroke-width:349999.000000; stroke-opacity:1; 
stroke-linecap:round; stroke-linejoin:round;">
<path d="M2637974 4848104
L2683969 4709089
" />
<path d="M5359537 2724297
L5508298 2720610
" />
<path d="M2598775 40451862
L2566475 40308615
" />
<path d="M3843898 42216576
L3723482 42131939
" />
<path d="M77409563 3400004
L77521813 3496706
" />
<path d="M76656341 42492251
L76519811 42544941
" />
<path d="M75951298 42687735
L75804802 42705932
" />
<path d="M76096294 42662435
L75951298 42687735
" />
<path d="M3968029 42295028
L3843898 42216576
" />
<path d="M78004253 41385011
L77919616 41505428
" />
<path d="M78378611 4848104
L78417810 4989358
" />
<path d="M2566475 5132606
L2598775 4989358
" />
<path d="M4226450 42432967
L4095628 42367192
" />
<path d="M4635793 42590937
L4496778 42544941
" />
<path d="M2795943 41002459
L2736660 40868660
" />
<path d="M4095628 3074030
L4226450 3008255
" />
<path d="M3187693 3819336
L3284396 3707087
" />
</g>
<g style="fill:#D0D2CD; fill-opacity:1.0; 
stroke:#D0D2CD; stroke-width:1.000000; stroke-opacity:1; 
stroke-linecap:round; stroke-linejoin:round;">
<circle cx="78508287.000000" cy="5720610.000000" r="174999.500000" /> 
</g>
<g style="fill:#D0D2CD; fill-opacity:1.0; 
stroke:#D0D2CD; stroke-width:349999.000000; stroke-opacity:1; 
stroke-linecap:round; stroke-linejoin:round;">
</g>
<g style="fill:#D0D2CD; fill-opacity:0.0; 
stroke:#D0D2CD; stroke-width:349999.000000; stroke-opacity:1; 
stroke-linecap:round; stroke-linejoin:round;">
<path d="M77828895 41621884
L77732192 41734133
" />
<path d="M4635793 2850286
L4777047 2811087
" />
<path d="M2933882 4180339
L3012334 4056208
" />
<path d="M3607026 3400004
L3723482 3309283
" />
<path d="M4920294 2778787
L5065289 2753487
" />
<path d="M76239541 42630135
L76096294 42662435
" />
<path d="M2683969 40732130
L2637974 40593115
" />
<path d="M2861718 4307938
L2933882 4180339
" />
<path d="M2795943 4438760
L2861718 4307938
" />
<path d="M75508287 42720612
L5508298 42720612
" />
<path d="M75657049 2724297
L75804802 2735290
" />
<path d="M4496778 42544941
L4360249 42492251
" />
<path d="M78154868 41133281
L78082704 41260880
" />
<path d="M2736660 4572559
L2795943 4438760
" />
<path d="M3607026 42041218
L3494777 41944514
" />
<path d="M78417810 40451862
L78378611 40593115
" />
</g>
<g style="fill:#D0D2CD; fill-opacity:1.0; 
stroke:#D0D2CD; stroke-width:1.000000; stroke-opacity:1; 
stroke-linecap:round; stroke-linejoin:round;">
<circle cx="75508287.000000" cy="2720610.000000" r="174999.500000" /> 
</g>
<g style="fill:#D0D2CD; fill-opacity:1.0; 
stroke:#D0D2CD; stroke-width:349999.000000; stroke-opacity:1; 
stroke-linecap:round; stroke-linejoin:round;">
</g>
<g style="fill:#D0D2CD; fill-opacity:0.0; 
stroke:#D0D2CD; stroke-width:349999.000000; stroke-opacity:1; 
stroke-linecap:round; stroke-linejoin:round;">
<path d="M4496778 2896281
L4635793 2850286
" />
<path d="M77172692 42216576
L77048561 42295028
" />
<path d="M76380796 2850286
L76519811 2896281
" />
<path d="M3968029 3146194
L4095628 3074030
" />
<path d="M2736660 40868660
L2683969 40732130
" />
<path d="M4095628 42367192
L3968029 42295028
" />
</g>
<g style="fill:#D0D2CD; fill-opacity:1.0; 
stroke:#D0D2CD; stroke-width:1.000000; stroke-opacity:1; 
stroke-linecap:round; stroke-linejoin:round;">
<circle cx="78508287.000000" cy="39720612.000000" r="174999.500000" /> 
</g>
<g style="fill:#D0D2CD; fill-opacity:1.0; 
stroke:#D0D2CD; stroke-width:349999.000000; stroke-opacity:1; 
stroke-linecap:round; stroke-linejoin:round;">
</g>
<g style="fill:#D0D2CD; fill-opacity:0.0; 
stroke:#D0D2CD; stroke-width:349999.000000; stroke-opacity:1; 
stroke-linecap:round; stroke-linejoin:round;">
<path d="M3284396 3707087
L3386979 3599290
" />
<path d="M5065289 42687735
L4920294 42662435
" />
<path d="M5211785 2735290
L5359537 2724297
" />
<path d="M78493607 5424097
L78504600 5571849
" />
<path d="M77732192 41734133
L77629610 41841931
" />
<path d="M77919616 3935792
L78004253 4056208
" />
<path d="M78082704 4180339
L78154868 4307938
" />
<path d="M2522978 40017124
L2511985 39869373
" />
<path d="M5359537 42716925
L5211785 42705932
" />
<path d="M3494777 3496706
L3607026 3400004
" />
<path d="M3096972 3935792
L3187693 3819336
" />
<path d="M2511985 39869373
L2508298 39720612
" />
<path d="M3494777 41944514
L3386979 41841931
" />
</g>
<g style="fill:#D0D2CD; fill-opacity:1.0; 
stroke:#D0D2CD; stroke-width:1.000000; stroke-opacity:1; 
stroke-linecap:round; stroke-linejoin:round;">
<circle cx="3386979.000000" cy="3599290.000000" r="174999.500000" /> 
</g>
<g style="fill:#D0D2CD; fill-opacity:1.0; 
stroke:#D0D2CD; stroke-width:349999.000000; stroke-opacity:1; 
stroke-linecap:round; stroke-linejoin:round;">
</g>
<g style="fill:#D0D2CD; fill-opacity:0.0; 
stroke:#D0D2CD; stroke-width:349999.000000; stroke-opacity:1; 
stroke-linecap:round; stroke-linejoin:round;">
<path d="M75804802 2735290
L75951298 2753487
" />
<path d="M3012334 41385011
L2933882 41260880
" />
<path d="M78279926 4572559
L78332616 4709089
" />
</g>
<g style="fill:#D0D2CD; fill-opacity:1.0; 
stroke:#D0D2CD; stroke-width:1.000000; stroke-opacity:1; 
stroke-linecap:round; stroke-linejoin:round;">
<circle cx="2508298.000000" cy="5720610.000000" r="174999.500000" /> 
</g>
<g style="fill:#D0D2CD; fill-opacity:1.0; 
stroke:#D0D2CD; stroke-width:349999.000000; stroke-opacity:1; 
stroke-linecap:round; stroke-linejoin:round;">
</g>
<g style="fill:#D0D2CD; fill-opacity:0.0; 
stroke:#D0D2CD; stroke-width:349999.000000; stroke-opacity:1; 
stroke-linecap:round; stroke-linejoin:round;">
<path d="M5508298 42720612
L5359537 42716925
" />
<path d="M2598775 4989358
L2637974 4848104
" />
<path d="M3284396 41734133
L3187693 41621884
" />
<path d="M78220642 4438760
L78279926 4572559
" />
<path d="M77629610 41841931
L77521813 41944514
" />
<path d="M77629610 3599290
L77732192 3707087
" />
<path d="M3723482 42131939
L3607026 42041218
" />
<path d="M78504600 5571849
L78508287 5720610
" />
<path d="M76790140 3008255
L76920962 3074030
" />
<path d="M76920962 3074030
L77048561 3146194
" />
<path d="M76096294 2778787
L76239541 2811087
" />
<path d="M78508287 5720610
L78508287 39720612
" />
<path d="M78220642 41002459
L78154868 41133281
" />
<path d="M78475410 5277600
L78493607 5424097
" />
<path d="M4777047 2811087
L4920294 2778787
" />
<path d="M77048561 42295028
L76920962 42367192
" />
<path d="M77293108 3309283
L77409563 3400004
" />
<path d="M78504600 39869373
L78493607 40017124
" />
<path d="M2566475 40308615
L2541175 40163620
" />
<path d="M76790140 42432967
L76656341 42492251
" />
<path d="M5508298 2720610
L75508287 2720610
" />
<path d="M5211785 42705932
L5065289 42687735
" />
<g >
</g>
<g >
</g>
<g >
</g>
<g >
</g>
<g >
</g>
<g >
</g>
<g >
</g>
<g >
</g>
<g >
</g>
<g >
</g>
<g >
</g>
<g >
</g>
<g >
</g>
<g >
</g>
<g >
</g>
<g >
</g>
<g >
</g>
<g >
</g>
<g >
</g>
<g >
</g>
<g >
</g>
<g >
</g>
<g >
</g>
<g >
</g>
<g >
</g>
<g >
</g>
<g >
</g>
<g >
</g>
<g >
</g>
</g> 
</svg>
