M48
INCH,TZ
T1C0.0157
T2C0.0300
T3C0.0315
T4C0.0354
T5C0.0394
T6C0.0591
T7C0.0669
T8C0.1063
%
G90
G05
T1
X12184Y-2818
X12184Y-3418
X12184Y-4018
X12184Y-4618
X16084Y-3518
X19205Y-5518
X19921Y-14291
X20071Y-5518
X20492Y-12835
X20937Y-5518
X21370Y-5518
X21791Y-13051
X25484Y-11590
X26163Y-12131
T2
X1193Y-6854
X2193Y-6854
X19000Y-15079
X20000Y-15079
X21000Y-15079
X22000Y-15079
T3
X3723Y-10643
X3723Y-11643
X3723Y-12643
X3762Y-7568
X3762Y-8568
X3762Y-9568
X6911Y-5611
X6911Y-8611
X6911Y-9568
X6911Y-12568
X8230Y-9564
X8230Y-12564
X8250Y-5588
X8250Y-8588
X26388Y-6683
X26388Y-9683
X27699Y-6714
X27699Y-9714
T4
X1475Y-3923
X1475Y-5222
X2460Y-3923
X2460Y-5222
X3444Y-3923
X3444Y-5222
T5
X5150Y-5580
X5150Y-6580
X5150Y-7580
X5150Y-8580
X5150Y-9580
X5150Y-10580
X5150Y-11580
X5150Y-12580
X6321Y-1423
X7321Y-1423
X8321Y-1423
X9321Y-1423
X14150Y-5580
X14150Y-6580
X14150Y-7580
X14150Y-8580
X14150Y-9580
X14150Y-10580
X14150Y-11580
X14150Y-12580
X29254Y-7214
X29254Y-8214
X29254Y-9214
T6
X28516Y-4188
T7
X27516Y-3188
X27516Y-5188
X29516Y-3188
X29516Y-5188
T8
X1378Y-1378
X1378Y-14961
X29134Y-1378
X29134Y-14961
T0
M30
