G04 #@! TF.GenerationSoftware,KiCad,Pcbnew,6.0.2+dfsg-1*
G04 #@! TF.CreationDate,2023-07-21T16:48:24-07:00*
G04 #@! TF.ProjectId,DNS-DriveBy,444e532d-4472-4697-9665-42792e6b6963,rev?*
G04 #@! TF.SameCoordinates,Original*
G04 #@! TF.FileFunction,Soldermask,Bot*
G04 #@! TF.FilePolarity,Negative*
%FSLAX46Y46*%
G04 Gerber Fmt 4.6, Leading zero omitted, Abs format (unit mm)*
G04 Created by KiCad (PCBNEW 6.0.2+dfsg-1) date 2023-07-21 16:48:24*
%MOMM*%
%LPD*%
G01*
G04 APERTURE LIST*
G04 Aperture macros list*
%AMRoundRect*
0 Rectangle with rounded corners*
0 $1 Rounding radius*
0 $2 $3 $4 $5 $6 $7 $8 $9 X,Y pos of 4 corners*
0 Add a 4 corners polygon primitive as box body*
4,1,4,$2,$3,$4,$5,$6,$7,$8,$9,$2,$3,0*
0 Add four circle primitives for the rounded corners*
1,1,$1+$1,$2,$3*
1,1,$1+$1,$4,$5*
1,1,$1+$1,$6,$7*
1,1,$1+$1,$8,$9*
0 Add four rect primitives between the rounded corners*
20,1,$1+$1,$2,$3,$4,$5,0*
20,1,$1+$1,$4,$5,$6,$7,0*
20,1,$1+$1,$6,$7,$8,$9,0*
20,1,$1+$1,$8,$9,$2,$3,0*%
G04 Aperture macros list end*
%ADD10C,4.700000*%
%ADD11C,1.600000*%
%ADD12O,1.600000X1.600000*%
%ADD13R,1.500000X1.500000*%
%ADD14C,1.500000*%
%ADD15R,1.700000X1.700000*%
%ADD16O,1.700000X1.700000*%
%ADD17C,1.524000*%
%ADD18C,2.050000*%
%ADD19C,2.250000*%
%ADD20R,2.000000X2.000000*%
%ADD21O,2.000000X1.600000*%
%ADD22R,1.400000X1.400000*%
%ADD23C,1.400000*%
%ADD24R,1.500000X1.000000*%
%ADD25C,1.000000*%
%ADD26R,0.700000X2.000000*%
%ADD27R,1.600000X1.900000*%
%ADD28R,1.700000X3.000000*%
%ADD29R,2.100000X2.000000*%
%ADD30R,1.000000X1.500000*%
%ADD31RoundRect,0.250000X1.500000X-0.250000X1.500000X0.250000X-1.500000X0.250000X-1.500000X-0.250000X0*%
%ADD32RoundRect,0.250001X1.449999X-0.499999X1.449999X0.499999X-1.449999X0.499999X-1.449999X-0.499999X0*%
G04 APERTURE END LIST*
D10*
X3500000Y-3500000D03*
D11*
X17555200Y-21873200D03*
D12*
X17555200Y-14253200D03*
D13*
X9455200Y-32113200D03*
D14*
X9455200Y-29573200D03*
X9455200Y-27033200D03*
D11*
X70355200Y-17053200D03*
D12*
X70355200Y-24673200D03*
D15*
X16055200Y-3613200D03*
D16*
X18595200Y-3613200D03*
X21135200Y-3613200D03*
X23675200Y-3613200D03*
D17*
X48260000Y-38301200D03*
X50800000Y-38301200D03*
X53340000Y-38301200D03*
X55880000Y-38301200D03*
D18*
X72430200Y-10638200D03*
D19*
X69890200Y-8098200D03*
X69890200Y-13178200D03*
X74970200Y-13178200D03*
X74970200Y-8098200D03*
D20*
X13081000Y-14173200D03*
D21*
X13081000Y-16713200D03*
X13081000Y-19253200D03*
X13081000Y-21793200D03*
X13081000Y-24333200D03*
X13081000Y-26873200D03*
X13081000Y-29413200D03*
X13081000Y-31953200D03*
X35941000Y-31953200D03*
X35941000Y-29413200D03*
X35941000Y-26873200D03*
X35941000Y-24333200D03*
X35941000Y-21793200D03*
X35941000Y-19253200D03*
X35941000Y-16713200D03*
X35941000Y-14173200D03*
D11*
X20905200Y-31913200D03*
D12*
X20905200Y-24293200D03*
D11*
X20955200Y-21813200D03*
D12*
X20955200Y-14193200D03*
D10*
X74000000Y-3500000D03*
D15*
X74305200Y-23403200D03*
D16*
X74305200Y-20863200D03*
X74305200Y-18323200D03*
D22*
X3747700Y-9963200D03*
D23*
X6247700Y-9963200D03*
X8747700Y-9963200D03*
X3747700Y-13263200D03*
X6247700Y-13263200D03*
X8747700Y-13263200D03*
D11*
X67026200Y-24595000D03*
D12*
X67026200Y-16975000D03*
D11*
X17555200Y-24303200D03*
D12*
X17555200Y-31923200D03*
D17*
X5570000Y-17410400D03*
X3030000Y-17410400D03*
D13*
X9555200Y-24303200D03*
D14*
X9555200Y-21763200D03*
X9555200Y-19223200D03*
D10*
X74000000Y-38000000D03*
X3500000Y-38000000D03*
D24*
X50507500Y-34550000D03*
X50507500Y-33250000D03*
X50507500Y-31950000D03*
X67031400Y-21363200D03*
X67031400Y-20063200D03*
D25*
X48200200Y-4777200D03*
X56180200Y-4777200D03*
D26*
X55380200Y-15477200D03*
X54280200Y-15477200D03*
X53180200Y-15477200D03*
X52080200Y-15477200D03*
X50980200Y-15477200D03*
X49880200Y-15477200D03*
X48780200Y-15477200D03*
X47680200Y-15477200D03*
X46580200Y-15477200D03*
D27*
X45080200Y-14777200D03*
D28*
X45130200Y-5177200D03*
X61130200Y-5177200D03*
D29*
X60230200Y-15077200D03*
D30*
X42830200Y-38363200D03*
X44130200Y-38363200D03*
X45430200Y-38363200D03*
D24*
X53657500Y-34550000D03*
X53657500Y-33250000D03*
X53657500Y-31950000D03*
D30*
X3555200Y-7763200D03*
X4855200Y-7763200D03*
D31*
X74280200Y-30813200D03*
X74280200Y-28813200D03*
D32*
X68530200Y-26463200D03*
X68530200Y-33163200D03*
M02*
